<svg width="30" height="30" viewBox="0 0 30 30" fill="none" xmlns="http://www.w3.org/2000/svg">
<path d="M26.1996 0.599609H3.79961C2.03961 0.599609 0.599609 2.03961 0.599609 3.79961V26.1996C0.599609 27.9612 2.03961 29.3996 3.79961 29.3996H14.9996V18.1996H11.7996V14.2396H14.9996V10.9596C14.9996 7.49721 16.9388 5.06521 21.0252 5.06521L23.91 5.06841V9.23641H21.9948C20.4044 9.23641 19.7996 10.43 19.7996 11.5372V14.2412H23.9084L22.9996 18.1996H19.7996V29.3996H26.1996C27.9596 29.3996 29.3996 27.9612 29.3996 26.1996V3.79961C29.3996 2.03961 27.9596 0.599609 26.1996 0.599609Z" fill="black"/>
</svg>
