<svg width="30" height="30" viewBox="0 0 30 30" fill="none" xmlns="http://www.w3.org/2000/svg">
<path fill-rule="evenodd" clip-rule="evenodd" d="M25.0623 25.0607H20.8251V18.4293C20.8251 16.8487 20.7977 14.8144 18.6234 14.8144C16.4177 14.8144 16.0811 16.5373 16.0811 18.3167V25.0607H11.8486V11.4253H15.9103V13.2899H15.9691C16.5348 12.2173 17.9171 11.087 19.9783 11.087C24.2697 11.087 25.0623 13.9099 25.0623 17.5824V25.0607ZM7.07084 9.56244C6.74798 9.56266 6.42823 9.49926 6.12988 9.37584C5.83153 9.25242 5.56043 9.07141 5.33207 8.84316C5.10372 8.61491 4.92258 8.3439 4.79903 8.0456C4.67547 7.74731 4.61191 7.42759 4.61199 7.10472C4.61199 6.45305 4.87086 5.82807 5.33167 5.36726C5.79247 4.90646 6.41745 4.64758 7.06913 4.64758C7.7208 4.64758 8.34579 4.90646 8.80659 5.36726C9.2674 5.82807 9.52627 6.45305 9.52627 7.10472C9.52642 7.7562 9.26785 8.38107 8.8074 8.84195C8.34695 9.30283 7.72232 9.56199 7.07084 9.56244ZM4.94856 25.0607H9.19027V11.4253H4.94913L4.94856 25.0607ZM27.172 0.713867H2.82227C1.65942 0.713867 0.714844 1.63615 0.714844 2.77444V27.2242C0.714844 28.3624 1.65942 29.2859 2.82227 29.2859H27.172C28.3377 29.2859 29.2857 28.3624 29.2857 27.2242V2.77444C29.2863 1.63615 28.3371 0.713867 27.172 0.713867Z" fill="black"/>
</svg>
