<svg width="29" height="29" viewBox="0 0 29 29" fill="none" xmlns="http://www.w3.org/2000/svg">
<path fill-rule="evenodd" clip-rule="evenodd" d="M6.74888 0.798828C5.1707 0.798828 3.65713 1.4256 2.54098 2.54132C1.42483 3.65704 0.797481 5.17037 0.796875 6.74854V22.6205C0.796875 24.1991 1.42396 25.713 2.54018 26.8292C3.65639 27.9455 5.17031 28.5725 6.74888 28.5725H22.6209C24.199 28.5719 25.7124 27.9446 26.8281 26.8284C27.9438 25.7123 28.5706 24.1987 28.5706 22.6205V6.74854C28.57 5.17077 27.9429 3.65778 26.8273 2.54213C25.7116 1.42647 24.1987 0.799434 22.6209 0.798828H6.74888ZM24.3329 6.75769C24.3329 7.21234 24.1523 7.64838 23.8308 7.96987C23.5093 8.29136 23.0732 8.47197 22.6186 8.47197C22.1639 8.47197 21.7279 8.29136 21.4064 7.96987C21.0849 7.64838 20.9043 7.21234 20.9043 6.75769C20.9043 6.30303 21.0849 5.86699 21.4064 5.5455C21.7279 5.22401 22.1639 5.0434 22.6186 5.0434C23.0732 5.0434 23.5093 5.22401 23.8308 5.5455C24.1523 5.86699 24.3329 6.30303 24.3329 6.75769ZM14.6872 9.93026C13.4262 9.93026 12.217 10.4312 11.3254 11.3228C10.4338 12.2144 9.93288 13.4236 9.93288 14.6845C9.93288 15.9455 10.4338 17.1547 11.3254 18.0463C12.217 18.9379 13.4262 19.4388 14.6872 19.4388C15.9481 19.4388 17.1573 18.9379 18.0489 18.0463C18.9405 17.1547 19.4414 15.9455 19.4414 14.6845C19.4414 13.4236 18.9405 12.2144 18.0489 11.3228C17.1573 10.4312 15.9481 9.93026 14.6872 9.93026ZM7.64488 14.6845C7.64488 12.8174 8.38659 11.0268 9.70684 9.70651C11.0271 8.38626 12.8178 7.64454 14.6849 7.64454C16.552 7.64454 18.3427 8.38626 19.6629 9.70651C20.9832 11.0268 21.7249 12.8174 21.7249 14.6845C21.7249 16.5517 20.9832 18.3423 19.6629 19.6626C18.3427 20.9828 16.552 21.7245 14.6849 21.7245C12.8178 21.7245 11.0271 20.9828 9.70684 19.6626C8.38659 18.3423 7.64488 16.5517 7.64488 14.6845Z" fill="black"/>
</svg>
