<svg width="444" height="567" viewBox="0 0 444 567" fill="none" xmlns="http://www.w3.org/2000/svg">
<path d="M441.18 519.65L431.54 504.18H431.52L420.34 486.55L336.47 354.21C367.02 327.29 389.88 291.02 399.79 248.36C425.08 139.4 357.29 30.59 248.32 5.30001C230.92 1.26001 213.53 -0.409988 196.49 0.0800124C195.22 0.120012 193.95 0.170012 192.68 0.240012C191.81 0.260012 190.94 0.310012 190.08 0.370012C189.7 0.390012 189.3 0.440012 188.92 0.460012C187.83 0.500012 186.76 0.590012 185.67 0.680012C182.17 0.990012 178.68 1.37001 175.23 1.84001C173.94 2.02001 172.67 2.20001 171.4 2.40001C169.84 2.65001 168.28 2.91001 166.72 3.18001C166.48 3.25001 166.23 3.29001 165.99 3.31001C162.74 3.91001 159.51 4.60001 156.33 5.34001C156.2 5.38001 156.06 5.41001 155.93 5.43001C154.39 5.81001 152.88 6.19001 151.37 6.59001C148.07 7.44001 144.82 8.37001 141.6 9.42001C139.17 10.2 136.77 11 134.36 11.85C131.98 12.7 129.6 13.61 127.26 14.57C125.68 15.19 124.1 15.84 122.54 16.53C122.34 16.6 122.16 16.69 121.98 16.77C65.1599 41.43 20.3599 91.79 5.28993 156.78C-17.1501 253.5 33.7899 350.13 121.78 388.27C132.87 393.1 144.56 396.98 156.76 399.8C170.03 402.87 183.28 404.56 196.37 404.97C196.79 404.99 197.19 404.99 197.59 404.99C199.19 405.06 200.77 405.08 202.38 405.08C204.18 405.08 205.99 405.06 207.77 405.01C210.42 404.94 213.05 404.83 215.65 404.65C220.93 404.32 226.18 403.76 231.37 403C233.6 402.69 235.82 402.31 238.03 401.91C250.21 399.73 262.1 396.46 273.56 392.14L357.99 525.37L368.5 541.98L378.83 558.5C385.42 569.1 404.72 569.01 421.98 558.28C439.21 547.53 447.78 530.25 441.19 519.65H441.18ZM205.35 345.58C204.01 345.58 202.7 345.56 201.36 345.51C200.02 345.49 198.67 345.42 197.33 345.35C196.53 345.31 195.7 345.24 194.9 345.17C187.64 344.66 180.34 343.54 173.01 341.85C153.97 337.44 136.72 329.38 121.8 318.61V318.59C119.51 316.94 117.28 315.23 115.12 313.45C114.03 312.58 112.94 311.67 111.89 310.73C109.77 308.9 107.73 307.01 105.72 305.03C103.72 303.09 101.78 301.09 99.9099 299.02C98.9499 298 98.0399 296.95 97.1499 295.88C97.1099 295.81 97.0399 295.75 96.9699 295.68C96.1199 294.7 95.2799 293.7 94.4799 292.67C93.5899 291.6 92.7399 290.51 91.9199 289.4C91.0499 288.29 90.2299 287.17 89.4499 286.04C88.6299 284.9 87.8199 283.77 87.0699 282.61C85.4899 280.29 84.0199 277.96 82.6199 275.55C82.0399 274.55 81.4599 273.55 80.8799 272.52C80.6799 272.16 80.4599 271.79 80.2599 271.41C79.6999 270.36 79.1499 269.32 78.5899 268.27C77.9399 267.02 77.3199 265.78 76.7399 264.53C76.1799 263.37 75.6499 262.21 75.1099 261.06C75.0899 260.95 75.0399 260.84 74.9799 260.75C74.4199 259.48 73.8899 258.19 73.3499 256.9C72.2799 254.32 71.2999 251.71 70.4099 249.06C69.9599 247.75 69.5199 246.41 69.1199 245.07C68.4699 243 67.8699 240.93 67.3399 238.81C67.2699 238.52 67.1799 238.21 67.1199 237.92C66.9599 237.39 66.8299 236.85 66.7199 236.29C66.6799 236.18 66.6499 236.05 66.6299 235.93C66.0999 233.7 65.6299 231.45 65.2099 229.18C64.8999 227.55 64.6299 225.91 64.3599 224.26C64.1799 222.95 63.9999 221.65 63.8499 220.34C63.6899 219.09 63.5599 217.85 63.4299 216.6C63.4099 216.2 63.3599 215.78 63.3199 215.35C63.2299 214.19 63.1399 213.01 63.0799 211.85C62.9899 210.47 62.9199 209.09 62.8799 207.69V207.49C62.8399 206.09 62.8099 204.68 62.8099 203.28C62.8099 192.62 64.0099 181.79 66.5299 170.95C67.0399 168.77 67.5999 166.61 68.1999 164.47C68.4899 163.4 68.7999 162.35 69.1399 161.29C69.6699 159.49 70.2799 157.71 70.8999 155.95C71.1699 155.15 71.4599 154.35 71.7499 153.57C73.2399 149.52 74.9099 145.55 76.7599 141.73C77.1799 140.84 77.6099 139.95 78.0699 139.06C78.3799 138.44 78.6899 137.81 79.0099 137.21C79.4799 136.32 79.9499 135.43 80.4599 134.54C80.6599 134.16 80.8599 133.78 81.0599 133.43C81.5099 132.65 81.9499 131.87 82.3999 131.11C85.7199 125.43 89.4099 120.04 93.4399 114.95C93.8599 114.42 94.2899 113.9 94.7099 113.37C96.4199 111.25 98.2299 109.16 100.05 107.16C100.54 106.65 101.01 106.14 101.5 105.62C103.86 103.1 106.29 100.7 108.83 98.38C109.39 97.87 109.94 97.36 110.52 96.84C111.5 95.97 112.48 95.13 113.46 94.3C114.71 93.23 116 92.21 117.29 91.18C118.83 89.98 120.36 88.82 121.94 87.68C143.11 72.41 168.41 62.99 195.08 61.1C196.97 60.97 198.89 60.88 200.8 60.81C201.38 60.79 201.96 60.79 202.56 60.77C214.03 60.57 225.74 61.75 237.43 64.47C314.04 82.24 361.71 158.74 343.94 235.35C328.67 301.12 270.11 345.56 205.36 345.56L205.35 345.58Z" fill="#464443"/>
<path d="M194.91 345.19V345.21C195.71 345.28 196.51 345.32 197.34 345.37C196.54 345.33 195.71 345.26 194.91 345.19ZM304.72 134.72C288.16 105.75 253.6 87.92 228.04 85.27C225.1 84.96 222.45 87.1 222.14 90.06C221.85 93 223.99 95.65 226.93 95.94C249.22 98.26 280.79 114.51 295.39 140.05C296.39 141.79 298.2 142.77 300.07 142.77C300.96 142.77 301.9 142.55 302.72 142.06C305.3 140.59 306.19 137.32 304.72 134.73V134.72ZM314.05 156.92C312.71 154.29 309.49 153.22 306.84 154.56C304.19 155.9 303.12 159.12 304.46 161.77C307.42 167.6 312.63 181.21 313.54 195.06C313.72 197.91 316.08 200.09 318.88 200.09C318.99 200.09 319.12 200.07 319.24 200.07C322.2 199.87 324.45 197.33 324.25 194.37C323.31 179.81 318.17 165.09 314.05 156.92Z" fill="#464443"/>
<path d="M441.18 519.65L431.54 504.18H431.52L420.34 486.55L336.47 354.21C367.02 327.29 389.88 291.02 399.79 248.36C425.08 139.4 357.29 30.59 248.32 5.30001C230.92 1.26001 213.53 -0.409988 196.49 0.0800124C195.22 0.120012 193.95 0.170012 192.68 0.240012C191.81 0.260012 190.94 0.310012 190.08 0.370012C189.7 0.390012 189.3 0.440012 188.92 0.460012C187.83 0.500012 186.76 0.590012 185.67 0.680012C182.17 0.990012 178.68 1.37001 175.23 1.84001C173.94 2.02001 172.67 2.20001 171.4 2.40001C169.84 2.65001 168.28 2.91001 166.72 3.18001C166.48 3.25001 166.23 3.29001 165.99 3.31001C162.74 3.91001 159.51 4.60001 156.33 5.34001C156.2 5.38001 156.06 5.41001 155.93 5.43001C154.39 5.81001 152.88 6.19001 151.37 6.59001C148.07 7.46001 144.82 8.39001 141.6 9.42001C139.17 10.2 136.77 11 134.36 11.85C131.98 12.72 129.6 13.63 127.26 14.57C125.7 15.22 124.14 15.86 122.58 16.53C122.38 16.6 122.18 16.69 121.98 16.8L121.94 87.74L121.83 318.63V318.65L121.79 388.29L121.7 550.76C121.7 559.64 128.91 566.88 137.8 566.88H178.72C187.6 566.88 194.82 559.67 194.82 550.78L194.91 404.95C195.4 404.97 195.89 404.99 196.38 404.99C196.8 405.01 197.2 405.01 197.6 405.01C199.2 405.08 200.78 405.1 202.39 405.1C204.19 405.1 206 405.08 207.78 405.03C210.43 404.96 213.06 404.85 215.66 404.67C220.94 404.34 226.19 403.78 231.38 403.02C233.61 402.71 235.83 402.33 238.04 401.93C250.22 399.75 262.11 396.48 273.57 392.16L358 525.39L368.51 542L378.84 558.52C385.43 569.12 404.73 569.03 421.99 558.3C439.22 547.55 447.79 530.27 441.2 519.67L441.18 519.65ZM205.35 345.58C204.01 345.58 202.7 345.56 201.36 345.51C200.02 345.49 198.67 345.44 197.33 345.35C196.51 345.31 195.7 345.26 194.9 345.19V345.17L195.06 61.12C196.95 60.99 198.87 60.9 200.78 60.83C201.36 60.81 201.94 60.81 202.54 60.79C214.01 60.59 225.72 61.77 237.41 64.49C314.02 82.26 361.69 158.76 343.92 235.37C328.65 301.14 270.09 345.58 205.34 345.58H205.35Z" fill="#464443"/>
<path d="M122.57 16.51C122.37 16.58 122.17 16.67 121.97 16.78V16.51H122.57Z" fill="#464443"/>
<path d="M302.72 142.04C301.9 142.53 300.96 142.75 300.07 142.75C298.2 142.75 296.4 141.77 295.39 140.03C280.78 114.49 249.21 98.24 226.93 95.92C223.99 95.63 221.85 92.98 222.14 90.04C222.45 87.08 225.1 84.94 228.04 85.25C253.6 87.9 288.15 105.73 304.72 134.7C306.19 137.28 305.3 140.56 302.72 142.03V142.04Z" fill="#464443"/>
<path d="M324.25 194.37C324.45 197.33 322.2 199.87 319.24 200.07C319.13 200.07 319 200.09 318.88 200.09C316.07 200.09 313.71 197.91 313.54 195.06C312.63 181.21 307.42 167.61 304.46 161.77C303.12 159.12 304.19 155.89 306.84 154.56C309.49 153.22 312.72 154.29 314.05 156.92C318.17 165.09 323.31 179.81 324.25 194.37Z" fill="#464443"/>
</svg>
