<svg width="1027" height="255" viewBox="0 0 1027 255" fill="none" xmlns="http://www.w3.org/2000/svg">
<g clip-path="url(#clip0_1_2313)">
<path d="M198.15 233.4L193.82 226.45H193.81L188.79 218.53L151.12 159.09C164.84 147 175.11 130.71 179.56 111.55C190.91 62.61 160.46 13.74 111.53 2.37998C103.71 0.569978 95.9001 -0.180022 88.2501 0.039978C87.6801 0.059978 87.1101 0.079978 86.5401 0.109978C86.1501 0.119978 85.7601 0.139978 85.3701 0.169978C85.2001 0.179978 85.0201 0.199978 84.8501 0.209978C84.3601 0.229978 83.8801 0.269978 83.3901 0.309978C81.8201 0.449978 80.2501 0.619978 78.7001 0.829978C78.1201 0.909978 77.5501 0.989978 76.9801 1.07998C76.2801 1.18998 75.5801 1.30998 74.8801 1.42998C74.7701 1.45998 74.6601 1.47998 74.5501 1.48998C73.0901 1.75998 71.6401 2.06998 70.2101 2.39998C70.1501 2.41998 70.0901 2.42998 70.0301 2.43998C69.3401 2.60998 68.6601 2.77998 67.9801 2.95998C66.5001 3.33998 65.0401 3.75998 63.5901 4.22998C62.5001 4.57998 61.4201 4.93998 60.3401 5.31998C59.2701 5.69998 58.2101 6.10998 57.1501 6.53998C56.4401 6.81998 55.7301 7.10998 55.0301 7.41998C54.9401 7.44998 54.8601 7.48998 54.7801 7.52998C29.2601 18.61 9.14007 41.23 2.37007 70.42C-7.70993 113.86 15.1701 157.26 54.6901 174.39C59.6701 176.56 64.9201 178.3 70.4001 179.57C76.3601 180.95 82.3001 181.71 88.1801 181.89C88.3701 181.9 88.5601 181.9 88.7501 181.9C89.4601 181.93 90.1801 181.94 90.8901 181.94C91.7001 181.94 92.5101 181.93 93.3101 181.91C94.5001 181.88 95.6801 181.83 96.8501 181.75C99.2201 181.6 101.58 181.35 103.91 181.01C104.82 180.88 105.73 180.73 106.63 180.57C112.2 179.59 117.63 178.1 122.86 176.13L160.78 235.97L165.5 243.43L170.14 250.85C173.1 255.61 181.77 255.57 189.52 250.75C197.25 245.92 201.11 238.16 198.15 233.4ZM92.2301 155.22C91.6301 155.22 91.0401 155.21 90.4401 155.19C89.8401 155.18 89.2301 155.15 88.6301 155.12C88.2701 155.1 87.9001 155.07 87.5401 155.04C84.2801 154.81 81.0001 154.31 77.7101 153.55C69.1501 151.56 61.4001 147.95 54.7001 143.1C54.5301 142.98 54.3701 142.86 54.2101 142.74C53.4901 142.21 52.7901 141.67 52.1001 141.11C51.8901 140.94 51.6701 140.77 51.4601 140.59C51.1601 140.35 50.8601 140.09 50.5701 139.84C50.4001 139.7 50.2301 139.55 50.0601 139.4C49.6501 139.04 49.2501 138.68 48.8501 138.31C48.3901 137.89 47.9401 137.47 47.5001 137.03C47.4901 137.03 47.4801 137.02 47.4701 137C47.0501 136.59 46.6401 136.17 46.2201 135.75C46.2001 135.73 46.1801 135.7 46.1601 135.68C45.7601 135.27 45.3701 134.85 44.9801 134.43C44.9101 134.35 44.8301 134.26 44.7501 134.17C44.4901 133.88 44.2201 133.58 43.9601 133.28C43.7401 133.03 43.5301 132.78 43.3201 132.52C43.0201 132.17 42.7201 131.82 42.4401 131.46C42.0301 130.96 41.6301 130.45 41.2401 129.93C40.9201 129.51 40.6101 129.09 40.3001 128.66C40.2201 128.56 40.1501 128.45 40.0701 128.34C39.7901 127.94 39.5101 127.54 39.2301 127.13C38.8401 126.56 38.4501 125.97 38.0801 125.37C37.7701 124.87 37.4601 124.37 37.1701 123.87C37.1201 123.8 37.0801 123.73 37.0401 123.66C36.8101 123.27 36.5801 122.88 36.3701 122.48C36.2601 122.3 36.1501 122.11 36.0501 121.91C35.7901 121.44 35.5401 120.97 35.3001 120.5C34.7301 119.39 34.1901 118.27 33.6801 117.12C33.4301 116.55 33.1801 115.97 32.9501 115.39C32.7501 114.92 32.5701 114.46 32.4001 113.99C32.3201 113.8 32.2401 113.6 32.1701 113.4C32.0001 112.94 31.8401 112.49 31.6801 112.03C31.4301 111.3 31.1901 110.57 30.9701 109.83C30.8101 109.31 30.6601 108.8 30.5201 108.28C30.3901 107.83 30.2701 107.37 30.1601 106.91C30.0901 106.65 30.0201 106.39 29.9601 106.12C29.4301 103.92 29.0201 101.68 28.7301 99.41C28.6801 99.06 28.6401 98.71 28.6001 98.36C28.5401 97.82 28.4901 97.28 28.4401 96.74C28.4001 96.22 28.3601 95.7 28.3301 95.17C28.2901 94.56 28.2601 93.95 28.2401 93.34V93.2C28.2201 92.58 28.2101 91.95 28.2101 91.32C28.2101 86.53 28.7501 81.67 29.8801 76.8C30.1101 75.82 30.3601 74.85 30.6301 73.89C30.7601 73.41 30.9001 72.94 31.0501 72.46C31.2901 71.65 31.5601 70.85 31.8401 70.06C31.9601 69.7 32.0901 69.34 32.2201 68.99C32.8901 67.17 33.6401 65.39 34.4701 63.67C34.6601 63.27 34.8501 62.87 35.0601 62.47C35.2001 62.19 35.3401 61.91 35.4801 61.64C35.6901 61.24 35.9001 60.84 36.1301 60.44C36.2201 60.27 36.3101 60.1 36.4001 59.94C36.6001 59.59 36.8001 59.24 37.0001 58.9C39.0401 55.41 41.4001 52.15 44.0301 49.15C44.3301 48.81 44.6201 48.48 44.9201 48.16C45.1801 47.87 45.4401 47.59 45.7001 47.32C45.7701 47.24 45.8501 47.16 45.9301 47.08C46.2001 46.79 46.4701 46.51 46.7501 46.24C47.4401 45.54 48.1501 44.86 48.8701 44.2C49.1201 43.97 49.3701 43.74 49.6301 43.51C49.8701 43.3 50.1201 43.08 50.3601 42.87C50.6401 42.63 50.9101 42.4 51.1901 42.17C52.3401 41.21 53.5401 40.28 54.7601 39.4C64.2701 32.54 75.6301 28.31 87.6101 27.46C88.4601 27.4 89.3201 27.36 90.1801 27.33C90.4401 27.32 90.7001 27.32 90.9701 27.31C96.1201 27.22 101.38 27.75 106.63 28.97C141.04 36.95 162.45 71.31 154.47 105.72C147.61 135.26 121.31 155.22 92.2301 155.22Z" fill="#464443"/>
<path d="M87.54 155.04C87.9 155.08 88.26 155.1 88.63 155.12C88.27 155.1 87.9 155.07 87.54 155.04ZM136.86 60.51C129.42 47.5 113.9 39.49 102.42 38.3C101.1 38.16 99.91 39.12 99.77 40.45C99.63 41.77 100.6 42.96 101.92 43.09C111.93 44.13 126.11 51.43 132.67 62.9C133.12 63.68 133.93 64.12 134.77 64.12C135.17 64.12 135.58 64.02 135.96 63.8C137.12 63.14 137.52 61.67 136.86 60.51ZM141.04 70.48C140.44 69.3 139 68.82 137.81 69.42C136.62 70.02 136.14 71.47 136.74 72.66C138.06 75.28 140.41 81.39 140.82 87.61C140.9 88.89 141.96 89.87 143.22 89.87C143.27 89.87 143.33 89.86 143.38 89.86C144.71 89.77 145.71 88.63 145.63 87.3C145.2 80.76 142.89 74.15 141.04 70.48Z" fill="#464443"/>
<path d="M198.15 233.4L193.82 226.45H193.81L188.79 218.53L151.12 159.09C164.84 147 175.11 130.71 179.56 111.55C190.91 62.61 160.46 13.74 111.53 2.37998C103.71 0.569978 95.8999 -0.180022 88.2499 0.039978C87.6799 0.059978 87.1099 0.079978 86.5399 0.109978C86.1499 0.119978 85.7599 0.139978 85.3699 0.169978C85.1999 0.179978 85.0199 0.199978 84.8499 0.209978C84.3599 0.229978 83.8799 0.269978 83.3899 0.309978C81.8199 0.449978 80.2499 0.619978 78.6999 0.829978C78.1199 0.909978 77.5499 0.989978 76.9799 1.07998C76.2799 1.18998 75.5799 1.30998 74.8799 1.42998C74.7699 1.45998 74.6599 1.47998 74.5499 1.48998C73.0899 1.75998 71.6399 2.06998 70.2099 2.39998C70.1499 2.41998 70.0899 2.42998 70.0299 2.43998C69.3399 2.60998 68.6599 2.77998 67.9799 2.95998C66.4999 3.34998 65.0399 3.76998 63.5899 4.22998C62.4999 4.57998 61.4199 4.93998 60.3399 5.31998C59.2699 5.70998 58.2099 6.11998 57.1499 6.53998C56.4499 6.82998 55.7499 7.11998 55.0499 7.41998C54.9599 7.44998 54.8699 7.48998 54.7799 7.53998L54.7599 39.4L54.6999 143.1V174.39L54.6499 247.36C54.6399 251.35 57.8899 254.6 61.8799 254.6H80.2599C84.2499 254.6 87.4899 251.36 87.4899 247.37L87.5299 181.87C87.7499 181.87 87.9599 181.89 88.1799 181.89C88.3699 181.9 88.5599 181.9 88.7499 181.9C89.4599 181.93 90.1799 181.94 90.8899 181.94C91.6999 181.94 92.5099 181.93 93.3099 181.91C94.4999 181.88 95.6799 181.83 96.8499 181.75C99.2199 181.6 101.58 181.35 103.91 181.01C104.82 180.88 105.73 180.73 106.63 180.57C112.2 179.59 117.63 178.1 122.86 176.13L160.78 235.97L165.5 243.43L170.14 250.85C173.1 255.61 181.77 255.57 189.52 250.75C197.25 245.92 201.11 238.16 198.15 233.4ZM92.2299 155.22C91.6299 155.22 91.0399 155.21 90.4399 155.19C89.8399 155.18 89.2299 155.16 88.6299 155.12C88.2599 155.1 87.8999 155.08 87.5399 155.05L87.6099 27.46C88.4599 27.4 89.3199 27.36 90.1799 27.33C90.4399 27.32 90.6999 27.32 90.9699 27.31C96.1199 27.22 101.38 27.75 106.63 28.97C141.04 36.95 162.45 71.31 154.47 105.72C147.61 135.26 121.31 155.22 92.2299 155.22Z" fill="#464443"/>
<path d="M55.0503 7.41998C54.9603 7.44998 54.8703 7.48998 54.7803 7.53998V7.41998H55.0503Z" fill="#464443"/>
<path d="M135.96 63.8C135.58 64.02 135.17 64.12 134.77 64.12C133.93 64.12 133.12 63.68 132.67 62.9C126.11 51.43 111.93 44.13 101.92 43.09C100.6 42.96 99.6303 41.77 99.7703 40.45C99.9103 39.12 101.1 38.16 102.42 38.3C113.9 39.49 129.42 47.5 136.86 60.51C137.52 61.67 137.12 63.14 135.96 63.8Z" fill="#464443"/>
<path d="M145.63 87.3C145.71 88.63 144.71 89.77 143.38 89.86C143.33 89.86 143.27 89.87 143.22 89.87C141.96 89.87 140.9 88.89 140.82 87.61C140.41 81.39 138.06 75.28 136.74 72.66C136.14 71.47 136.62 70.02 137.81 69.42C139 68.82 140.44 69.3 141.04 70.48C142.89 74.15 145.2 80.76 145.63 87.3Z" fill="#464443"/>
<path d="M308.05 211.45C303.75 211.45 300.82 212.67 297.31 216.23C288.38 226.57 280.47 230.58 268.38 230.58C251.65 230.58 240.81 219.01 240.81 201.33V199.88H309.97C319.12 199.88 324.32 194.77 324.32 185.76C324.32 153.4 301.27 130.27 266.91 130.27C232.55 130.27 208.37 154.62 208.37 192.99C208.37 231.36 230.63 254.6 268.49 254.6C291.89 254.6 310.65 245.92 318.67 231.24C320.14 228.57 320.93 225.9 320.93 223.35C320.93 215.9 315.17 211.45 308.05 211.45ZM267.25 154.29C281.72 154.29 291.89 164.41 292.57 179.98H241.14C242.27 164.74 252.78 154.29 267.25 154.29Z" fill="#464443"/>
<path d="M395.4 130.27C370.31 130.27 350.88 139.05 345.23 153.29C344.1 155.73 343.53 158.07 343.53 160.63C343.53 167.97 349.29 173.08 357.32 173.08C362.63 173.08 366.81 171.08 370.43 167.08C377.77 157.74 383.88 154.51 393.93 154.51C406.37 154.51 414.28 160.96 414.28 172.08V179.98L383.76 181.76C353.48 183.54 336.52 196.1 336.52 217.79C336.52 239.48 354.04 253.93 377.1 253.93C392.24 253.93 407.38 246.48 414.16 233.8H414.84V239.92C415.52 249.48 421.74 254.37 430.66 254.37C440.04 254.37 446.71 248.81 446.71 238.03V170.08C446.71 146.06 426.48 130.27 395.4 130.27ZM414.28 208.33C414.28 221.23 402.41 230.46 387.94 230.46C376.87 230.46 369.41 224.9 369.41 216.01C369.41 207.12 376.42 202.11 388.74 201.22L414.28 199.66V208.33Z" fill="#464443"/>
<path d="M567.29 89.12C557.69 89.12 550.79 95.02 550.79 106.14V153.29H550.12C544.24 140.05 530.68 130.94 513.16 130.94C482.76 130.94 463.55 154.4 463.55 192.21C463.55 230.02 482.65 253.93 512.93 253.93C531.58 253.93 544.92 244.36 550.23 231.02H550.79V237.91C550.79 248.81 557.91 254.37 567.41 254.37C576.91 254.37 583.79 248.7 583.79 237.91V106.14C583.79 95.02 577.01 89.12 567.29 89.12ZM524.12 227.8C507.51 227.8 497.34 214.34 497.34 192.43C497.34 170.52 507.51 156.96 524.12 156.96C540.73 156.96 551.02 170.75 551.02 192.43C551.02 214.11 540.51 227.8 524.12 227.8Z" fill="#464443"/>
<path d="M623.12 89.12C613.51 89.12 606.62 95.02 606.62 106.14V237.47C606.62 248.59 613.51 254.37 623.12 254.37C632.73 254.37 639.62 248.59 639.62 237.47V106.14C639.62 95.02 632.84 89.12 623.12 89.12Z" fill="#464443"/>
<path d="M757.15 211.45C752.85 211.45 749.92 212.67 746.41 216.23C737.48 226.57 729.57 230.58 717.48 230.58C700.76 230.58 689.91 219.01 689.91 201.33V199.88H759.07C768.22 199.88 773.42 194.77 773.42 185.76C773.42 153.4 750.37 130.27 716.01 130.27C681.65 130.27 657.47 154.62 657.47 192.99C657.47 231.36 679.74 254.6 717.59 254.6C740.99 254.6 759.75 245.92 767.77 231.24C769.24 228.57 770.03 225.9 770.03 223.35C770.03 215.9 764.27 211.45 757.15 211.45ZM716.35 154.29C730.82 154.29 740.99 164.41 741.67 179.98H690.25C691.38 164.74 701.89 154.29 716.35 154.29Z" fill="#464443"/>
<path d="M860.78 130.6C842.13 130.6 829.93 138.72 823.49 153.51H822.81V146.84C822.81 136.61 816.25 130.38 806.31 130.38C796.37 130.38 790.37 136.61 790.37 146.73V237.47C790.37 248.59 797.27 254.37 806.87 254.37C816.47 254.37 823.37 248.59 823.37 237.47V183.65C823.37 168.19 832.75 157.51 847.56 157.51C862.37 157.51 869.82 166.41 869.82 181.98V237.47C869.82 248.59 876.6 254.37 886.32 254.37C896.04 254.37 902.82 248.59 902.82 237.47V175.2C902.82 147.28 887.68 130.6 860.78 130.6Z" fill="#464443"/>
<path d="M990.29 183.09L970.28 178.86C958.19 176.31 953.45 172.19 953.45 165.96C953.45 158.29 961.24 153.07 972.43 153.07C984.3 153.07 990.85 158.63 996.62 165.85C999.56 169.3 1004.3 170.86 1008.6 170.86C1017.07 170.86 1021.25 166.3 1021.25 159.74C1021.25 158.18 1020.91 156.62 1020.46 154.96C1016.51 141.5 998.09 130.27 973 130.27C941.58 130.27 921.58 144.95 921.58 167.74C921.58 185.43 933.56 197.33 957.29 202.33L977.63 206.56C989.5 209.11 993.68 212.56 993.68 219.01C993.68 226.91 985.88 231.8 973.9 231.8C961.92 231.8 953.9 228.02 947.46 219.68C942.94 214.67 938.41 212.34 933.1 212.34C925.42 212.34 919.77 217.34 919.77 224.79C919.77 226.57 920.22 228.68 921.01 230.8C926.77 244.81 945.31 254.6 973.11 254.6C1005.09 254.6 1026.68 239.25 1026.68 215.56C1026.68 197.77 1016.06 188.43 990.29 183.09Z" fill="#464443"/>
</g>
<defs>
<clipPath id="clip0_1_2313">
<rect width="1026.68" height="254.6" fill="white"/>
</clipPath>
</defs>
</svg>
