<svg width="1027" height="255" viewBox="0 0 1027 255" fill="none" xmlns="http://www.w3.org/2000/svg">
<path d="M198.14 233.4L193.82 226.45H193.81L188.79 218.53L151.12 159.09C164.84 147 175.11 130.71 179.56 111.55C190.91 62.61 160.46 13.74 111.52 2.37998C103.71 0.569978 95.9001 -0.180022 88.2501 0.039978C87.6801 0.059978 87.1101 0.079978 86.5401 0.109978C86.1501 0.119978 85.7601 0.139978 85.3701 0.169978C85.1901 0.179978 85.0201 0.199978 84.8501 0.209978C84.3601 0.229978 83.8801 0.269978 83.3901 0.309978C81.8201 0.449978 80.2501 0.619978 78.7001 0.829978C78.1201 0.909978 77.5501 0.989978 76.9801 1.07998C76.2801 1.18998 75.5801 1.30998 74.8801 1.42998C74.7701 1.45998 74.6601 1.47998 74.5501 1.48998C73.0901 1.75998 71.6401 2.06998 70.2101 2.39998C70.1501 2.41998 70.0901 2.42998 70.0301 2.43998C69.3401 2.60998 68.6601 2.77998 67.9801 2.95998C66.5001 3.33998 65.0401 3.75998 63.5901 4.22998C62.5001 4.57998 61.4201 4.93998 60.3401 5.31998C59.2701 5.69998 58.2001 6.10998 57.1501 6.53998C56.4401 6.81998 55.7301 7.10998 55.0301 7.41998C54.9401 7.44998 54.8601 7.48998 54.7801 7.52998C29.2601 18.61 9.14011 41.23 2.37011 70.42C-7.70989 113.86 15.1701 157.26 54.6801 174.39C59.6601 176.56 64.9101 178.3 70.3901 179.57C76.3401 180.95 82.2901 181.71 88.1601 181.89C88.3601 181.9 88.5601 181.9 88.7501 181.9C89.4501 181.93 90.1601 181.94 90.8601 181.94C91.7001 181.94 92.5401 181.93 93.3801 181.91C94.5001 181.88 95.6201 181.83 96.7301 181.76C99.2101 181.6 101.66 181.34 104.09 180.98C104.94 180.86 105.78 180.72 106.62 180.57C112.19 179.6 117.62 178.1 122.86 176.13L160.78 235.97L165.5 243.43L170.13 250.85C173.1 255.61 181.77 255.57 189.51 250.75C197.25 245.92 201.11 238.16 198.14 233.4ZM92.2301 155.22C91.6301 155.22 91.0401 155.21 90.4401 155.19C89.8401 155.18 89.2301 155.15 88.6301 155.12C88.2701 155.1 87.9001 155.07 87.5401 155.04C84.2801 154.81 81.0001 154.31 77.7101 153.55C69.1501 151.57 61.4001 147.95 54.7001 143.1C54.6801 143.09 54.6601 143.07 54.6401 143.05C53.7701 142.43 52.9201 141.78 52.0901 141.11C51.8901 140.95 51.6901 140.78 51.4901 140.62C51.0701 140.28 50.6601 139.92 50.2501 139.57C49.7201 139.11 49.2001 138.64 48.6901 138.17C48.2801 137.79 47.8801 137.41 47.4801 137.01C47.0501 136.59 46.6301 136.17 46.2101 135.74C45.3001 134.79 44.4101 133.81 43.5501 132.81C43.1701 132.36 42.8001 131.91 42.4301 131.46C42.0501 130.99 41.6801 130.51 41.3101 130.03C40.8701 129.45 40.4301 128.86 40.0101 128.26C39.7201 127.85 39.4301 127.43 39.1501 127.01C38.4301 125.95 37.7501 124.87 37.1001 123.77C36.8301 123.32 36.5701 122.87 36.3201 122.41C36.2401 122.26 36.1601 122.12 36.0701 121.97C35.8001 121.48 35.5401 120.99 35.2901 120.49C35.0101 119.95 34.7401 119.4 34.4801 118.85C34.4701 118.83 34.4601 118.82 34.4501 118.81C34.2101 118.29 33.9701 117.77 33.7301 117.25C33.1701 115.99 32.6501 114.7 32.1601 113.39C31.9901 112.92 31.8201 112.45 31.6601 111.97C31.6301 111.88 31.6001 111.79 31.5601 111.7C31.4001 111.23 31.2501 110.76 31.1101 110.29C31.0601 110.13 31.0101 109.98 30.9601 109.82C30.8001 109.31 30.6501 108.79 30.5101 108.27C30.3701 107.78 30.2401 107.29 30.1201 106.79C29.5101 104.37 29.0401 101.9 28.7201 99.4C28.6701 99.05 28.6301 98.7 28.5901 98.35C28.5301 97.81 28.4801 97.27 28.4301 96.73C28.3901 96.21 28.3501 95.69 28.3201 95.16C28.2801 94.55 28.2501 93.94 28.2301 93.33V93.19C28.2101 92.57 28.2001 91.94 28.2001 91.31C28.2001 86.52 28.7401 81.66 29.8701 76.8C30.1001 75.82 30.3501 74.85 30.6201 73.89C30.7501 73.41 30.9001 72.94 31.0401 72.46C31.2901 71.65 31.5501 70.85 31.8301 70.06C31.9201 69.79 32.0201 69.52 32.1201 69.26C32.2301 68.93 32.3601 68.6 32.4901 68.27C32.6601 67.82 32.8401 67.36 33.0301 66.91C33.2101 66.46 33.4001 66.01 33.6001 65.57C33.7901 65.12 33.9901 64.68 34.2001 64.24C34.3701 63.87 34.5401 63.5 34.7201 63.13C34.8301 62.91 34.9401 62.69 35.0501 62.47C35.5801 61.41 36.1401 60.38 36.7301 59.36C38.8301 55.69 41.2801 52.28 44.0301 49.15C44.3201 48.81 44.6201 48.48 44.9201 48.16C45.1801 47.87 45.4401 47.59 45.7001 47.32C45.7701 47.24 45.8401 47.16 45.9301 47.08C46.2001 46.79 46.4701 46.51 46.7501 46.24C47.0501 45.93 47.3501 45.63 47.6601 45.34C48.0601 44.95 48.4601 44.57 48.8701 44.2C49.1201 43.97 49.3701 43.74 49.6301 43.51C50.0601 43.12 50.5001 42.74 50.9501 42.37C51.4701 41.93 51.9901 41.5 52.5201 41.08C53.2601 40.51 54.0001 39.95 54.7601 39.4C64.2701 32.54 75.6301 28.31 87.6101 27.46C88.4601 27.4 89.3201 27.36 90.1801 27.33C90.4401 27.32 90.7001 27.32 90.9701 27.31C96.1201 27.22 101.38 27.75 106.63 28.97C141.04 36.95 162.45 71.31 154.47 105.72C147.61 135.26 121.31 155.22 92.2301 155.22Z" fill="white"/>
<path d="M87.54 155.04C87.9 155.08 88.26 155.1 88.63 155.12C88.27 155.1 87.9 155.07 87.54 155.04ZM136.86 60.51C129.42 47.5 113.9 39.49 102.42 38.3C101.09 38.16 99.91 39.12 99.77 40.45C99.63 41.77 100.59 42.96 101.92 43.09C111.93 44.13 126.11 51.43 132.67 62.9C133.12 63.68 133.93 64.12 134.77 64.12C135.17 64.12 135.58 64.02 135.96 63.8C137.12 63.14 137.52 61.67 136.86 60.51ZM141.04 70.48C140.44 69.3 138.99 68.82 137.81 69.42C136.62 70.02 136.14 71.47 136.74 72.66C138.06 75.28 140.41 81.39 140.82 87.61C140.9 88.89 141.96 89.87 143.22 89.87C143.27 89.87 143.32 89.86 143.38 89.86C144.71 89.77 145.71 88.63 145.63 87.3C145.2 80.76 142.89 74.15 141.04 70.48Z" fill="white"/>
<path d="M198.14 233.4L193.82 226.45H193.81L188.79 218.53L151.12 159.09C164.84 147 175.11 130.71 179.56 111.55C190.91 62.61 160.46 13.74 111.52 2.37998C103.71 0.569978 95.8999 -0.180022 88.2499 0.039978C87.6799 0.059978 87.1099 0.079978 86.5399 0.109978C86.1499 0.119978 85.7599 0.139978 85.3699 0.169978C85.1899 0.179978 85.0199 0.199978 84.8499 0.209978C84.3599 0.229978 83.8799 0.269978 83.3899 0.309978C81.8199 0.449978 80.2499 0.619978 78.6999 0.829978C78.1199 0.909978 77.5499 0.989978 76.9799 1.07998C76.2799 1.18998 75.5799 1.30998 74.8799 1.42998C74.7699 1.45998 74.6599 1.47998 74.5499 1.48998C73.0899 1.75998 71.6399 2.06998 70.2099 2.39998C70.1499 2.41998 70.0899 2.42998 70.0299 2.43998C69.3399 2.60998 68.6599 2.77998 67.9799 2.95998C66.4999 3.34998 65.0399 3.76998 63.5899 4.22998C62.4999 4.57998 61.4199 4.93998 60.3399 5.31998C59.2699 5.70998 58.1999 6.11998 57.1499 6.53998C56.4499 6.82998 55.7499 7.11998 55.0499 7.41998C54.9599 7.44998 54.8699 7.48998 54.7799 7.53998L54.7599 39.4L54.6999 143.1L54.6799 174.39L54.6499 247.36C54.6399 251.35 57.8799 254.6 61.8799 254.6H80.2599C84.2499 254.6 87.4899 251.36 87.4899 247.37L87.5299 181.87C87.7399 181.87 87.9499 181.89 88.1599 181.89C88.3599 181.9 88.5599 181.9 88.7499 181.9C89.4499 181.93 90.1599 181.94 90.8599 181.94C91.6999 181.94 92.5399 181.93 93.3799 181.91C94.4999 181.88 95.6199 181.83 96.7299 181.76C99.2099 181.6 101.66 181.34 104.09 180.98C104.94 180.86 105.78 180.72 106.62 180.57C112.19 179.6 117.62 178.1 122.86 176.13L160.78 235.97L165.5 243.43L170.13 250.85C173.1 255.61 181.77 255.57 189.51 250.75C197.25 245.92 201.11 238.16 198.14 233.4ZM92.2299 155.22C91.6299 155.22 91.0399 155.21 90.4399 155.19C89.8399 155.18 89.2299 155.16 88.6299 155.12C88.2599 155.1 87.8999 155.08 87.5399 155.05L87.6099 27.46C88.4599 27.4 89.3199 27.36 90.1799 27.33C90.4399 27.32 90.6999 27.32 90.9699 27.31C96.1199 27.22 101.38 27.75 106.63 28.97C141.04 36.95 162.45 71.31 154.47 105.72C147.61 135.26 121.31 155.22 92.2299 155.22Z" fill="white"/>
<path d="M55.0503 7.41998C54.9603 7.44998 54.8703 7.48998 54.7803 7.53998V7.41998H55.0503Z" fill="white"/>
<path d="M135.96 63.8C135.58 64.02 135.17 64.12 134.77 64.12C133.93 64.12 133.12 63.68 132.67 62.9C126.11 51.43 111.93 44.13 101.92 43.09C100.59 42.96 99.6299 41.77 99.7699 40.45C99.9099 39.12 101.09 38.16 102.42 38.3C113.9 39.49 129.42 47.5 136.86 60.51C137.52 61.67 137.12 63.14 135.96 63.8Z" fill="white"/>
<path d="M145.63 87.3C145.71 88.63 144.71 89.77 143.38 89.86C143.32 89.86 143.27 89.87 143.22 89.87C141.96 89.87 140.9 88.89 140.82 87.61C140.41 81.39 138.06 75.28 136.74 72.66C136.14 71.47 136.62 70.02 137.81 69.42C138.99 68.82 140.44 69.3 141.04 70.48C142.89 74.15 145.2 80.76 145.63 87.3Z" fill="white"/>
<path d="M308.05 211.45C303.75 211.45 300.81 212.67 297.31 216.23C288.38 226.57 280.47 230.58 268.38 230.58C251.65 230.58 240.8 219.01 240.8 201.33V199.88H309.97C319.12 199.88 324.32 194.77 324.32 185.76C324.32 153.4 301.27 130.27 266.91 130.27C232.55 130.27 208.37 154.62 208.37 192.99C208.37 231.36 230.63 254.6 268.49 254.6C291.89 254.6 310.65 245.92 318.67 231.24C320.14 228.57 320.93 225.9 320.93 223.35C320.93 215.9 315.17 211.45 308.05 211.45ZM267.25 154.29C281.71 154.29 291.89 164.41 292.56 179.98H241.14C242.27 164.74 252.78 154.29 267.25 154.29Z" fill="white"/>
<path d="M395.4 130.27C370.31 130.27 350.87 139.05 345.22 153.29C344.09 155.73 343.53 158.07 343.53 160.63C343.53 167.97 349.29 173.08 357.32 173.08C362.63 173.08 366.81 171.08 370.43 167.08C377.77 157.74 383.87 154.51 393.93 154.51C406.36 154.51 414.28 160.96 414.28 172.08V179.98L383.76 181.76C353.47 183.54 336.52 196.1 336.52 217.79C336.52 239.48 354.04 253.93 377.09 253.93C392.24 253.93 407.38 246.48 414.16 233.8H414.84V239.92C415.52 249.48 421.73 254.37 430.66 254.37C440.04 254.37 446.71 248.81 446.71 238.03V170.08C446.71 146.06 426.48 130.27 395.4 130.27ZM414.28 208.33C414.28 221.23 402.41 230.46 387.94 230.46C376.87 230.46 369.41 224.9 369.41 216.01C369.41 207.12 376.42 202.11 388.73 201.22L414.28 199.66V208.33Z" fill="white"/>
<path d="M567.29 89.12C557.69 89.12 550.79 95.02 550.79 106.14V153.29H550.11C544.24 140.05 530.67 130.94 513.16 130.94C482.76 130.94 463.55 154.4 463.55 192.21C463.55 230.02 482.65 253.93 512.93 253.93C531.58 253.93 544.92 244.36 550.23 231.02H550.79V237.91C550.79 248.81 557.91 254.37 567.4 254.37C576.89 254.37 583.79 248.7 583.79 237.91V106.14C583.79 95.02 577.01 89.12 567.29 89.12ZM524.12 227.8C507.51 227.8 497.34 214.34 497.34 192.43C497.34 170.52 507.51 156.96 524.12 156.96C540.73 156.96 551.02 170.75 551.02 192.43C551.02 214.11 540.51 227.8 524.12 227.8Z" fill="white"/>
<path d="M623.12 89.12C613.51 89.12 606.62 95.02 606.62 106.14V237.47C606.62 248.59 613.51 254.37 623.12 254.37C632.73 254.37 639.62 248.59 639.62 237.47V106.14C639.62 95.02 632.83 89.12 623.12 89.12Z" fill="white"/>
<path d="M757.15 211.45C752.85 211.45 749.91 212.67 746.41 216.23C737.48 226.57 729.57 230.58 717.48 230.58C700.75 230.58 689.91 219.01 689.91 201.33V199.88H759.07C768.22 199.88 773.42 194.77 773.42 185.76C773.42 153.4 750.37 130.27 716.01 130.27C681.65 130.27 657.47 154.62 657.47 192.99C657.47 231.36 679.73 254.6 717.59 254.6C740.99 254.6 759.75 245.92 767.77 231.24C769.24 228.57 770.03 225.9 770.03 223.35C770.03 215.9 764.27 211.45 757.15 211.45ZM716.35 154.29C730.82 154.29 740.99 164.41 741.67 179.98H690.24C691.37 164.74 701.89 154.29 716.35 154.29Z" fill="white"/>
<path d="M860.78 130.6C842.13 130.6 829.93 138.72 823.48 153.51H822.8V146.84C822.8 136.61 816.25 130.38 806.31 130.38C796.37 130.38 790.37 136.61 790.37 146.73V237.47C790.37 248.59 797.26 254.37 806.87 254.37C816.48 254.37 823.37 248.59 823.37 237.47V183.65C823.37 168.19 832.75 157.51 847.56 157.51C862.37 157.51 869.82 166.41 869.82 181.98V237.47C869.82 248.59 876.6 254.37 886.32 254.37C896.04 254.37 902.82 248.59 902.82 237.47V175.2C902.82 147.28 887.68 130.6 860.78 130.6Z" fill="white"/>
<path d="M990.29 183.09L970.28 178.86C958.19 176.31 953.44 172.19 953.44 165.96C953.44 158.29 961.24 153.07 972.43 153.07C984.3 153.07 990.85 158.63 996.62 165.85C999.55 169.3 1004.3 170.86 1008.6 170.86C1017.07 170.86 1021.25 166.3 1021.25 159.74C1021.25 158.18 1020.91 156.62 1020.46 154.96C1016.51 141.5 998.08 130.27 973 130.27C941.58 130.27 921.57 144.95 921.57 167.74C921.57 185.43 933.55 197.33 957.29 202.33L977.63 206.56C989.5 209.11 993.68 212.56 993.68 219.01C993.68 226.91 985.88 231.8 973.9 231.8C961.92 231.8 953.9 228.02 947.45 219.68C942.93 214.67 938.41 212.34 933.1 212.34C925.42 212.34 919.77 217.34 919.77 224.79C919.77 226.57 920.22 228.68 921.01 230.8C926.77 244.81 945.31 254.6 973.11 254.6C1005.09 254.6 1026.68 239.25 1026.68 215.56C1026.68 197.77 1016.05 188.43 990.29 183.09Z" fill="white"/>
</svg>
