<svg width="33" height="32" viewBox="0 0 33 32" fill="none" xmlns="http://www.w3.org/2000/svg">
<path d="M16.5994 19.3867C11.9994 19.3867 8.11816 20.1384 8.11816 23.0394C8.11816 25.9416 12.0245 26.6668 16.5994 26.6668C21.1994 26.6668 25.0807 25.9151 25.0807 23.0142C25.0807 20.112 21.1743 19.3867 16.5994 19.3867" fill="#A3A3A4"/>
<path d="M16.5987 16.6224C19.7135 16.6224 22.2111 14.1104 22.2111 10.9777C22.2111 7.84376 19.7135 5.33301 16.5987 5.33301C13.4839 5.33301 10.9863 7.84376 10.9863 10.9777C10.9863 14.1104 13.4839 16.6224 16.5987 16.6224" fill="#A3A3A4"/>
<path d="M28.7841 12.2923C29.5899 9.12235 27.2273 6.27539 24.2187 6.27539C23.8916 6.27539 23.5788 6.31141 23.2732 6.37265C23.2326 6.38226 23.1872 6.40267 23.1633 6.43869C23.1359 6.48432 23.1562 6.54556 23.186 6.58518C24.0898 7.86037 24.6091 9.41293 24.6091 11.0796C24.6091 12.6765 24.1328 14.1655 23.2971 15.401C23.2111 15.5283 23.2875 15.7 23.4391 15.7264C23.6493 15.7636 23.8641 15.7829 24.0838 15.7889C26.2746 15.8465 28.2409 14.4284 28.7841 12.2923" fill="#A3A3A4"/>
<path d="M31.0795 19.7556C30.6784 18.8959 29.7102 18.3063 28.2381 18.0169C27.5433 17.8464 25.6629 17.6063 23.9139 17.6387C23.8877 17.6423 23.8733 17.6603 23.8709 17.6723C23.8674 17.6891 23.8745 17.718 23.9092 17.736C24.7174 18.1382 27.8418 19.8877 27.449 23.5776C27.4323 23.7373 27.56 23.8754 27.7188 23.8513C28.4876 23.7409 30.4659 23.3134 31.0795 21.9818C31.4186 21.2782 31.4186 20.4605 31.0795 19.7556" fill="#A3A3A4"/>
<path d="M10.0601 6.37265C9.75566 6.31021 9.44168 6.27539 9.11456 6.27539C6.106 6.27539 3.74333 9.12235 4.55039 12.2923C5.09241 14.4284 7.05871 15.8465 9.24946 15.7889C9.46914 15.7829 9.68523 15.7624 9.89415 15.7264C10.0458 15.7 10.1222 15.5283 10.0362 15.401C9.20051 14.1643 8.72416 12.6765 8.72416 11.0796C8.72416 9.41173 9.24469 7.85917 10.1484 6.58518C10.1771 6.54556 10.1986 6.48432 10.1699 6.43869C10.1461 6.40147 10.1019 6.38226 10.0601 6.37265" fill="#A3A3A4"/>
<path d="M5.09541 18.0169C3.62336 18.3063 2.65633 18.8959 2.25519 19.7556C1.91494 20.4604 1.91494 21.2781 2.25519 21.983C2.86884 23.3134 4.84708 23.7421 5.61593 23.8513C5.77472 23.8754 5.90127 23.7385 5.88456 23.5776C5.49177 19.8889 8.61613 18.1394 9.42557 17.7372C9.459 17.7179 9.46617 17.6903 9.46258 17.6723C9.4602 17.6603 9.44706 17.6423 9.4208 17.6399C7.67059 17.6063 5.79143 17.8464 5.09541 18.0169" fill="#A3A3A4"/>
</svg>
