<svg width="58" height="49" viewBox="0 0 58 49" fill="none" xmlns="http://www.w3.org/2000/svg">
<path d="M18.6265 48.6926H16.2929L12.5781 42.6919L23.0556 37.4531L24.3891 40.1297L18.6265 48.6926Z" fill="#323234"/>
<path d="M57.3743 34.3181V34.2419C57.1648 32.5464 55.0026 25.5551 53.5643 21.1546C52.7747 18.6805 51.8591 16.2485 50.8211 13.868C48.9162 9.42932 45.7062 2.28559 44.6775 0.904468L44.6299 0.837801C44.4003 0.545339 44.1 0.316141 43.7573 0.171797C43.4146 0.0274536 43.0408 -0.0272947 42.6711 0.0127231C42.3014 0.0527409 41.948 0.186201 41.6441 0.400533C41.3403 0.614864 41.096 0.90302 40.9342 1.23785C39.5245 4.09534 36.3813 10.1723 33.1714 13.2488C30.3425 16.0111 15.3882 22.4214 5.57753 26.4885C4.45565 26.9573 3.43938 27.6467 2.58906 28.5158C1.73873 29.3849 1.07166 30.416 0.627458 31.5478C0.183254 32.6796 -0.0290344 33.8892 0.00318849 35.1046C0.0354114 36.3201 0.31149 37.5167 0.815041 38.6234C1.79466 40.7769 3.57638 42.4629 5.78071 43.3222C7.98504 44.1816 10.4378 44.1463 12.6165 43.2239C21.9795 39.252 36.6004 33.3275 40.5723 33.3275C45.0204 33.3275 51.4689 35.4992 54.4883 36.6136C54.8359 36.7347 55.2085 36.7659 55.5713 36.7042C55.9342 36.6425 56.2756 36.49 56.5637 36.2609C56.8517 36.0318 57.0771 35.7334 57.2189 35.3937C57.3606 35.054 57.4141 34.684 57.3743 34.3181Z" fill="#C0D1B1"/>
<path d="M55.5362 36.7945C55.5362 36.7945 55.5362 36.2516 55.3838 35.28C55.2314 34.3085 54.9647 32.9178 54.5551 31.2129C53.4691 26.7649 52.1109 22.3878 50.488 18.1065C48.3829 13.163 46.7446 8.58152 45.0111 5.51448C44.3617 4.29902 43.5333 3.18808 42.5537 2.21885C42.2832 1.95989 41.9863 1.73003 41.6678 1.53305C41.5533 1.46753 41.4476 1.38749 41.3535 1.29492C41.3535 1.29492 41.4869 1.29493 41.7155 1.44732C42.0587 1.61501 42.3788 1.8263 42.668 2.07596C43.7262 3.00397 44.6184 4.10559 45.3064 5.3335C47.1447 8.39102 48.8306 12.9535 50.9356 17.9255C52.5769 22.2226 53.8982 26.6352 54.8885 31.1271C55.2 32.4896 55.4259 33.8703 55.5648 35.261C55.5969 35.6413 55.5969 36.0237 55.5648 36.404C55.5743 36.6707 55.5552 36.804 55.5362 36.7945Z" fill="#323234"/>
<path d="M5.64404 29.908C4.75312 30.7963 3.93156 31.7516 3.1866 32.7654C2.58175 33.8721 2.06578 35.0251 1.64355 36.2135C1.67371 34.8967 2.06206 33.6131 2.7669 32.5005C3.47173 31.3878 4.4664 30.4883 5.64404 29.8984V29.908Z" fill="#323234"/>
<path d="M10.483 40.0707C9.49487 40.5976 8.37812 40.8351 7.26106 40.756C6.14399 40.6768 5.07192 40.2841 4.16797 39.623C5.19734 39.8909 6.24021 40.1039 7.29217 40.2612C8.35853 40.2581 9.42386 40.1945 10.483 40.0707Z" fill="#323234"/>
<path d="M7.87238 35.252C7.19005 35.8049 6.41197 36.2279 5.57685 36.4997C4.79035 36.914 3.93507 37.1819 3.05273 37.2903C3.73282 36.7272 4.51104 36.2945 5.34826 36.014C6.13669 35.6096 6.99188 35.3514 7.87238 35.252Z" fill="#323234"/>
<path d="M34.0954 16.8103C34.143 16.9341 29.3329 19.0772 23.4274 21.5728C17.5219 24.0683 12.6261 26.0209 12.5785 25.8971C12.5309 25.7733 17.341 23.6302 23.2369 21.1346C29.1329 18.6391 34.0382 16.6864 34.0954 16.8103Z" fill="white"/>
<path d="M40.4959 7.73438C39.6579 9.72712 38.5209 11.5804 37.124 13.2303C37.962 11.2375 39.099 9.38426 40.4959 7.73438Z" fill="white"/>
</svg>
