<svg width="18" height="19" viewBox="0 0 18 19" fill="none" xmlns="http://www.w3.org/2000/svg">
<g clip-path="url(#clip0_3036_9395)">
<g clip-path="url(#clip1_3036_9395)">
<path d="M14.2421 10.0628C14.2674 12.7868 16.6317 13.6933 16.6579 13.7048C16.6379 13.7687 16.2802 14.9966 15.4123 16.2649C14.662 17.3615 13.8834 18.4539 12.6568 18.4766C11.4516 18.4988 11.064 17.7619 9.68608 17.7619C8.30855 17.7619 7.87796 18.454 6.73706 18.4988C5.55309 18.5436 4.65147 17.3131 3.89504 16.2206C2.34929 13.9858 1.16801 9.9057 2.75416 7.15155C3.54213 5.78383 4.95028 4.91773 6.47871 4.89552C7.64134 4.87334 8.73869 5.6777 9.44946 5.6777C10.1598 5.6777 11.4933 4.71039 12.8952 4.85245C13.4821 4.87688 15.1295 5.08952 16.1874 6.63794C16.1021 6.69078 14.2217 7.78549 14.2421 10.0628ZM11.977 3.37397C12.6056 2.6131 13.0286 1.5539 12.9132 0.5C12.0072 0.536416 10.9115 1.10377 10.2617 1.86422C9.67923 2.53763 9.16916 3.61548 9.30678 4.64852C10.3167 4.72665 11.3484 4.13532 11.977 3.37397Z" fill="black"/>
</g>
</g>
<defs>
<clipPath id="clip0_3036_9395">
<rect width="18" height="18" fill="white" transform="translate(0 0.5)"/>
</clipPath>
<clipPath id="clip1_3036_9395">
<rect width="14.6592" height="18" fill="white" transform="translate(2 0.5)"/>
</clipPath>
</defs>
</svg>
