<svg width="18" height="18" viewBox="0 0 18 18" fill="none" xmlns="http://www.w3.org/2000/svg">
<g clip-path="url(#clip0_3847_8577)">
<g clip-path="url(#clip1_3847_8577)">
<path d="M14.242 9.56283C14.2673 12.2868 16.6316 13.1933 16.6578 13.2048C16.6378 13.2687 16.28 14.4966 15.4122 15.7649C14.6619 16.8615 13.8833 17.9539 12.6567 17.9766C11.4515 17.9988 11.0639 17.2619 9.68596 17.2619C8.30843 17.2619 7.87784 17.954 6.73694 17.9988C5.55296 18.0436 4.65135 16.8131 3.89491 15.7206C2.34916 13.4858 1.16789 9.4057 2.75404 6.65155C3.54201 5.28383 4.95016 4.41773 6.47859 4.39552C7.64122 4.37334 8.73857 5.1777 9.44933 5.1777C10.1596 5.1777 11.4932 4.21039 12.8951 4.35245C13.482 4.37688 15.1294 4.58952 16.1872 6.13794C16.102 6.19078 14.2215 7.28549 14.242 9.56283ZM11.9769 2.87397C12.6054 2.1131 13.0285 1.0539 12.9131 0C12.007 0.0364156 10.9114 0.603766 10.2615 1.36422C9.67911 2.03763 9.16903 3.11548 9.30666 4.14852C10.3166 4.22665 11.3482 3.63532 11.9769 2.87397Z" fill="white"/>
</g>
</g>
<defs>
<clipPath id="clip0_3847_8577">
<rect width="18" height="18" fill="white"/>
</clipPath>
<clipPath id="clip1_3847_8577">
<rect width="14.6592" height="18" fill="white" transform="translate(2)"/>
</clipPath>
</defs>
</svg>
