<svg width="28" height="30" viewBox="0 0 28 30" fill="none" xmlns="http://www.w3.org/2000/svg">
<path d="M10.3 27C10.4674 27.3044 10.7134 27.5583 11.0125 27.7352C11.3115 27.912 11.6526 28.0053 12 28.0053C12.3474 28.0053 12.6885 27.912 12.9875 27.7352C13.2866 27.5583 13.5326 27.3044 13.7 27M6 14C6 12.4087 6.63214 10.8826 7.75736 9.75736C8.88258 8.63214 10.4087 8 12 8C13.5913 8 15.1174 8.63214 16.2426 9.75736C17.3679 10.8826 18 12.4087 18 14C18 21 21 23 21 23H3C3 23 6 21 6 14Z" stroke="#323234" stroke-width="2" stroke-linecap="round" stroke-linejoin="round"/>
<rect x="12" width="14.864" height="16.64" rx="7.432" fill="#2F5F02"/>
<path d="M17.032 9.988C17.072 10.252 17.16 10.496 17.296 10.72C17.44 10.944 17.62 11.14 17.836 11.308C18.052 11.468 18.296 11.596 18.568 11.692C18.848 11.78 19.144 11.824 19.456 11.824C19.808 11.824 20.128 11.772 20.416 11.668C20.712 11.564 20.964 11.42 21.172 11.236C21.388 11.052 21.556 10.832 21.676 10.576C21.796 10.32 21.856 10.04 21.856 9.736C21.856 9.096 21.66 8.592 21.268 8.224C20.884 7.848 20.356 7.66 19.684 7.66C19.268 7.66 18.868 7.736 18.484 7.888C18.1 8.032 17.704 8.268 17.296 8.596L16.3 8.608L17.2 4H22.384V4.78H17.86L17.236 7.84H17.38C17.812 7.536 18.236 7.316 18.652 7.18C19.068 7.036 19.512 6.964 19.984 6.964C20.432 6.964 20.832 7.028 21.184 7.156C21.536 7.284 21.836 7.468 22.084 7.708C22.34 7.948 22.532 8.244 22.66 8.596C22.796 8.94 22.864 9.328 22.864 9.76C22.864 10.184 22.78 10.572 22.612 10.924C22.452 11.276 22.22 11.58 21.916 11.836C21.62 12.092 21.264 12.292 20.848 12.436C20.432 12.572 19.976 12.64 19.48 12.64C19.016 12.64 18.584 12.576 18.184 12.448C17.784 12.312 17.428 12.128 17.116 11.896C16.812 11.664 16.56 11.388 16.36 11.068C16.168 10.74 16.048 10.38 16 9.988H17.032Z" fill="white"/>
</svg>
