<svg width="16" height="16" viewBox="0 0 16 16" fill="none" xmlns="http://www.w3.org/2000/svg">
<path d="M10.6504 10.9923C9.15697 12.0445 8.29157 13.8088 8 14.3337V5.33366C8.22624 4.92642 8.79799 3.89728 9.74057 3.00602C10.4409 2.34377 10.7911 2.01264 11.3956 2.27297C12 2.5333 12 3.12835 12 4.31845V8.82506C12 9.45275 12 9.76659 11.8877 9.98312C11.7754 10.1996 11.4004 10.4639 10.6504 10.9923L10.6504 10.9923Z" stroke="#909091" stroke-width="1.5" stroke-linecap="round" stroke-linejoin="round"/>
<path d="M8.00016 5.2037C7.54224 4.72268 6.21466 3.58026 3.9872 3.17972C2.85876 2.9768 2.29454 2.87534 1.81402 3.26422C1.3335 3.6531 1.3335 4.28458 1.3335 5.54756V10.0865C1.3335 11.2413 1.3335 11.8187 1.64189 12.1792C1.95029 12.5397 2.62926 12.6618 3.9872 12.9059C5.19772 13.1236 6.14246 13.4704 6.82628 13.819C7.49908 14.1619 7.8355 14.3333 8.00016 14.3333C8.16483 14.3333 8.50124 14.1619 9.17404 13.819C9.85787 13.4704 10.8026 13.1236 12.0131 12.9059C13.3711 12.6618 14.05 12.5397 14.3584 12.1792C14.6668 11.8187 14.6668 11.2413 14.6668 10.0865V5.54756C14.6668 4.28458 14.6668 3.6531 14.1863 3.26422C13.7058 2.87534 12.6668 3.17972 12.0002 3.66667" stroke="#909091" stroke-width="1.5" stroke-linecap="round" stroke-linejoin="round"/>
</svg>
