<svg width="34" height="34" viewBox="0 0 34 34" fill="none" xmlns="http://www.w3.org/2000/svg">
<path d="M2.83301 22.6673V5.66732C2.83301 4.91587 3.13152 4.1952 3.66287 3.66385C4.19422 3.1325 4.91489 2.83398 5.66634 2.83398H21.2497M2.83301 22.6673C2.83301 21.9159 3.13152 21.1952 3.66287 20.6638C4.19422 20.1325 4.91489 19.834 5.66634 19.834H7.08301M2.83301 22.6673C2.83301 23.4188 3.13152 24.1394 3.66287 24.6708C4.19422 25.2021 4.91489 25.5007 5.66634 25.5007H7.08301M31.1663 25.5007H15.583C14.8316 25.5007 14.1109 25.7992 13.5795 26.3305C13.0482 26.8619 12.7497 27.5825 12.7497 28.334M12.7497 28.334C12.7497 29.0854 13.0482 29.8061 13.5795 30.3375C14.1109 30.8688 14.8316 31.1673 15.583 31.1673H30.458C30.6459 31.1673 30.826 31.0927 30.9589 30.9599C31.0917 30.827 31.1663 30.6468 31.1663 30.459V9.20898C31.1663 9.02112 31.0917 8.84096 30.9589 8.70812C30.826 8.57528 30.6459 8.50065 30.458 8.50065H15.583C14.8316 8.50065 14.1109 8.79916 13.5795 9.33051C13.0482 9.86187 12.7497 10.5825 12.7497 11.334V28.334Z" stroke="#323234" stroke-width="2" stroke-linecap="round" stroke-linejoin="round"/>
</svg>
