<svg width="16" height="17" viewBox="0 0 16 17" fill="none" xmlns="http://www.w3.org/2000/svg">
<path d="M10.6504 11.7149C9.15697 12.7672 8.29157 14.5315 8 15.0563V6.05631C8.22624 5.64908 8.79799 4.61993 9.74057 3.72867C10.4409 3.06642 10.7911 2.7353 11.3956 2.99563C12 3.25595 12 3.851 12 5.04111V9.54771C12 10.1754 12 10.4892 11.8877 10.7058C11.7754 10.9223 11.4004 11.1865 10.6504 11.7149L10.6504 11.7149Z" stroke="#346902" stroke-width="1.5" stroke-linecap="round" stroke-linejoin="round"/>
<path d="M7.99992 5.92685C7.54199 5.44583 6.21442 4.30341 3.98696 3.90286C2.85852 3.69994 2.2943 3.59849 1.81377 3.98736C1.33325 4.37624 1.33325 5.00773 1.33325 6.2707V10.8096C1.33325 11.9644 1.33325 12.5418 1.64165 12.9023C1.95005 13.2628 2.62902 13.3849 3.98696 13.6291C5.19747 13.8468 6.14221 14.1936 6.82604 14.5421C7.49884 14.885 7.83525 15.0565 7.99992 15.0565C8.16458 15.0565 8.501 14.885 9.1738 14.5421C9.85762 14.1936 10.8024 13.8468 12.0129 13.6291C13.3708 13.3849 14.0498 13.2628 14.3582 12.9023C14.6666 12.5418 14.6666 11.9644 14.6666 10.8096V6.2707C14.6666 5.00773 14.6666 4.37624 14.1861 3.98736C13.7055 3.59849 12.6666 3.90286 11.9999 4.38981" stroke="#346902" stroke-width="1.5" stroke-linecap="round" stroke-linejoin="round"/>
</svg>
