<svg width="13" height="15" viewBox="0 0 13 15" fill="none" xmlns="http://www.w3.org/2000/svg">
<path d="M12.4231 13.7462L12.1515 13.3453L11.8359 12.8885L9.47269 9.45896C10.3335 8.76135 10.9776 7.82144 11.2569 6.71594C11.9694 3.89232 10.0593 1.07258 6.98891 0.41721C6.49863 0.312517 6.00863 0.26924 5.5285 0.281938C5.49272 0.282974 5.45693 0.28427 5.42115 0.286084C5.39663 0.286602 5.37212 0.287898 5.34789 0.289453C5.33718 0.289971 5.32591 0.291267 5.3152 0.291785C5.28449 0.292822 5.25434 0.295154 5.22363 0.297486C5.12501 0.30552 5.02667 0.315367 4.92946 0.327547C4.89311 0.332211 4.85733 0.336876 4.82154 0.342059C4.77759 0.348537 4.73363 0.355275 4.68968 0.362272C4.68291 0.364086 4.67587 0.365123 4.66911 0.365641C4.57753 0.381189 4.48652 0.39907 4.39692 0.418247C4.39326 0.419283 4.38931 0.420061 4.38565 0.420579C4.34226 0.430427 4.29971 0.440274 4.25716 0.45064C4.16418 0.472667 4.0726 0.496767 3.98187 0.523977C3.9134 0.54419 3.84578 0.564922 3.77787 0.586949C3.71081 0.608976 3.64375 0.632558 3.57782 0.657436C3.5333 0.673503 3.48878 0.690347 3.44482 0.708228C3.43919 0.710042 3.43412 0.712374 3.42904 0.714447C1.82804 1.35349 0.565715 2.65854 0.14109 4.34271C-0.491198 6.84914 0.94413 9.35323 3.42341 10.3416C3.73589 10.4668 4.06528 10.5673 4.40903 10.6404C4.78294 10.72 5.15628 10.7637 5.52512 10.7744C5.53695 10.7749 5.54822 10.7749 5.55949 10.7749C5.60458 10.7767 5.6491 10.7772 5.69446 10.7772C5.74518 10.7772 5.79618 10.7767 5.84634 10.7754C5.921 10.7736 5.99511 10.7707 6.06837 10.7661C6.21714 10.7575 6.36507 10.743 6.51131 10.7233C6.57414 10.7153 6.6367 10.7054 6.69897 10.6951C7.04216 10.6386 7.37718 10.5538 7.70009 10.4419L10.3752 14.3249L10.6663 14.753C10.8519 15.0277 11.3958 15.0254 11.8821 14.7473C12.3676 14.4687 12.6088 14.0209 12.4231 13.7462ZM5.77815 9.23532C5.74039 9.23532 5.70348 9.2348 5.66572 9.23351C5.62796 9.23299 5.58993 9.23118 5.55217 9.22936C5.52963 9.22833 5.50624 9.22651 5.4837 9.2247C5.27914 9.21148 5.07344 9.18246 4.86691 9.13866C4.33042 9.02438 3.84437 8.81551 3.42397 8.53641C3.35945 8.49366 3.29661 8.44882 3.23575 8.4027C3.20504 8.38015 3.17433 8.35657 3.14474 8.33221C3.08501 8.28479 3.02752 8.23581 2.97089 8.1845C2.91454 8.13422 2.85987 8.0824 2.80718 8.02875C2.78013 8.00232 2.75449 7.97511 2.72941 7.94738C2.72829 7.94557 2.72631 7.94401 2.72434 7.9422C2.70039 7.9168 2.67672 7.89089 2.65418 7.8642C2.6291 7.83647 2.60515 7.80822 2.58205 7.77946C2.55754 7.75069 2.53443 7.72167 2.51245 7.69239C2.48935 7.66284 2.46652 7.63356 2.44539 7.6035C2.40087 7.54338 2.35945 7.483 2.32 7.42054C2.30366 7.39463 2.28732 7.36872 2.27098 7.34202C2.26534 7.3327 2.25914 7.32311 2.25351 7.31326C2.23773 7.28605 2.22223 7.2591 2.20645 7.23189C2.18814 7.1995 2.17067 7.16736 2.15432 7.13497C2.13855 7.10491 2.12361 7.07485 2.1084 7.04505C2.10783 7.0422 2.10642 7.03935 2.10473 7.03701C2.08895 7.0041 2.07402 6.97067 2.0588 6.93724C2.02866 6.87038 2.00104 6.80275 1.97597 6.73408C1.96329 6.70013 1.95089 6.6654 1.93962 6.63068C1.9213 6.57704 1.9044 6.52339 1.88946 6.46845C1.88749 6.46094 1.88495 6.45291 1.88326 6.44539C1.87876 6.43166 1.87509 6.41766 1.87199 6.40315C1.87087 6.4003 1.87002 6.39693 1.86946 6.39382C1.85452 6.33603 1.84128 6.27773 1.82945 6.2189C1.82071 6.17666 1.8131 6.13416 1.8055 6.0914C1.80042 6.05745 1.79535 6.02377 1.79113 5.98982C1.78662 5.95742 1.78295 5.92529 1.77929 5.8929C1.77873 5.88253 1.77732 5.87165 1.77619 5.86051C1.77366 5.83045 1.77112 5.79987 1.76943 5.76981C1.76689 5.73404 1.76492 5.69828 1.76379 5.662V5.65682C1.76267 5.62054 1.76182 5.584 1.76182 5.54772C1.76182 5.27147 1.79563 4.99082 1.86664 4.70991C1.88101 4.65342 1.89679 4.59744 1.91369 4.54199C1.92187 4.51426 1.9306 4.48705 1.94018 4.45958C1.95511 4.41293 1.9723 4.36681 1.98977 4.3212C1.99738 4.30047 2.00555 4.27973 2.01372 4.25952C2.05571 4.15457 2.10276 4.05169 2.15489 3.9527C2.16672 3.92963 2.17884 3.90657 2.1918 3.8835C2.20053 3.86744 2.20927 3.85111 2.21829 3.83556C2.23153 3.8125 2.24477 3.78944 2.25914 3.76637C2.26478 3.75652 2.27041 3.74668 2.27605 3.73761C2.28873 3.71739 2.30113 3.69718 2.31381 3.67749C2.40735 3.53029 2.51133 3.39062 2.62488 3.25871C2.63671 3.24498 2.64883 3.2315 2.66066 3.21777C2.70884 3.16283 2.75984 3.10867 2.81113 3.05684C2.82493 3.04362 2.83818 3.03041 2.85198 3.01693C2.91848 2.95163 2.98695 2.88943 3.05852 2.82931C3.0743 2.8161 3.0898 2.80288 3.10614 2.7894C3.13375 2.76686 3.16136 2.74509 3.18898 2.72358C3.2242 2.69585 3.26055 2.66942 3.2969 2.64273C3.34029 2.61163 3.3834 2.58157 3.42792 2.55203C4.02442 2.15632 4.7373 1.91221 5.48877 1.86323C5.54203 1.85986 5.59613 1.85753 5.64994 1.85571C5.66629 1.85519 5.68263 1.85519 5.69953 1.85468C6.02272 1.84949 6.35267 1.88007 6.68206 1.95056C8.84069 2.41106 10.1839 4.3935 9.68318 6.37879C9.25291 8.08317 7.6026 9.23532 5.77815 9.23532Z" fill="#346902"/>
<path d="M8.57798 3.77096C8.11138 3.02022 7.13759 2.55817 6.41739 2.4895C6.33455 2.48147 6.25988 2.53692 6.25114 2.61363C6.24297 2.68982 6.30327 2.75849 6.38611 2.766C7.01417 2.82613 7.90371 3.24723 8.3151 3.90908C8.34327 3.95417 8.39427 3.97957 8.44696 3.97957C8.47204 3.97957 8.49853 3.97387 8.52163 3.96117C8.59433 3.92308 8.6194 3.83808 8.57798 3.77096ZM8.84087 4.34626C8.80312 4.2781 8.71239 4.25037 8.63772 4.2851C8.56305 4.31982 8.5329 4.40327 8.57066 4.47194C8.65406 4.62302 8.80086 4.97571 8.8265 5.33463C8.83158 5.40848 8.89807 5.46498 8.97697 5.46498C8.98007 5.46498 8.98373 5.46446 8.98711 5.46446C9.07052 5.45928 9.13391 5.39345 9.12828 5.31675C9.10179 4.93943 8.95696 4.55798 8.84087 4.34626Z" fill="#346902"/>
<path d="M12.4231 13.7462L12.1515 13.3453L12.1503 13.3453L11.8359 12.8885L9.47269 9.45896C10.3335 8.76135 10.9776 7.82144 11.2569 6.71594C11.9694 3.89232 10.0593 1.07258 6.98891 0.41721C6.49863 0.312517 6.00863 0.26924 5.5285 0.281938C5.49272 0.282974 5.45693 0.28427 5.42115 0.286084C5.39663 0.286602 5.37212 0.287898 5.34789 0.289453C5.33718 0.289971 5.32591 0.291267 5.3152 0.291785C5.28449 0.292822 5.25434 0.295154 5.22363 0.297486C5.12501 0.30552 5.02667 0.315367 4.92946 0.327547C4.89311 0.332211 4.85733 0.336876 4.82154 0.342059C4.77759 0.348537 4.73363 0.355275 4.68968 0.362272C4.68291 0.364086 4.67587 0.365123 4.66911 0.365641C4.57753 0.381189 4.48652 0.39907 4.39692 0.418247C4.39326 0.419283 4.38931 0.420061 4.38565 0.420579C4.34226 0.430427 4.29971 0.440274 4.25716 0.45064C4.16418 0.472667 4.0726 0.496767 3.98187 0.523977C3.9134 0.54419 3.84578 0.564922 3.77787 0.586949C3.71081 0.608976 3.64375 0.632558 3.57782 0.657436C3.5333 0.673503 3.48878 0.690347 3.44482 0.708228C3.43919 0.710042 3.43412 0.712374 3.42904 0.714447L3.42397 8.53641L3.42425 8.53745L3.42341 10.3416L3.42059 14.5524C3.42059 14.7825 3.62374 14.9702 3.87424 14.9702H5.02723C5.27744 14.9702 5.48088 14.7833 5.48088 14.5529L5.48341 10.7739C5.49722 10.7744 5.51131 10.7744 5.52512 10.7744C5.53695 10.7749 5.54822 10.7749 5.55949 10.7749C5.60458 10.7767 5.6491 10.7772 5.69446 10.7772C5.74518 10.7772 5.79618 10.7767 5.84634 10.7754C5.921 10.7736 5.99511 10.7707 6.06837 10.7661C6.21714 10.7575 6.36507 10.743 6.51131 10.7233C6.57414 10.7153 6.6367 10.7054 6.69897 10.6951C7.04216 10.6386 7.37718 10.5538 7.70009 10.4419L10.3752 14.3249L10.6663 14.753C10.8519 15.0277 11.3958 15.0254 11.8821 14.7473C12.3676 14.4687 12.6088 14.0209 12.4231 13.7462ZM5.77815 9.23532C5.74039 9.23532 5.70348 9.2348 5.66572 9.23351C5.62796 9.23299 5.58993 9.23118 5.55217 9.22936C5.52963 9.22833 5.50624 9.22651 5.4837 9.2247L5.48764 1.86375C5.5409 1.86038 5.59499 1.85804 5.64881 1.85623C5.66515 1.85571 5.6815 1.85571 5.6984 1.85519C6.02159 1.85001 6.35154 1.88059 6.68093 1.95108C8.83956 2.41157 10.1827 4.39402 9.68204 6.37931C9.25178 8.08369 7.6026 9.23532 5.77815 9.23532Z" fill="#346902"/>
<path d="M3.44583 0.708498C3.44012 0.710495 3.43442 0.713062 3.42871 0.7162V0.708498H3.44583Z" fill="#346902"/>
<path d="M8.52163 3.96117C8.49853 3.97387 8.47204 3.97957 8.44696 3.97957C8.39427 3.97957 8.34327 3.95417 8.3151 3.90908C7.90371 3.24723 7.01417 2.82613 6.38611 2.766C6.30327 2.75849 6.24297 2.68982 6.25114 2.61363C6.25988 2.53692 6.33455 2.48147 6.41739 2.4895C7.13759 2.55817 8.11138 3.02022 8.57798 3.77096C8.6194 3.83808 8.59433 3.92308 8.52163 3.96117Z" fill="#346902"/>
<path d="M9.12828 5.31675C9.13391 5.39345 9.07052 5.45928 8.98711 5.46446C8.98373 5.46446 8.98007 5.46498 8.97697 5.46498C8.89807 5.46498 8.83158 5.40848 8.8265 5.33463C8.80086 4.97571 8.65406 4.62302 8.57066 4.47194C8.5329 4.40327 8.56305 4.31982 8.63772 4.2851C8.71239 4.25037 8.80312 4.2781 8.84087 4.34626C8.95696 4.55798 9.10179 4.93943 9.12828 5.31675Z" fill="#346902"/>
</svg>
