<svg width="14" height="16" viewBox="0 0 14 16" fill="none" xmlns="http://www.w3.org/2000/svg">
<g clip-path="url(#clip0_2140_38423)">
<g clip-path="url(#clip1_2140_38423)">
<g clip-path="url(#clip2_2140_38423)">
<path d="M6.99869 10.2917C6.83203 10.2917 6.68286 10.2292 6.55119 10.1042C6.41897 9.97917 6.35286 9.82639 6.35286 9.64583C6.35286 9.47917 6.41897 9.33333 6.55119 9.20833C6.68286 9.08333 6.83203 9.02083 6.99869 9.02083C7.16536 9.02083 7.31481 9.08333 7.44703 9.20833C7.57869 9.33333 7.64453 9.47917 7.64453 9.64583C7.64453 9.82639 7.57869 9.97917 7.44703 10.1042C7.31481 10.2292 7.16536 10.2917 6.99869 10.2917ZM3.66536 10.2917C3.49869 10.2917 3.34953 10.2292 3.21786 10.1042C3.08564 9.97917 3.01953 9.82639 3.01953 9.64583C3.01953 9.47917 3.08564 9.33333 3.21786 9.20833C3.34953 9.08333 3.49869 9.02083 3.66536 9.02083C3.83203 9.02083 3.98147 9.08333 4.11369 9.20833C4.24536 9.33333 4.31119 9.47917 4.31119 9.64583C4.31119 9.82639 4.24536 9.97917 4.11369 10.1042C3.98147 10.2292 3.83203 10.2917 3.66536 10.2917ZM10.332 10.2917C10.1653 10.2917 10.0162 10.2292 9.88453 10.1042C9.75231 9.97917 9.68619 9.82639 9.68619 9.64583C9.68619 9.47917 9.75231 9.33333 9.88453 9.20833C10.0162 9.08333 10.1653 9.02083 10.332 9.02083C10.4987 9.02083 10.6481 9.08333 10.7803 9.20833C10.912 9.33333 10.9778 9.47917 10.9778 9.64583C10.9778 9.82639 10.912 9.97917 10.7803 10.1042C10.6481 10.2292 10.4987 10.2917 10.332 10.2917ZM6.99869 13.5C6.83203 13.5 6.68286 13.4375 6.55119 13.3125C6.41897 13.1875 6.35286 13.0347 6.35286 12.8542C6.35286 12.6875 6.41897 12.5383 6.55119 12.4067C6.68286 12.2744 6.83203 12.2083 6.99869 12.2083C7.16536 12.2083 7.31481 12.2744 7.44703 12.4067C7.57869 12.5383 7.64453 12.6875 7.64453 12.8542C7.64453 13.0347 7.57869 13.1875 7.44703 13.3125C7.31481 13.4375 7.16536 13.5 6.99869 13.5ZM3.66536 13.5C3.49869 13.5 3.34953 13.4375 3.21786 13.3125C3.08564 13.1875 3.01953 13.0347 3.01953 12.8542C3.01953 12.6875 3.08564 12.5383 3.21786 12.4067C3.34953 12.2744 3.49869 12.2083 3.66536 12.2083C3.83203 12.2083 3.98147 12.2744 4.11369 12.4067C4.24536 12.5383 4.31119 12.6875 4.31119 12.8542C4.31119 13.0347 4.24536 13.1875 4.11369 13.3125C3.98147 13.4375 3.83203 13.5 3.66536 13.5ZM10.332 13.5C10.1653 13.5 10.0162 13.4375 9.88453 13.3125C9.75231 13.1875 9.68619 13.0347 9.68619 12.8542C9.68619 12.6875 9.75231 12.5383 9.88453 12.4067C10.0162 12.2744 10.1653 12.2083 10.332 12.2083C10.4987 12.2083 10.6481 12.2744 10.7803 12.4067C10.912 12.5383 10.9778 12.6875 10.9778 12.8542C10.9778 13.0347 10.912 13.1875 10.7803 13.3125C10.6481 13.4375 10.4987 13.5 10.332 13.5ZM1.68619 16C1.29731 16 0.974531 15.8717 0.717864 15.615C0.460642 15.3578 0.332031 15.0347 0.332031 14.6458V4.02083C0.332031 3.63194 0.460642 3.30917 0.717864 3.0525C0.974531 2.79528 1.29731 2.66667 1.68619 2.66667H3.14453V0.8125H4.04036V2.66667H10.0195V0.8125H10.8528V2.66667H12.3112C12.7001 2.66667 13.0231 2.79528 13.2803 3.0525C13.537 3.30917 13.6653 3.63194 13.6653 4.02083V14.6458C13.6653 15.0347 13.537 15.3578 13.2803 15.615C13.0231 15.8717 12.7001 16 12.3112 16H1.68619ZM1.68619 15.1667H12.3112C12.4501 15.1667 12.5715 15.1144 12.6753 15.01C12.7798 14.9061 12.832 14.7847 12.832 14.6458V7.35417H1.16536V14.6458C1.16536 14.7847 1.21758 14.9061 1.32203 15.01C1.42592 15.1144 1.54731 15.1667 1.68619 15.1667Z" fill="#131316"/>
</g>
</g>
</g>
<defs>
<clipPath id="clip0_2140_38423">
<rect width="14" height="16" fill="white"/>
</clipPath>
<clipPath id="clip1_2140_38423">
<rect width="14" height="16" fill="white"/>
</clipPath>
<clipPath id="clip2_2140_38423">
<rect width="14" height="16" fill="white"/>
</clipPath>
</defs>
</svg>
