<svg width="32" height="32" viewBox="0 0 32 32" fill="none" xmlns="http://www.w3.org/2000/svg">
<path fill-rule="evenodd" clip-rule="evenodd" d="M20.2117 5.50555C21.5045 6.02011 21.9 7.81211 22.4286 8.38811C22.9573 8.96411 23.7137 9.15995 24.1323 9.15995C26.3569 9.15995 28.1605 10.9635 28.1605 13.1868V20.6044C28.1605 23.5868 25.7413 26.006 22.7589 26.006H9.88207C6.89839 26.006 4.48047 23.5868 4.48047 20.6044V13.1868C4.48047 10.9635 6.28399 9.15995 8.50863 9.15995C8.92591 9.15995 9.68239 8.96411 10.2123 8.38811C10.7409 7.81211 11.1352 6.02011 12.428 5.50555C13.7221 4.99099 18.9189 4.99099 20.2117 5.50555Z" stroke="white" stroke-width="1.6" stroke-linecap="round" stroke-linejoin="round"/>
<path d="M23.3549 12.4798H23.3665" stroke="white" stroke-width="1.92" stroke-linecap="round" stroke-linejoin="round"/>
<path fill-rule="evenodd" clip-rule="evenodd" d="M20.3882 17.1238C20.3882 14.8761 18.5668 13.0547 16.3191 13.0547C14.0714 13.0547 12.25 14.8761 12.25 17.1238C12.25 19.3715 14.0714 21.1929 16.3191 21.1929C18.5668 21.1929 20.3882 19.3715 20.3882 17.1238Z" stroke="white" stroke-width="1.6" stroke-linecap="round" stroke-linejoin="round"/>
</svg>
