<svg width="44" height="44" viewBox="0 0 44 44" fill="none" xmlns="http://www.w3.org/2000/svg">
<rect width="44" height="44" rx="12" fill="#F5F7F9"/>
<path d="M16.1667 19.6668V16.1668C16.1667 14.6197 16.7812 13.136 17.8752 12.042C18.9692 10.9481 20.4529 10.3335 22 10.3335C23.5471 10.3335 25.0308 10.9481 26.1248 12.042C27.2188 13.136 27.8333 14.6197 27.8333 16.1668V19.6668M23.1667 26.6668C23.1667 27.3112 22.6443 27.8335 22 27.8335C21.3557 27.8335 20.8333 27.3112 20.8333 26.6668C20.8333 26.0225 21.3557 25.5002 22 25.5002C22.6443 25.5002 23.1667 26.0225 23.1667 26.6668ZM13.8333 19.6668H30.1667C31.4553 19.6668 32.5 20.7115 32.5 22.0002V31.3335C32.5 32.6222 31.4553 33.6668 30.1667 33.6668H13.8333C12.5447 33.6668 11.5 32.6222 11.5 31.3335V22.0002C11.5 20.7115 12.5447 19.6668 13.8333 19.6668Z" stroke="#323234" stroke-width="2" stroke-linecap="round" stroke-linejoin="round"/>
</svg>
