<svg width="40" height="40" viewBox="0 0 40 40" fill="none" xmlns="http://www.w3.org/2000/svg">
<path fill-rule="evenodd" clip-rule="evenodd" d="M25.0668 6.7525C26.7502 7.4225 27.2652 9.75583 27.9535 10.5058C28.6418 11.2558 29.6268 11.5108 30.1718 11.5108C33.0685 11.5108 35.4168 13.8592 35.4168 16.7542V26.4125C35.4168 30.2958 32.2668 33.4458 28.3835 33.4458H11.6168C7.73183 33.4458 4.5835 30.2958 4.5835 26.4125V16.7542C4.5835 13.8592 6.93183 11.5108 9.8285 11.5108C10.3718 11.5108 11.3568 11.2558 12.0468 10.5058C12.7352 9.75583 13.2485 7.4225 14.9318 6.7525C16.6168 6.0825 23.3835 6.0825 25.0668 6.7525Z" stroke="#A3A3A4" stroke-width="2.5" stroke-linecap="round" stroke-linejoin="round"/>
<path d="M29.1588 15.8333H29.1738" stroke="#A3A3A4" stroke-width="3" stroke-linecap="round" stroke-linejoin="round"/>
<path fill-rule="evenodd" clip-rule="evenodd" d="M25.2978 21.8804C25.2978 18.9537 22.9262 16.582 19.9995 16.582C17.0728 16.582 14.7012 18.9537 14.7012 21.8804C14.7012 24.807 17.0728 27.1787 19.9995 27.1787C22.9262 27.1787 25.2978 24.807 25.2978 21.8804Z" stroke="#A3A3A4" stroke-width="2.5" stroke-linecap="round" stroke-linejoin="round"/>
</svg>
