<svg width="47" height="47" viewBox="0 0 47 47" fill="none" xmlns="http://www.w3.org/2000/svg">
<path d="M23.5001 23.5013V41.1263M23.5001 23.5013L18.6043 27.418M23.5001 23.5013L28.396 27.418M9.85837 17.8555C8.0062 18.3215 6.38796 19.4479 5.3077 21.023C4.22743 22.598 3.7595 24.5133 3.9918 26.4091C4.22411 28.3048 5.14067 30.0504 6.56928 31.318C7.99789 32.5857 9.84022 33.288 11.7501 33.293H13.7085" stroke="#191D23" stroke-width="2" stroke-linecap="round" stroke-linejoin="round"/>
<path d="M31.001 13.9793C30.3316 11.3289 28.6795 9.03208 26.3795 7.55455C24.0796 6.07701 21.3038 5.5293 18.615 6.02244C15.9262 6.51557 13.5254 8.01265 11.8995 10.2102C10.2735 12.4078 9.544 15.1413 9.85879 17.8568C9.85879 17.8568 10.1584 19.5841 10.7714 20.5632" stroke="#191D23" stroke-width="2" stroke-linecap="round" stroke-linejoin="round"/>
<path d="M33.2923 33.2923C34.675 33.2914 36.0418 32.9976 37.3027 32.4304C38.5637 31.8631 39.6902 31.0353 40.6081 30.0013C41.5261 28.9673 42.2146 27.7506 42.6284 26.4314C43.0423 25.1121 43.172 23.7201 43.0091 22.3471C42.8462 20.9741 42.3944 19.6511 41.6834 18.4653C40.9723 17.2794 40.0182 16.2577 38.8838 15.4671C37.7494 14.6766 36.4605 14.1353 35.1018 13.8789C33.7431 13.6224 32.3456 13.6566 31.0011 13.9792L28.3965 14.6881" stroke="#191D23" stroke-width="2" stroke-linecap="round" stroke-linejoin="round"/>
</svg>
