<svg width="34" height="34" viewBox="0 0 34 34" fill="none" xmlns="http://www.w3.org/2000/svg">
<path d="M25.6277 14.6915C26.9668 15.1908 28.1585 16.0197 29.0925 17.1015C30.0264 18.1834 30.6725 19.4833 30.971 20.881C31.2694 22.2787 31.2106 23.7291 30.8 25.0981C30.3894 26.4671 29.6402 27.7104 28.6217 28.7131C27.6032 29.7158 26.3483 30.4455 24.9731 30.8347C23.5979 31.2239 22.1468 31.2601 20.7539 30.9399C19.361 30.6197 18.0713 29.9534 17.0042 29.0026C15.937 28.0519 15.1268 26.8475 14.6485 25.5007M9.91683 8.50065H11.3335V14.1673M23.6727 19.664L24.6643 20.6698L20.6693 24.6648M19.8335 11.334C19.8335 16.0284 16.0279 19.834 11.3335 19.834C6.63908 19.834 2.8335 16.0284 2.8335 11.334C2.8335 6.63956 6.63908 2.83398 11.3335 2.83398C16.0279 2.83398 19.8335 6.63956 19.8335 11.334Z" stroke="#323234" stroke-width="2" stroke-linecap="round" stroke-linejoin="round"/>
</svg>
