<svg width="19" height="20" viewBox="0 0 19 20" fill="none" xmlns="http://www.w3.org/2000/svg">
<path d="M16.3238 7.46777C16.3238 7.46777 15.7808 14.2028 15.4658 17.0398C15.3158 18.3948 14.4788 19.1888 13.1078 19.2138C10.4988 19.2608 7.88681 19.2638 5.27881 19.2088C3.95981 19.1818 3.13681 18.3778 2.98981 17.0468C2.67281 14.1848 2.13281 7.46777 2.13281 7.46777" stroke="#E45F5F" stroke-width="1.5" stroke-linecap="round" stroke-linejoin="round"/>
<path d="M17.708 4.23926H0.75" stroke="#E45F5F" stroke-width="1.5" stroke-linecap="round" stroke-linejoin="round"/>
<path d="M14.4406 4.23949C13.6556 4.23949 12.9796 3.68449 12.8256 2.91549L12.5826 1.69949C12.4326 1.13849 11.9246 0.750488 11.3456 0.750488H7.11258C6.53358 0.750488 6.02558 1.13849 5.87558 1.69949L5.63258 2.91549C5.47858 3.68449 4.80258 4.23949 4.01758 4.23949" stroke="#E45F5F" stroke-width="1.5" stroke-linecap="round" stroke-linejoin="round"/>
</svg>
