<svg width="175" height="176" viewBox="0 0 175 176" fill="none" xmlns="http://www.w3.org/2000/svg">
<g clip-path="url(#clip0_570_1068)">
<mask id="mask0_570_1068" style="mask-type:luminance" maskUnits="userSpaceOnUse" x="0" y="0" width="175" height="176">
<path d="M175 0.5H0V175.5H175V0.5Z" fill="white"/>
</mask>
<g mask="url(#mask0_570_1068)">
<mask id="mask1_570_1068" style="mask-type:luminance" maskUnits="userSpaceOnUse" x="-6" y="-6" width="187" height="188">
<path d="M-5.83398 -5.33206H180.833V181.335H-5.83398V-5.33206Z" fill="white"/>
</mask>
<g mask="url(#mask1_570_1068)">
<mask id="mask2_570_1068" style="mask-type:luminance" maskUnits="userSpaceOnUse" x="-6" y="-6" width="187" height="188">
<path d="M-5.83398 -5.3298H180.833V181.337H-5.83398V-5.3298Z" fill="white"/>
</mask>
<g mask="url(#mask2_570_1068)">
<path d="M28.8061 68.2579C29.472 68.2579 30.0126 69.0208 30.0126 69.9604C30.0126 70.9 29.472 71.6628 28.8061 71.6628C28.1403 71.6628 27.5996 70.9 27.5996 69.9604C27.5996 69.0208 28.1403 68.2579 28.8061 68.2579Z" fill="#FFD13B"/>
<path d="M101.35 55.016L99.5703 55.1387L96.3623 53.1214L98.1418 52.9987L101.35 55.016Z" fill="#FFB53B"/>
<path d="M104.459 107.125L102.402 107.628L99.1023 105.288L101.159 104.785L104.459 107.125Z" fill="#346902"/>
<path d="M24.0894 141.104L21.7416 141.564L17.8464 138.896L20.1943 138.436L24.0894 141.104Z" fill="#FFC33B"/>
<g opacity="0.999999">
<path d="M47.4223 59.9143L45.2404 60.2458L41.5121 57.7683L43.694 57.4368L47.4223 59.9143Z" fill="#FF922B"/>
</g>
<path d="M136.186 90.3032L134.024 91.0446L130.798 88.5805L132.959 87.8391L136.186 90.3032Z" fill="#9D2EC1"/>
<path d="M62.4537 90.9909L60.3964 92.5619L58.3057 90.1975L60.3629 88.6264L62.4537 90.9909Z" fill="#FF533B"/>
<path d="M135.432 48.8325L139.847 48.6995L138.171 52.2977L135.432 48.8325Z" fill="#FF922B"/>
<path d="M42.9 87.3454L45.6321 86.547L44.0469 89.9505L42.9 87.3454Z" fill="#FF613B"/>
<g opacity="0.999999">
<path d="M121.046 126.328L123.716 125.2L121.901 129.097L121.046 126.328Z" fill="#FF922B"/>
</g>
<path d="M49.3676 32.3071L47.5486 33.53L45.5118 31.4431L47.3308 30.2203L49.3676 32.3071Z" fill="#346902"/>
<path d="M128.339 51.1056L126.51 52.0295L124.116 49.938L125.945 49.0141L128.339 51.1056Z" fill="#9D2EC1"/>
<path d="M34.6942 94.1328L38.764 93.7246L37.0006 97.5108L34.6942 94.1328Z" fill="#FCC852"/>
<path d="M130.468 148.237L135.028 147.963L133.193 151.903L130.468 148.237Z" fill="#FF922B"/>
<path d="M88.7425 49.9683L92.5729 49.1692L90.5956 53.4145L88.7425 49.9683Z" fill="#FF922B"/>
<g opacity="0.999999">
<path d="M51.7532 131.633L55.1978 130.866L53.3828 134.763L51.7532 131.633Z" fill="#FFA855"/>
</g>
<path d="M114.366 67.5144L117.707 67.1747L116.256 70.2901L114.366 67.5144Z" fill="#FFA855"/>
<path d="M123.221 34.5732C123.291 32.5935 123.49 30.6273 123.805 28.7876" stroke="#FCD452" stroke-width="6.20138"/>
<path d="M100.984 129.344C102.595 129.603 104.127 129.957 105.441 130.559" stroke="#346902" stroke-width="6.24666"/>
<path d="M60.1239 48.0826C57.6573 47.5383 55.4225 46.3041 53.5781 43.8598" stroke="#FCA452" stroke-width="4.94295"/>
<path d="M114.835 92.6253C116.078 91.7464 117.517 91.2554 119.359 91.4601" stroke="#FF922B" stroke-width="1.35277"/>
<path d="M33.5312 131.965C33.8093 133.66 33.7859 135.656 33.5391 137.652" stroke="#FFA855" stroke-width="4.18042"/>
<path d="M26.1009 34.325C23.9276 35.6604 22.0246 37.4329 20.0234 38.5709" stroke="#FF922B" stroke-width="2.94018"/>
</g>
<mask id="mask3_570_1068" style="mask-type:luminance" maskUnits="userSpaceOnUse" x="-6" y="-6" width="187" height="188">
<path d="M180.834 181.333H-5.8327V-5.33331H180.834V181.333Z" fill="white"/>
</mask>
<g mask="url(#mask3_570_1068)">
<path d="M130.018 104.369C129.316 104.369 128.746 104.024 128.746 103.598C128.746 103.173 129.316 102.827 130.018 102.827C130.721 102.827 131.291 103.173 131.291 103.598C131.291 104.024 130.721 104.369 130.018 104.369Z" fill="#FFAC23"/>
<g opacity="0.783234">
<path d="M88.1726 89.4336L85.9214 87.6111L87.5748 83.8381L89.8259 85.6606L88.1726 89.4336Z" fill="#346902"/>
</g>
<path d="M142.095 53.8139L140.763 52.491L141.803 49.6752L143.136 50.9981L142.095 53.8139Z" fill="#FF9C23"/>
<g opacity="0.999999">
<path d="M43.6303 95.0703L41.5348 92.5761L43.2776 87.1609L45.3731 89.6551L43.6303 95.0703Z" fill="#FF9C23"/>
</g>
<path d="M110.954 98.8042L110.271 96.5561L111.206 91.3672L111.889 93.6152L110.954 98.8042Z" fill="#346902"/>
<g opacity="0.999999">
<path d="M111.122 110.755L113.579 113.869L108.164 113.397L111.122 110.755Z" fill="#346902"/>
</g>
<path d="M53.4342 61.3221L55.4084 66.4347L50.6064 66.0168L53.4342 61.3221Z" fill="#FFB423"/>
<g opacity="0.999999">
<path d="M28.7039 46.2244C28.7302 45.4717 29.3425 44.8811 30.0703 44.9066C30.7982 44.932 31.3678 45.5638 31.3416 46.3165C31.3153 47.0693 30.703 47.6598 29.9751 47.6344C29.2472 47.609 28.6776 46.9771 28.7039 46.2244Z" fill="#FFA423"/>
</g>
<g opacity="0.999999">
<path d="M96.5565 115.919L94.8537 113.978L96.2479 109.783L97.9507 111.723L96.5565 115.919Z" fill="#346902"/>
</g>
<g opacity="0.999999">
<path d="M46.6248 119.297L44.5022 117.743L46.0193 114.576L48.1419 116.13L46.6248 119.297Z" fill="#346902"/>
</g>
<path d="M81.7804 38.5008L79.4782 36.4679L81.2123 32.2058L83.5144 34.2388L81.7804 38.5008Z" fill="#FCC252"/>
<path d="M67.018 29.6719L67.7455 32.6004L65.7955 32.4307L67.018 29.6719Z" fill="#FCB052"/>
<g opacity="0.999999">
<path d="M77.8807 124.374L79.6018 127.184L75.6999 126.845L77.8807 124.374Z" fill="#346902"/>
</g>
<g opacity="0.999999">
<path d="M101.014 46.2092L102.862 50.0361L98.533 49.6594L101.014 46.2092Z" fill="#FCAA52"/>
</g>
<g opacity="0.999999">
<path d="M73.0665 106.594L75.1678 109.946L70.4177 109.532L73.0665 106.594Z" fill="#346902"/>
</g>
<g opacity="0.895404">
<path d="M84.9727 87.7723C81.2707 88.8803 73.7588 92.2906 70.001 102.221C67.0818 109.936 73.5605 113.491 76.0309 121.777" stroke="#FFBA00" stroke-width="6.29857"/>
</g>
<path d="M87.3363 63.5706C88.3527 61.2151 88.7712 57.8614 88.0098 53.294C87.8679 52.4417 87.6051 51.717 87.2422 51.0982" stroke="#346902" stroke-width="7.07234"/>
<path d="M76.4016 81.7805C78.5818 77.6843 79.1815 73.2351 74.4052 73.0617C73.4213 73.0259 72.5286 73.1086 71.7119 73.2868" stroke="#346902" stroke-width="3.80344"/>
<g opacity="0.971677">
<path d="M133.365 122.972C135.576 121.339 138.586 119.883 139.14 123.503C141.1 136.321 150.873 133.656 149.463 129.933C149.385 129.728 149.271 129.566 149.125 129.444" stroke="#346902" stroke-width="3.12267"/>
</g>
</g>
</g>
<mask id="mask4_570_1068" style="mask-type:luminance" maskUnits="userSpaceOnUse" x="47" y="47" width="81" height="82">
<path d="M47.0547 47.5549H127.944V128.444H47.0547V47.5549Z" fill="white"/>
</mask>
<g mask="url(#mask4_570_1068)">
<g opacity="0.214127">
<path d="M87.3421 50.4574C107.633 50.4574 124.108 66.9323 124.108 87.2234C124.108 107.515 107.633 123.989 87.3421 123.989C67.051 123.989 50.5762 107.515 50.5762 87.2234C50.5762 66.9323 67.051 50.4574 87.3421 50.4574Z" fill="#346902"/>
</g>
<g opacity="0.685543">
<path d="M87.3434 58.558C103.274 58.558 116.208 71.4924 116.208 87.4229C116.208 103.353 103.274 116.288 87.3434 116.288C71.4128 116.288 58.4785 103.353 58.4785 87.4229C58.4785 71.4924 71.4128 58.558 87.3434 58.558Z" fill="#11BF62"/>
</g>
<path d="M87.3413 59.2913C102.877 59.2913 115.491 71.9052 115.491 87.4412C115.491 102.977 102.877 115.591 87.3413 115.591C71.8054 115.591 59.1914 102.977 59.1914 87.4412C59.1914 71.9052 71.8054 59.2913 87.3413 59.2913Z" fill="#346902"/>
<path d="M74.4668 88.7087L82.6031 96.687L99.0336 79.7035" stroke="white" stroke-width="4.73958" stroke-linecap="round" stroke-linejoin="round"/>
</g>
</g>
</g>
<defs>
<clipPath id="clip0_570_1068">
<rect width="175" height="175" fill="white" transform="translate(0 0.5)"/>
</clipPath>
</defs>
</svg>
