<svg width="44" height="44" viewBox="0 0 44 44" fill="none" xmlns="http://www.w3.org/2000/svg">
<rect width="44" height="44" rx="12" fill="#F5F7F9"/>
<path d="M22.1395 22.9102C22.0579 22.8986 21.9529 22.8986 21.8595 22.9102C19.8062 22.8402 18.1729 21.1602 18.1729 19.0952C18.1729 16.9836 19.8762 15.2686 21.9995 15.2686C24.1112 15.2686 25.8262 16.9836 25.8262 19.0952C25.8145 21.1602 24.1929 22.8402 22.1395 22.9102Z" stroke="#323234" stroke-width="2" stroke-linecap="round" stroke-linejoin="round"/>
<path d="M29.8634 30.6098C27.7867 32.5115 25.0334 33.6665 22.0001 33.6665C18.9667 33.6665 16.2134 32.5115 14.1367 30.6098C14.2534 29.5132 14.9534 28.4398 16.2017 27.5998C19.3984 25.4765 24.6251 25.4765 27.7984 27.5998C29.0467 28.4398 29.7467 29.5132 29.8634 30.6098Z" stroke="#323234" stroke-width="2" stroke-linecap="round" stroke-linejoin="round"/>
<path d="M21.9997 33.6668C28.443 33.6668 33.6663 28.4435 33.6663 22.0002C33.6663 15.5568 28.443 10.3335 21.9997 10.3335C15.5564 10.3335 10.333 15.5568 10.333 22.0002C10.333 28.4435 15.5564 33.6668 21.9997 33.6668Z" stroke="#323234" stroke-width="2" stroke-linecap="round" stroke-linejoin="round"/>
</svg>
