<svg width="32" height="33" viewBox="0 0 32 33" fill="none" xmlns="http://www.w3.org/2000/svg">
<path d="M27.2001 2.26953H4.8001C3.0401 2.26953 1.6001 3.70953 1.6001 5.46953V27.8695C1.6001 29.6311 3.0401 31.0695 4.8001 31.0695H16.0001V19.8695H12.8001V15.9095H16.0001V12.6295C16.0001 9.16713 17.9393 6.73513 22.0257 6.73513L24.9105 6.73833V10.9063H22.9953C21.4049 10.9063 20.8001 12.0999 20.8001 13.2071V15.9111H24.9089L24.0001 19.8695H20.8001V31.0695H27.2001C28.9601 31.0695 30.4001 29.6311 30.4001 27.8695V5.46953C30.4001 3.70953 28.9601 2.26953 27.2001 2.26953Z" fill="#464443"/>
</svg>
