<svg width="20" height="20" viewBox="0 0 20 20" fill="none" xmlns="http://www.w3.org/2000/svg">
<path d="M10.0013 12.6875L7.04297 9.74998L7.64714 9.14582L9.58464 11.0833V3.875H10.418V11.0833L12.3555 9.14582L12.9596 9.74998L10.0013 12.6875ZM5.52214 15.8333C5.13324 15.8333 4.81047 15.705 4.5538 15.4483C4.29658 15.1911 4.16797 14.8681 4.16797 14.4791V12.5H5.0013V14.4791C5.0013 14.6181 5.05353 14.7395 5.15797 14.8433C5.26186 14.9478 5.38324 15 5.52214 15H14.4805C14.6194 15 14.7407 14.9478 14.8446 14.8433C14.9491 14.7395 15.0013 14.6181 15.0013 14.4791V12.5H15.8346V14.4791C15.8346 14.8681 15.7063 15.1911 15.4496 15.4483C15.1924 15.705 14.8694 15.8333 14.4805 15.8333H5.52214Z" fill="#131316"/>
</svg>
