<svg width="32" height="32" viewBox="0 0 32 32" fill="none" xmlns="http://www.w3.org/2000/svg">
<path d="M16 5.07324C20.5382 5.07324 24.9018 7.7382 27.9121 12.4688C28.5164 13.4177 28.834 14.6954 28.834 15.998C28.834 17.3009 28.5166 18.575 27.9131 19.5166L27.9121 19.5176C26.4013 21.888 24.56 23.7375 22.5254 25C20.4906 26.2492 18.2733 26.9131 16 26.9131C11.4613 26.913 7.09864 24.2612 4.08887 19.5186V19.5176L3.97852 19.3359C3.44563 18.4091 3.16699 17.2126 3.16699 15.9932C3.167 14.6924 3.48433 13.4179 4.08887 12.4688C5.5997 10.0983 7.44001 8.24781 9.47461 6.98535L9.47559 6.98633C11.5102 5.73723 13.7268 5.07331 16 5.07324ZM16 10.1133C12.7365 10.1135 10.1133 12.7514 10.1133 16C10.1133 19.2485 12.7366 21.8865 16 21.8867C19.2636 21.8867 21.8867 19.2486 21.8867 16C21.8867 12.7513 19.2636 10.1133 16 10.1133Z" fill="#A3A3A4" stroke="#A3A3A4"/>
<path d="M16 12.6865C17.8172 12.6865 19.3135 14.1828 19.3135 16C19.3134 17.8149 17.8194 19.2998 16 19.2998C14.1829 19.2997 12.7003 17.8171 12.7002 16C12.7002 14.1684 14.184 12.6866 16 12.6865Z" fill="#A3A3A4" stroke="#A3A3A4"/>
</svg>
