<svg width="32" height="33" viewBox="0 0 32 33" fill="none" xmlns="http://www.w3.org/2000/svg">
<path fill-rule="evenodd" clip-rule="evenodd" d="M26.0618 26.7306H21.8246V20.0992C21.8246 18.5186 21.7972 16.4844 19.6229 16.4844C17.4172 16.4844 17.0806 18.2072 17.0806 19.9866V26.7306H12.8481V13.0952H16.9098V14.9598H16.9686C17.5344 13.8872 18.9166 12.7569 20.9778 12.7569C25.2692 12.7569 26.0618 15.5798 26.0618 19.2524V26.7306ZM8.07036 11.2324C7.74749 11.2326 7.42774 11.1692 7.12939 11.0458C6.83104 10.9223 6.55994 10.7413 6.33158 10.5131C6.10323 10.2848 5.92209 10.0138 5.79854 9.71553C5.67498 9.41723 5.61142 9.09752 5.6115 8.77465C5.6115 8.12297 5.87038 7.49799 6.33118 7.03718C6.79198 6.57638 7.41697 6.3175 8.06864 6.3175C8.72032 6.3175 9.3453 6.57638 9.8061 7.03718C10.2669 7.49799 10.5258 8.12297 10.5258 8.77465C10.5259 9.42612 10.2674 10.051 9.80691 10.5119C9.34646 10.9728 8.72183 11.2319 8.07036 11.2324ZM5.94807 26.7306H10.1898V13.0952H5.94864L5.94807 26.7306ZM28.1715 2.38379H3.82178C2.65893 2.38379 1.71436 3.30607 1.71436 4.44436V28.8941C1.71436 30.0324 2.65893 30.9558 3.82178 30.9558H28.1715C29.3372 30.9558 30.2852 30.0324 30.2852 28.8941V4.44436C30.2858 3.30607 29.3366 2.38379 28.1715 2.38379Z" fill="#464443"/>
</svg>
