<svg width="28" height="33" viewBox="0 0 28 33" fill="none" xmlns="http://www.w3.org/2000/svg">
<path d="M4 2.66992C1.79375 2.66992 0 4.46367 0 6.66992V26.6699C0 28.8762 1.79375 30.6699 4 30.6699H24C26.2063 30.6699 28 28.8762 28 26.6699V6.66992C28 4.46367 26.2063 2.66992 24 2.66992H4ZM22.5688 7.91992L16.0813 15.3324L23.7125 25.4199H17.7375L13.0625 19.3012L7.70625 25.4199H4.7375L11.675 17.4887L4.35625 7.91992H10.4813L14.7125 13.5137L19.6 7.91992H22.5688ZM20.2063 23.6449L9.5875 9.60117H7.81875L18.5563 23.6449H20.2H20.2063Z" fill="#464443"/>
</svg>
