<svg width="14" height="14" viewBox="0 0 14 14" fill="none" xmlns="http://www.w3.org/2000/svg">
<g clip-path="url(#clip0_3847_895)">
<path d="M14 7C14 3.1343 10.8657 0 7 0C3.1343 0 0 3.1343 0 7C0 10.4936 2.55941 13.3897 5.90634 13.9153V9.02391H4.12853V7H5.90634V5.45746C5.90634 3.70328 6.95176 2.73365 8.55041 2.73365C9.31627 2.73365 10.1176 2.87048 10.1176 2.87048V4.59316H9.23457C8.36535 4.59316 8.09366 5.13261 8.09366 5.68682V7H10.0349L9.72479 9.02391H8.09366V13.9153C11.4406 13.3907 14 10.4946 14 7Z" fill="#1977F3"/>
<path d="M9.72468 9.02365L10.0348 6.99975H8.09354V5.68657C8.09354 5.13334 8.36425 4.59291 9.23445 4.59291H10.1175V2.87023C10.1175 2.87023 9.31616 2.7334 8.5503 2.7334C6.95165 2.7334 5.90623 3.70204 5.90623 5.45721V6.99975H4.12842V9.02365H5.90623V13.9151C6.26258 13.9712 6.62779 13.9997 6.99989 13.9997C7.37199 13.9997 7.73719 13.9702 8.09354 13.9151V9.02365H9.72468Z" fill="#FEFEFE"/>
</g>
<defs>
<clipPath id="clip0_3847_895">
<rect width="14" height="14" fill="white"/>
</clipPath>
</defs>
</svg>
