<svg width="34" height="34" viewBox="0 0 34 34" fill="none" xmlns="http://www.w3.org/2000/svg">
<path d="M16.9998 24.084H17.014M12.8915 12.7507C13.2315 11.8137 13.8899 11.0261 14.7518 10.5254C15.6136 10.0247 16.624 9.84289 17.6063 10.0117C18.5886 10.1805 19.4804 10.6891 20.1257 11.4487C20.771 12.2084 21.1288 13.1706 21.1365 14.1673C21.1365 17.0007 16.8865 18.4173 16.8865 18.4173M21.2498 2.83398H8.49984C7.74839 2.83398 7.02772 3.1325 6.49637 3.66385C5.96501 4.1952 5.6665 4.91587 5.6665 5.66732V28.334C5.6665 29.0854 5.96501 29.8061 6.49637 30.3375C7.02772 30.8688 7.74839 31.1673 8.49984 31.1673H25.4998C26.2513 31.1673 26.972 30.8688 27.5033 30.3375C28.0347 29.8061 28.3332 29.0854 28.3332 28.334V9.91732L21.2498 2.83398Z" stroke="#323234" stroke-width="2" stroke-linecap="round" stroke-linejoin="round"/>
</svg>
