<svg width="18" height="18" viewBox="0 0 18 18" fill="none" xmlns="http://www.w3.org/2000/svg">
<g clip-path="url(#clip0_3815_6922)">
<path d="M3.98916 10.8779L3.36261 13.2169L1.07258 13.2654C0.388194 11.996 0 10.5437 0 9.00033C0 7.50791 0.362952 6.10055 1.00631 4.86133H1.0068L3.04557 5.23511L3.93868 7.26165C3.75175 7.8066 3.64987 8.3916 3.64987 9.00033C3.64994 9.66098 3.76961 10.294 3.98916 10.8779Z" fill="#FBBB00"/>
<path d="M17.8441 7.31836C17.9474 7.86279 18.0013 8.42504 18.0013 8.99966C18.0013 9.64401 17.9336 10.2725 17.8045 10.8788C17.3664 12.9419 16.2216 14.7433 14.6358 16.0182L14.6353 16.0177L12.0673 15.8866L11.7039 13.6178C12.7562 13.0007 13.5785 12.0349 14.0117 10.8788H9.19922V7.31836H14.0819H17.8441Z" fill="#518EF8"/>
<path d="M14.6355 16.0173L14.636 16.0178C13.0936 17.2575 11.1344 17.9993 9.0016 17.9993C5.5742 17.9993 2.59433 16.0836 1.07422 13.2644L3.9908 10.877C4.75084 12.9054 6.7076 14.3494 9.0016 14.3494C9.98763 14.3494 10.9114 14.0828 11.7041 13.6175L14.6355 16.0173Z" fill="#28B446"/>
<path d="M14.7461 2.07196L11.8305 4.45892C11.0101 3.94613 10.0404 3.64991 9.00147 3.64991C6.65553 3.64991 4.66218 5.16011 3.94022 7.26128L1.0083 4.86096H1.00781C2.50567 1.97307 5.52312 0 9.00147 0C11.1852 0 13.1874 0.777864 14.7461 2.07196Z" fill="#F14336"/>
</g>
<defs>
<clipPath id="clip0_3815_6922">
<rect width="18" height="18" fill="white"/>
</clipPath>
</defs>
</svg>
