<svg width="24" height="25" viewBox="0 0 24 25" fill="none" xmlns="http://www.w3.org/2000/svg">
<g clip-path="url(#clip0_2107_35023)">
<g clip-path="url(#clip1_2107_35023)">
<path d="M14.0863 8.9945L4.59377 3.5691C4.47449 3.49984 4.32443 3.50369 4.20899 3.57295C4.08971 3.64221 4.0166 3.76534 4.0166 3.90386C4.0166 3.90386 4.02045 4.40408 4.0243 5.22751L10.9388 12.142L14.0863 8.9945Z" fill="url(#paint0_linear_2107_35023)"/>
<path d="M4.02441 5.22754C4.03596 8.19801 4.07059 15.4087 4.08598 18.9987L10.9428 12.142L4.02441 5.22754Z" fill="url(#paint1_linear_2107_35023)"/>
<path d="M19.519 12.0998L14.0859 8.99463L10.9346 12.1421L14.4899 15.6974L19.5229 12.7654C19.6421 12.6962 19.7152 12.5692 19.7152 12.4345C19.7152 12.296 19.6383 12.169 19.519 12.0998Z" fill="url(#paint2_linear_2107_35023)"/>
<path d="M4.08203 18.9988C4.08973 20.2801 4.09357 21.0997 4.09357 21.0997C4.09357 21.2382 4.16668 21.3652 4.28596 21.4306C4.40525 21.4999 4.55146 21.4999 4.67074 21.4306L14.4942 15.7013L10.9388 12.146L4.08203 18.9988Z" fill="url(#paint3_linear_2107_35023)"/>
</g>
</g>
<defs>
<linearGradient id="paint0_linear_2107_35023" x1="4.0166" y1="7.83223" x2="14.0881" y2="7.83223" gradientUnits="userSpaceOnUse">
<stop stop-color="#63BE6B"/>
<stop offset="0.506" stop-color="#5BBC6A"/>
<stop offset="1" stop-color="#4AB96A"/>
</linearGradient>
<linearGradient id="paint1_linear_2107_35023" x1="4.02257" y1="12.1148" x2="10.9388" y2="12.1148" gradientUnits="userSpaceOnUse">
<stop stop-color="#3EC6F2"/>
<stop offset="1" stop-color="#45AFE3"/>
</linearGradient>
<linearGradient id="paint2_linear_2107_35023" x1="10.9383" y1="12.3485" x2="19.7143" y2="12.3485" gradientUnits="userSpaceOnUse">
<stop stop-color="#FAA51A"/>
<stop offset="0.387" stop-color="#FAB716"/>
<stop offset="0.741" stop-color="#FAC412"/>
<stop offset="1" stop-color="#FAC80F"/>
</linearGradient>
<linearGradient id="paint3_linear_2107_35023" x1="4.08372" y1="16.8141" x2="14.494" y2="16.8141" gradientUnits="userSpaceOnUse">
<stop stop-color="#EC3B50"/>
<stop offset="1" stop-color="#E7515B"/>
</linearGradient>
<clipPath id="clip0_2107_35023">
<rect width="18" height="18" fill="white" transform="translate(3 3.5)"/>
</clipPath>
<clipPath id="clip1_2107_35023">
<rect width="15.732" height="18" fill="white" transform="translate(4 3.5)"/>
</clipPath>
</defs>
</svg>
