<svg width="32" height="33" viewBox="0 0 32 33" fill="none" xmlns="http://www.w3.org/2000/svg">
<rect y="0.5" width="32" height="32" rx="16" fill="#346902"/>
<g clip-path="url(#clip0_2246_36940)">
<path d="M12.6667 15.1673V13.1673C12.6667 12.2833 13.0179 11.4354 13.643 10.8103C14.2681 10.1852 15.1159 9.83398 16 9.83398C16.8841 9.83398 17.7319 10.1852 18.357 10.8103C18.9821 11.4354 19.3333 12.2833 19.3333 13.1673V15.1673M16.6667 19.1673C16.6667 19.5355 16.3682 19.834 16 19.834C15.6318 19.834 15.3333 19.5355 15.3333 19.1673C15.3333 18.7991 15.6318 18.5007 16 18.5007C16.3682 18.5007 16.6667 18.7991 16.6667 19.1673ZM11.3333 15.1673H20.6667C21.403 15.1673 22 15.7643 22 16.5007V21.834C22 22.5704 21.403 23.1673 20.6667 23.1673H11.3333C10.597 23.1673 10 22.5704 10 21.834V16.5007C10 15.7643 10.597 15.1673 11.3333 15.1673Z" stroke="white" stroke-width="2" stroke-linecap="round" stroke-linejoin="round"/>
</g>
<defs>
<clipPath id="clip0_2246_36940">
<rect width="16" height="16" fill="white" transform="translate(8 8.5)"/>
</clipPath>
</defs>
</svg>
