<svg width="15" height="15" viewBox="0 0 15 15" fill="none" xmlns="http://www.w3.org/2000/svg">
<path d="M0.560059 6.55859C0.560059 4.4584 0.560059 3.4083 0.968784 2.60613C1.32831 1.90052 1.90199 1.32684 2.60759 0.967319C3.40976 0.558594 4.45986 0.558594 6.56006 0.558594H8.45173C10.5519 0.558594 11.602 0.558594 12.4042 0.967319C13.1098 1.32684 13.6835 1.90052 14.043 2.60613C14.4517 3.4083 14.4517 4.4584 14.4517 6.55859V8.45026C14.4517 10.5505 14.4517 11.6006 14.043 12.4027C13.6835 13.1083 13.1098 13.682 12.4042 14.0415C11.602 14.4503 10.5519 14.4503 8.45173 14.4503H6.56006C4.45986 14.4503 3.40976 14.4503 2.60759 14.0415C1.90199 13.682 1.32831 13.1083 0.968784 12.4027C0.560059 11.6006 0.560059 10.5505 0.560059 8.45026V6.55859Z" fill="url(#paint0_radial_3847_10120)"/>
<path d="M0.560059 6.55859C0.560059 4.4584 0.560059 3.4083 0.968784 2.60613C1.32831 1.90052 1.90199 1.32684 2.60759 0.967319C3.40976 0.558594 4.45986 0.558594 6.56006 0.558594H8.45173C10.5519 0.558594 11.602 0.558594 12.4042 0.967319C13.1098 1.32684 13.6835 1.90052 14.043 2.60613C14.4517 3.4083 14.4517 4.4584 14.4517 6.55859V8.45026C14.4517 10.5505 14.4517 11.6006 14.043 12.4027C13.6835 13.1083 13.1098 13.682 12.4042 14.0415C11.602 14.4503 10.5519 14.4503 8.45173 14.4503H6.56006C4.45986 14.4503 3.40976 14.4503 2.60759 14.0415C1.90199 13.682 1.32831 13.1083 0.968784 12.4027C0.560059 11.6006 0.560059 10.5505 0.560059 8.45026V6.55859Z" fill="url(#paint1_radial_3847_10120)"/>
<path d="M7.50024 2.63867C6.18003 2.63867 6.01434 2.64444 5.49582 2.66804C4.97831 2.69174 4.62506 2.77367 4.31598 2.89388C3.99625 3.01804 3.72504 3.18413 3.45484 3.45443C3.18444 3.72462 3.01835 3.99583 2.89378 4.31545C2.77327 4.62464 2.69123 4.97798 2.66794 5.49528C2.64475 6.0138 2.63867 6.17959 2.63867 7.49978C2.63867 8.81998 2.64455 8.98516 2.66804 9.50368C2.69184 10.0212 2.77377 10.3744 2.89388 10.6835C3.01815 11.0032 3.18424 11.2744 3.45454 11.5446C3.72464 11.815 3.99585 11.9815 4.31537 12.1057C4.62466 12.2259 4.97801 12.3078 5.49542 12.3315C6.01394 12.3551 6.17952 12.3609 7.49963 12.3609C8.81995 12.3609 8.98512 12.3551 9.50365 12.3315C10.0212 12.3078 10.3748 12.2259 10.6841 12.1057C11.0037 11.9815 11.2745 11.815 11.5446 11.5446C11.815 11.2744 11.9811 11.0032 12.1057 10.6836C12.2252 10.3744 12.3072 10.0211 12.3315 9.50378C12.3548 8.98526 12.3609 8.81998 12.3609 7.49978C12.3609 6.17959 12.3548 6.0139 12.3315 5.49539C12.3072 4.97788 12.2252 4.62464 12.1057 4.31555C11.9811 3.99583 11.815 3.72462 11.5446 3.45443C11.2742 3.18403 11.0038 3.01794 10.6838 2.89388C10.3739 2.77367 10.0204 2.69174 9.50294 2.66804C8.98441 2.64444 8.81934 2.63867 7.49872 2.63867H7.50024ZM7.06415 3.51468C7.19358 3.51448 7.338 3.51468 7.50024 3.51468C8.79817 3.51468 8.95201 3.51934 9.46456 3.54264C9.93852 3.56431 10.1958 3.6435 10.3671 3.71004C10.594 3.79815 10.7557 3.90347 10.9257 4.07361C11.0959 4.24375 11.2012 4.40579 11.2895 4.63264C11.3561 4.80379 11.4354 5.06102 11.4569 5.53498C11.4802 6.04742 11.4853 6.20136 11.4853 7.49867C11.4853 8.79598 11.4802 8.94991 11.4569 9.46236C11.4353 9.93631 11.3561 10.1935 11.2895 10.3647C11.2014 10.5916 11.0959 10.7531 10.9257 10.9231C10.7556 11.0933 10.5941 11.1986 10.3671 11.2867C10.196 11.3535 9.93852 11.4325 9.46456 11.4542C8.95211 11.4775 8.79817 11.4826 7.50024 11.4826C6.20221 11.4826 6.04837 11.4775 5.53593 11.4542C5.06196 11.4323 4.80473 11.3531 4.63327 11.2866C4.40641 11.1985 4.24437 11.0932 4.07423 10.923C3.90409 10.7529 3.79877 10.5912 3.71046 10.3643C3.64392 10.1931 3.56462 9.93591 3.54305 9.46195C3.51976 8.94951 3.5151 8.79557 3.5151 7.49745C3.5151 6.19933 3.51976 6.04621 3.54305 5.53377C3.56472 5.05981 3.64392 4.80258 3.71046 4.63122C3.79857 4.40437 3.90409 4.24233 4.07423 4.07219C4.24437 3.90205 4.40641 3.79673 4.63327 3.70842C4.80462 3.64158 5.06196 3.56259 5.53593 3.54081C5.98437 3.52056 6.15815 3.51448 7.06415 3.51347V3.51468ZM10.0951 4.32183C9.77304 4.32183 9.51175 4.58281 9.51175 4.90496C9.51175 5.22701 9.77304 5.4883 10.0951 5.4883C10.4171 5.4883 10.6784 5.22701 10.6784 4.90496C10.6784 4.58291 10.4171 4.32163 10.0951 4.32163V4.32183ZM7.50024 5.0034C6.12159 5.0034 5.00383 6.12115 5.00383 7.49978C5.00383 8.87841 6.12159 9.99566 7.50024 9.99566C8.87889 9.99566 9.99625 8.87841 9.99625 7.49978C9.99625 6.12115 8.87879 5.0034 7.50014 5.0034H7.50024ZM7.50024 5.87941C8.3951 5.87941 9.12063 6.60483 9.12063 7.49978C9.12063 8.39463 8.3951 9.12015 7.50024 9.12015C6.60528 9.12015 5.87985 8.39463 5.87985 7.49978C5.87985 6.60483 6.60528 5.87941 7.50024 5.87941V5.87941Z" fill="white"/>
<defs>
<radialGradient id="paint0_radial_3847_10120" cx="0" cy="0" r="1" gradientUnits="userSpaceOnUse" gradientTransform="translate(4.25005 15.5202) rotate(-90) scale(13.7677 12.805)">
<stop stop-color="#FFDD55"/>
<stop offset="0.1" stop-color="#FFDD55"/>
<stop offset="0.5" stop-color="#FF543E"/>
<stop offset="1" stop-color="#C837AB"/>
</radialGradient>
<radialGradient id="paint1_radial_3847_10120" cx="0" cy="0" r="1" gradientTransform="matrix(1.20793 6.0345 -24.8739 4.98183 -1.76687 1.55933)" gradientUnits="userSpaceOnUse">
<stop stop-color="#3771C8"/>
<stop offset="0.128" stop-color="#3771C8"/>
<stop offset="1" stop-color="#6600FF" stop-opacity="0"/>
</radialGradient>
</defs>
</svg>
