<svg width="32" height="32" viewBox="0 0 32 32" fill="none" xmlns="http://www.w3.org/2000/svg">
<path d="M16.8135 3.66309C17.3052 3.48933 17.8422 3.46368 18.3184 3.6416L18.3262 3.64453L18.334 3.64648C19.4127 4.00986 20.1212 5.23659 19.8975 6.28125L19.8945 6.29492L19.8926 6.30762L19.1992 10.668L19.1973 10.6807C19.1264 11.2134 19.2699 11.7114 19.585 12.1006L19.6006 12.1201C19.9179 12.4746 20.3852 12.6992 20.8936 12.6992H26.373C27.2348 12.6992 27.9412 13.0245 28.376 13.5547L28.46 13.6641C28.8567 14.2303 28.9494 14.9879 28.6611 15.8066L28.6582 15.8174L25.3779 25.8037L25.3721 25.8213L25.3682 25.8379C25.0145 27.2525 23.4276 28.4598 21.8535 28.46H16.6533C16.2574 28.46 15.7688 28.3909 15.3164 28.2559C14.854 28.1178 14.4889 27.9281 14.2871 27.7266L14.2646 27.7031L14.2393 27.6846L12.5322 26.3643L12.5273 26.3604C12.0018 25.9633 11.6866 25.3258 11.6865 24.6533V11.1064C11.6865 10.6731 11.8166 10.2494 12.0557 9.89062L12.0547 9.88965L15.6943 4.47852L15.6973 4.47559C15.9139 4.14817 16.3174 3.83842 16.8135 3.66309Z" fill="#A3A3A4" stroke="#A3A3A4"/>
<path d="M5.57324 9.00684H6.94727C7.9342 9.00687 8.50087 9.20165 8.83008 9.51562C9.15343 9.82406 9.35352 10.3501 9.35352 11.2803V24.6934C9.35352 25.6235 9.15342 26.1496 8.83008 26.458C8.50087 26.772 7.9342 26.9668 6.94727 26.9668H5.57324C4.5864 26.9667 4.01962 26.772 3.69043 26.458C3.36714 26.1496 3.16699 25.6235 3.16699 24.6934V11.2803C3.16699 10.3502 3.36713 9.82407 3.69043 9.51562C4.01962 9.20166 4.5864 9.00689 5.57324 9.00684Z" fill="#A3A3A4" stroke="#A3A3A4"/>
</svg>
