<svg width="24" height="32" viewBox="0 0 24 32" fill="none" xmlns="http://www.w3.org/2000/svg">
<path d="M23.696 28.5597L23.1979 27.7271H23.1968L22.6191 26.7783L18.2852 19.656C19.8638 18.2072 21.0451 16.2552 21.5572 13.9593C22.8641 8.09523 19.361 2.23925 13.73 0.878176C12.8309 0.66075 11.9323 0.570873 11.0517 0.597244C10.9861 0.599397 10.9205 0.602087 10.8548 0.605855C10.8099 0.606931 10.7649 0.609622 10.7205 0.612851C10.7009 0.613928 10.6802 0.616618 10.6606 0.617695C10.6042 0.619848 10.5489 0.624691 10.4926 0.629535C10.3117 0.646219 10.1314 0.66667 9.95312 0.691964C9.88646 0.701652 9.82084 0.711339 9.75521 0.722103C9.6746 0.735557 9.59398 0.74955 9.51337 0.764081C9.50097 0.767848 9.48805 0.770001 9.47565 0.771078C9.30771 0.803369 9.1408 0.840503 8.97647 0.880329C8.96975 0.882482 8.96252 0.884096 8.9558 0.885173C8.87622 0.905624 8.79819 0.926075 8.72016 0.947602C8.54964 0.993348 8.3817 1.0434 8.2153 1.09991C8.08973 1.14189 7.96571 1.18494 7.84118 1.23069C7.71819 1.27643 7.5952 1.32541 7.47429 1.37707C7.39264 1.41044 7.31099 1.44542 7.23038 1.48256C7.22005 1.48633 7.21074 1.49117 7.20144 1.49547C4.26528 2.82264 1.95025 5.53294 1.17152 9.0306C0.0119344 14.2359 2.64425 19.4364 7.19111 21.489C7.76418 21.749 8.36826 21.9578 8.99869 22.1096C9.68442 22.2748 10.3691 22.3657 11.0455 22.3878C11.0672 22.3889 11.0879 22.3889 11.1086 22.3889C11.1913 22.3927 11.2729 22.3937 11.3561 22.3937C11.4491 22.3937 11.5426 22.3927 11.6346 22.39C11.7716 22.3862 11.9075 22.3803 12.0418 22.3706C12.3147 22.3528 12.586 22.3227 12.8541 22.2818C12.9694 22.2651 13.0841 22.2447 13.1983 22.2231C13.8277 22.1058 14.4421 21.9298 15.0343 21.6973L19.3972 28.8676L19.9403 29.7615L20.4741 30.6506C20.8146 31.221 21.812 31.2162 22.7039 30.6387C23.5942 30.0602 24.0371 29.1302 23.6965 28.5597H23.696ZM11.5096 19.1915C11.4403 19.1915 11.3726 19.1905 11.3034 19.1878C11.2341 19.1867 11.1644 19.1829 11.0951 19.1792C11.0538 19.177 11.0109 19.1732 10.9696 19.1695C10.5944 19.142 10.2172 19.0817 9.83841 18.9908C8.85452 18.7534 7.96313 18.3197 7.19214 17.74V17.739C7.07381 17.6502 6.95857 17.5581 6.84695 17.4623C6.79063 17.4155 6.7343 17.3665 6.68005 17.316C6.57049 17.2175 6.46508 17.1157 6.36121 17.0092C6.25786 16.9048 6.15761 16.7971 6.06098 16.6857C6.01137 16.6308 5.96435 16.5743 5.91836 16.5168C5.91629 16.513 5.91267 16.5098 5.90906 16.506C5.86513 16.4532 5.82173 16.3994 5.78039 16.344C5.7344 16.2864 5.69047 16.2277 5.6481 16.168C5.60314 16.1083 5.56077 16.048 5.52046 15.9872C5.47809 15.9258 5.43623 15.865 5.39748 15.8026C5.31583 15.6777 5.23987 15.5523 5.16752 15.4226C5.13755 15.3688 5.10758 15.315 5.07761 15.2596C5.06728 15.2402 5.05591 15.2203 5.04557 15.1998C5.01663 15.1433 4.98821 15.0873 4.95928 15.0308C4.92569 14.9635 4.89365 14.8968 4.86368 14.8295C4.83474 14.7671 4.80735 14.7047 4.77945 14.6428C4.77841 14.6369 4.77583 14.631 4.77273 14.6261C4.74379 14.5578 4.7164 14.4883 4.6885 14.4189C4.63321 14.2801 4.58257 14.1396 4.53658 13.997C4.51332 13.9265 4.49059 13.8544 4.46992 13.7822C4.43633 13.6708 4.40532 13.5594 4.37793 13.4453C4.37432 13.4297 4.36967 13.413 4.36657 13.3974C4.3583 13.3689 4.35158 13.3398 4.3459 13.3097C4.34383 13.3038 4.34228 13.2968 4.34125 13.2903C4.31386 13.1703 4.28957 13.0492 4.26787 12.9271C4.25185 12.8393 4.2379 12.7511 4.22394 12.6623C4.21464 12.5918 4.20534 12.5218 4.19759 12.4513C4.18932 12.384 4.1826 12.3173 4.17589 12.25C4.17485 12.2285 4.17227 12.2059 4.1702 12.1827C4.16555 12.1203 4.1609 12.0568 4.1578 11.9944C4.15315 11.9201 4.14953 11.8458 4.14747 11.7705V11.7597C4.1454 11.6844 4.14385 11.6085 4.14385 11.5332C4.14385 10.9595 4.20586 10.3766 4.33608 9.79321C4.36243 9.67588 4.39137 9.55964 4.42237 9.44446C4.43736 9.38688 4.45338 9.33037 4.47095 9.27332C4.49834 9.17645 4.52986 9.08065 4.5619 8.98593C4.57585 8.94288 4.59083 8.89982 4.60582 8.85784C4.68282 8.63988 4.76911 8.42622 4.86471 8.22063C4.88641 8.17273 4.90863 8.12484 4.9324 8.07694C4.94842 8.04357 4.96444 8.00966 4.98098 7.97737C5.00527 7.92947 5.02955 7.88158 5.05591 7.83368C5.06624 7.81323 5.07658 7.79277 5.08691 7.77394C5.11017 7.73196 5.1329 7.68998 5.15616 7.64908C5.32772 7.34339 5.5184 7.05331 5.72665 6.77937C5.74835 6.75085 5.77057 6.72286 5.79227 6.69434C5.88064 6.58025 5.97417 6.46776 6.06822 6.36013C6.09354 6.33268 6.11782 6.30523 6.14314 6.27725C6.2651 6.14162 6.39067 6.01246 6.52192 5.8876C6.55086 5.86015 6.57928 5.83271 6.60925 5.80472C6.65989 5.7579 6.71053 5.71269 6.76117 5.66802C6.82577 5.61044 6.89243 5.55554 6.95909 5.50011C7.03867 5.43553 7.11773 5.3731 7.19938 5.31174C8.29333 4.48993 9.6007 3.98296 10.9789 3.88125C11.0765 3.87425 11.1757 3.86941 11.2744 3.86564C11.3044 3.86456 11.3344 3.86456 11.3654 3.86349C11.9581 3.85272 12.5632 3.91623 13.1673 4.06262C17.1261 5.01897 19.5894 9.13608 18.6712 13.2591C17.8821 16.7988 14.856 19.1905 11.5101 19.1905L11.5096 19.1915Z" fill="#346902"/>
<path d="M10.9688 19.1713V19.1723C11.0101 19.1761 11.0514 19.1783 11.0943 19.1809C11.053 19.1788 11.0101 19.175 10.9688 19.1713ZM16.6432 7.84408C15.7874 6.28496 14.0015 5.32538 12.6807 5.18276C12.5288 5.16607 12.3919 5.28125 12.3759 5.44055C12.3609 5.59878 12.4715 5.74139 12.6234 5.757C13.7752 5.88186 15.4066 6.75641 16.161 8.13093C16.2127 8.22458 16.3062 8.27732 16.4029 8.27732C16.4489 8.27732 16.4974 8.26548 16.5398 8.23911C16.6731 8.16 16.7191 7.98401 16.6432 7.84462V7.84408ZM17.1253 9.03885C17.056 8.89731 16.8896 8.83972 16.7527 8.91184C16.6158 8.98396 16.5605 9.15725 16.6297 9.29987C16.7827 9.61363 17.0519 10.3461 17.0989 11.0915C17.1082 11.2449 17.2302 11.3622 17.3749 11.3622C17.3806 11.3622 17.3873 11.3611 17.3935 11.3611C17.5464 11.3504 17.6627 11.2137 17.6524 11.0544C17.6038 10.2708 17.3382 9.47855 17.1253 9.03885Z" fill="#346902"/>
<path d="M23.6936 28.5602L23.1955 27.7276H23.1944L22.6167 26.7788L18.2828 19.6565C19.8614 18.2077 21.0427 16.2557 21.5548 13.9598C22.8617 8.09572 19.3586 2.23973 13.7276 0.878665C12.8285 0.661238 11.9299 0.571361 11.0493 0.597732C10.9837 0.599885 10.9181 0.602576 10.8524 0.606343C10.8075 0.607419 10.7625 0.61011 10.7181 0.613339C10.6985 0.614416 10.6778 0.617107 10.6581 0.618183C10.6018 0.620336 10.5465 0.62518 10.4902 0.630023C10.3093 0.646707 10.129 0.667158 9.95072 0.692453C9.88406 0.70214 9.81843 0.711827 9.75281 0.722591C9.67219 0.736046 9.59158 0.750038 9.51097 0.764569C9.49857 0.768337 9.48565 0.770489 9.47325 0.771566C9.3053 0.803857 9.13839 0.840992 8.97407 0.880817C8.96735 0.88297 8.96011 0.884585 8.9534 0.885661C8.87382 0.906112 8.79579 0.926563 8.71776 0.94809C8.54723 0.994912 8.37929 1.04496 8.2129 1.1004C8.08733 1.14238 7.96331 1.18543 7.83877 1.23118C7.71579 1.278 7.5928 1.32697 7.47188 1.37756C7.39127 1.41254 7.31066 1.44699 7.23004 1.48305C7.21971 1.48681 7.20937 1.49166 7.19904 1.49758L7.19697 5.31546L7.19129 17.7416V17.7427L7.18922 21.4906L7.18457 30.2345C7.18457 30.7124 7.55715 31.102 8.01653 31.102H10.1311C10.5899 31.102 10.963 30.714 10.963 30.2356L10.9677 22.3872C10.993 22.3883 11.0183 22.3894 11.0436 22.3894C11.0653 22.3904 11.086 22.3904 11.1067 22.3904C11.1894 22.3942 11.271 22.3953 11.3542 22.3953C11.4472 22.3953 11.5408 22.3942 11.6327 22.3915C11.7697 22.3878 11.9056 22.3818 12.0399 22.3722C12.3128 22.3544 12.5841 22.3243 12.8523 22.2833C12.9675 22.2667 13.0822 22.2462 13.1964 22.2247C13.8258 22.1074 14.4402 21.9314 15.0324 21.6989L19.3953 28.8691L19.9384 29.763L20.4722 30.6521C20.8128 31.2226 21.8101 31.2178 22.702 30.6403C23.5923 30.0617 24.0352 29.1318 23.6947 28.5613L23.6936 28.5602ZM11.5072 19.192C11.4379 19.192 11.3702 19.1909 11.301 19.1882C11.2317 19.1872 11.162 19.1845 11.0927 19.1796C11.0504 19.1775 11.0085 19.1748 10.9672 19.171V19.17L10.9754 3.88281C11.0731 3.87582 11.1723 3.87097 11.271 3.8672C11.301 3.86613 11.331 3.86613 11.362 3.86505C11.9547 3.85429 12.5598 3.91779 13.1639 4.06418C17.1227 5.02053 19.586 9.13765 18.6677 13.2607C17.8787 16.8003 14.8526 19.192 11.5066 19.192H11.5072Z" fill="#346902"/>
<path d="M7.22551 1.48242C7.21674 1.48549 7.20798 1.48943 7.19922 1.49425V1.48242H7.22551Z" fill="#346902"/>
<path d="M16.5403 8.23813C16.4979 8.2645 16.4494 8.27634 16.4034 8.27634C16.3067 8.27634 16.2137 8.2236 16.1615 8.12996C15.4066 6.75543 13.7752 5.88088 12.6239 5.75603C12.472 5.74042 12.3614 5.5978 12.3764 5.43957C12.3924 5.28027 12.5293 5.1651 12.6812 5.18178C14.002 5.3244 15.7874 6.28398 16.6437 7.84311C16.7196 7.98196 16.6736 8.15848 16.5403 8.2376V8.23813Z" fill="#346902"/>
<path d="M17.6521 11.0545C17.6625 11.2138 17.5462 11.3505 17.3932 11.3613C17.3875 11.3613 17.3808 11.3624 17.3746 11.3624C17.2294 11.3624 17.1075 11.245 17.0987 11.0916C17.0517 10.3463 16.7824 9.61433 16.6295 9.30003C16.5602 9.15741 16.6155 8.98357 16.7525 8.912C16.8894 8.83988 17.0563 8.89747 17.125 9.03901C17.3379 9.4787 17.6035 10.2709 17.6521 11.0545Z" fill="#346902"/>
</svg>
