<svg width="33" height="32" viewBox="0 0 33 32" fill="none" xmlns="http://www.w3.org/2000/svg">
<path d="M9.66699 3.16699H23C26.4057 3.16699 29.1668 5.91823 29.167 9.30664V18.6133C29.167 22.0019 26.4058 24.7539 23 24.7539H21C20.428 24.7539 19.8816 25.0285 19.5352 25.4844L19.5342 25.4863L17.5342 28.1396L17.5332 28.1406C17.1738 28.6197 16.7338 28.8203 16.333 28.8203C15.9324 28.8202 15.4931 28.6195 15.1338 28.1406L15.1328 28.1396L13.1328 25.4863L13.1289 25.4814L12.9883 25.3242C12.8363 25.1754 12.6543 25.0532 12.4736 24.9629C12.2339 24.843 11.9466 24.754 11.667 24.7539H9.66699C6.26118 24.7539 3.5 22.0019 3.5 18.6133V9.30664C3.50019 6.02403 6.09126 3.33924 9.34961 3.1748L9.66699 3.16699ZM9.66699 15.834C8.84418 15.834 8.16699 16.5112 8.16699 17.334C8.16717 18.1566 8.84429 18.834 9.66699 18.834H17.667C18.4895 18.8338 19.1668 18.1565 19.167 17.334C19.167 16.5113 18.4897 15.8342 17.667 15.834H9.66699ZM9.66699 9.16699C8.84418 9.16699 8.16699 9.84418 8.16699 10.667C8.16699 11.4898 8.84418 12.167 9.66699 12.167H23C23.8228 12.167 24.5 11.4898 24.5 10.667C24.5 9.84418 23.8228 9.16699 23 9.16699H9.66699Z" fill="#A3A3A4" stroke="#A3A3A4"/>
</svg>
