<svg width="18" height="18" viewBox="0 0 18 18" fill="none" xmlns="http://www.w3.org/2000/svg">
<g clip-path="url(#clip0_3815_9746)">
<path d="M14.1956 1.40129C13.3651 0.454665 11.8638 0.0488281 9.94326 0.0488281H4.3692C3.97626 0.0488281 3.64236 0.334601 3.58084 0.722081L1.25993 15.4419C1.21379 15.7321 1.43854 15.995 1.73275 15.995H5.17393L6.03819 10.5133L6.0114 10.6849C6.07292 10.2975 6.40434 10.0117 6.79678 10.0117H8.43203C11.6445 10.0117 14.1599 8.70685 14.8947 4.93227C14.9165 4.82064 14.9353 4.71198 14.9517 4.60581C14.8589 4.55669 14.8589 4.55669 14.9517 4.60581C15.1705 3.21069 14.9502 2.26109 14.1956 1.40129Z" fill="#27346A"/>
<path d="M7.35493 4.10323C7.44671 4.05957 7.54892 4.03526 7.65608 4.03526H12.026C12.5435 4.03526 13.0262 4.069 13.4673 4.13994C13.5938 4.16028 13.7163 4.1836 13.8354 4.21039C13.9545 4.23669 14.0701 4.26646 14.1822 4.2992C14.2383 4.31557 14.2934 4.33244 14.3474 4.3503C14.5642 4.42274 14.7662 4.50708 14.9517 4.60581C15.1705 3.21019 14.9502 2.26109 14.1956 1.40129C13.3646 0.454665 11.8638 0.0488281 9.94326 0.0488281H4.3687C3.97626 0.0488281 3.64236 0.334601 3.58084 0.722081L1.25993 15.4414C1.21379 15.7321 1.43854 15.9946 1.73225 15.9946H5.17393L6.96695 4.62417C7.00367 4.39099 7.1535 4.19998 7.35493 4.10323Z" fill="#27346A"/>
<path d="M14.8933 4.93192C14.1585 8.70601 11.6431 10.0113 8.43067 10.0113H6.79492C6.40248 10.0113 6.07106 10.2971 6.01004 10.6846L4.93492 17.5005C4.89473 17.7545 5.0912 17.9847 5.3482 17.9847H8.24909C8.59241 17.9847 8.88464 17.7346 8.93822 17.3958L8.9665 17.2479L9.51324 13.7829L9.54846 13.5914C9.60204 13.2526 9.89427 13.0025 10.2376 13.0025H10.6717C13.4818 13.0025 15.6822 11.8609 16.3251 8.55915C16.5936 7.17941 16.4546 6.02739 15.7447 5.21819C15.5293 4.9731 15.2619 4.77068 14.9504 4.60547C14.9335 4.71214 14.9151 4.82029 14.8933 4.93192Z" fill="#2790C3"/>
<path d="M14.1825 4.2991C14.0704 4.26635 13.9548 4.23659 13.8357 4.21029C13.7167 4.184 13.5936 4.16068 13.4676 4.14034C13.0261 4.06889 12.5438 4.03516 12.0258 4.03516H7.6564C7.54874 4.03516 7.44654 4.05947 7.35525 4.10362C7.15332 4.20037 7.00399 4.39088 6.96727 4.62456L6.03851 10.5132L6.01172 10.6848C6.07274 10.2973 6.40416 10.0116 6.7966 10.0116H8.43235C11.6448 10.0116 14.1602 8.70675 14.895 4.93217C14.9168 4.82054 14.9352 4.71238 14.952 4.60571C14.766 4.50748 14.5646 4.42264 14.3477 4.3507C14.2937 4.33284 14.2386 4.31547 14.1825 4.2991Z" fill="#1F264F"/>
</g>
<defs>
<clipPath id="clip0_3815_9746">
<rect width="15.2583" height="18" fill="white" transform="translate(1.25)"/>
</clipPath>
</defs>
</svg>
