<svg width="58" height="58" viewBox="0 0 58 58" fill="none" xmlns="http://www.w3.org/2000/svg">
<path d="M43.6818 3.75586L53.7666 14.2684V54.2449H16.0938V54.3754H53.8953V14.4007L43.6818 3.75586Z" fill="#909090"/>
<path d="M43.5565 3.625H15.9648V54.2445H53.7663V14.2698L43.5565 3.625Z" fill="#F4F4F4"/>
<path d="M15.6873 6.34375H4.10547V18.7177H40.5367V6.34375H15.6873Z" fill="#7A7B7C"/>
<path d="M40.7314 18.507H4.3418V6.12402H40.7314V18.507Z" fill="#DD2025"/>
<path d="M16.406 8.21787H14.0371V16.9179H15.9004V13.9834L16.3118 14.007C16.7116 14.0001 17.1076 13.9285 17.4845 13.7949C17.8149 13.6813 18.1189 13.5019 18.378 13.2675C18.6418 13.0442 18.8497 12.7625 18.9852 12.4446C19.167 11.9163 19.232 11.3548 19.1755 10.7989C19.1642 10.4018 19.0946 10.0085 18.9689 9.63162C18.8545 9.35958 18.6847 9.11434 18.4703 8.9115C18.2559 8.70867 18.0017 8.55269 17.7237 8.4535C17.4834 8.3665 17.2351 8.30336 16.9824 8.265C16.7911 8.23547 16.5978 8.21973 16.4042 8.21787M16.0617 12.3757H15.9004V9.69325H16.2502C16.4046 9.68212 16.5595 9.70582 16.7035 9.7626C16.8475 9.81938 16.9769 9.9078 17.0821 10.0213C17.3002 10.3132 17.4167 10.6684 17.4138 11.0327C17.4138 11.4786 17.4138 11.8827 17.0114 12.1673C16.7215 12.3267 16.3916 12.4003 16.0617 12.3757ZM22.7154 8.19431C22.5142 8.19431 22.3184 8.20881 22.1807 8.21425L21.7493 8.22512H20.3355V16.9251H21.9994C22.6353 16.9426 23.2684 16.8348 23.8627 16.6079C24.341 16.4182 24.7646 16.1124 25.0952 15.718C25.4166 15.3201 25.6474 14.8568 25.7712 14.3604C25.9136 13.7983 25.9831 13.2202 25.9779 12.6404C26.013 11.9555 25.96 11.269 25.8202 10.5977C25.6875 10.1035 25.4389 9.6481 25.0952 9.26912C24.8255 8.96311 24.4953 8.71626 24.1255 8.54412C23.8079 8.39716 23.4738 8.28884 23.1304 8.2215C22.9939 8.19894 22.8556 8.18863 22.7172 8.19069M22.3873 15.3265H22.206V9.773H22.2296C22.6033 9.73001 22.9813 9.79743 23.3171 9.96694C23.563 10.1633 23.7634 10.4106 23.9044 10.6919C24.0565 10.988 24.1442 11.3129 24.1617 11.6453C24.178 12.0441 24.1617 12.3703 24.1617 12.6404C24.1691 12.9515 24.1491 13.2626 24.1019 13.5702C24.0461 13.886 23.9428 14.1915 23.7956 14.4764C23.629 14.7413 23.404 14.9646 23.1377 15.1289C22.9141 15.2736 22.6492 15.341 22.3837 15.3211M31.5912 8.22512H27.1868V16.9251H29.05V13.4741H31.4063V11.8574H29.05V9.84187H31.5875V8.22512" fill="#464648"/>
<path d="M39.4782 36.712C39.4782 36.712 45.2565 35.6644 45.2565 37.6382C45.2565 39.612 41.6768 38.8091 39.4782 36.712ZM35.2062 36.8624C34.2881 37.0653 33.3935 37.3623 32.5364 37.7487L33.2614 36.1175C33.9864 34.4862 34.7385 32.2623 34.7385 32.2623C35.6037 33.7183 36.6102 35.0855 37.7437 36.3441C36.8889 36.4715 36.0418 36.6458 35.2062 36.8661V36.8624ZM32.9188 25.0812C32.9188 23.3611 33.4752 22.8917 33.9084 22.8917C34.3416 22.8917 34.8292 23.1001 34.8455 24.5936C34.7044 26.0954 34.3899 27.5758 33.9084 29.0052C33.2489 27.8051 32.9076 26.456 32.917 25.0866L32.9188 25.0812ZM24.4925 44.1414C22.7199 43.0811 28.2099 39.8168 29.205 39.7117C29.1996 39.7135 26.3485 45.2507 24.4925 44.1414ZM46.9439 37.872C46.9258 37.6907 46.7627 35.6843 43.192 35.7695C41.7038 35.7455 40.2162 35.8504 38.746 36.0831C37.3218 34.6483 36.0954 33.0299 35.0992 31.2709C35.7269 29.4573 36.1067 27.5673 36.2284 25.6521C36.1759 23.4771 35.6557 22.2301 33.9882 22.2482C32.3207 22.2664 32.0778 23.7254 32.2971 25.8968C32.5119 27.356 32.9172 28.7806 33.5024 30.1344C33.5024 30.1344 32.7321 32.5324 31.7135 34.9176C30.6949 37.3029 29.9989 38.5535 29.9989 38.5535C28.2276 39.1301 26.5601 39.9868 25.0598 41.091C23.5663 42.4812 22.9591 43.5487 23.7457 44.6163C24.4236 45.5371 26.7962 45.7455 28.9168 42.9669C30.0436 41.5318 31.0729 40.0229 31.998 38.4502C31.998 38.4502 35.2315 37.5639 36.2375 37.321C37.2434 37.0781 38.4596 36.886 38.4596 36.886C38.4596 36.886 41.4122 39.8567 44.2596 39.7516C47.107 39.6464 46.9693 38.0496 46.9512 37.8756" fill="#DD2025"/>
<path d="M43.416 3.76465V14.4095H53.6258L43.416 3.76465Z" fill="#909090"/>
<path d="M43.5566 3.625V14.2698H53.7665L43.5566 3.625Z" fill="#F4F4F4"/>
<path d="M16.2674 8.07823H13.8984V16.7782H15.7689V13.8456L16.1822 13.8692C16.582 13.8623 16.978 13.7907 17.3549 13.6571C17.6853 13.5434 17.9892 13.364 18.2484 13.1297C18.5102 12.9058 18.7162 12.6241 18.8502 12.3068C19.032 11.7784 19.0969 11.2169 19.0405 10.661C19.0292 10.2639 18.9596 9.87065 18.8339 9.49379C18.7195 9.22174 18.5497 8.9765 18.3353 8.77367C18.1209 8.57084 17.8666 8.41486 17.5887 8.31566C17.3473 8.22781 17.0977 8.16406 16.8438 8.12535C16.6524 8.09583 16.4592 8.08008 16.2656 8.07823M15.923 12.2361H15.7617V9.5536H16.1133C16.2677 9.54247 16.4226 9.56617 16.5666 9.62295C16.7106 9.67974 16.84 9.76815 16.9452 9.88166C17.1633 10.1735 17.2798 10.5287 17.2769 10.893C17.2769 11.3389 17.2769 11.7431 16.8746 12.0277C16.5847 12.1871 16.2547 12.2589 15.9248 12.2343M22.5767 8.05466C22.3755 8.05466 22.1798 8.06916 22.042 8.0746L21.6161 8.08548H20.2023V16.7855H21.8662C22.5021 16.8029 23.1351 16.6951 23.7294 16.4683C24.2078 16.2786 24.6314 15.9727 24.9619 15.5784C25.2834 15.1804 25.5141 14.7171 25.638 14.2208C25.7804 13.6587 25.8498 13.0806 25.8446 12.5007C25.8798 11.8159 25.8268 11.1294 25.6869 10.458C25.5542 9.96388 25.3057 9.50846 24.9619 9.12948C24.6922 8.82346 24.3621 8.57661 23.9923 8.40448C23.6747 8.25751 23.3406 8.1492 22.9972 8.08185C22.8606 8.05929 22.7223 8.04898 22.5839 8.05104M22.2541 15.1869H22.0728V9.63335H22.0964C22.47 9.59036 22.8481 9.65778 23.1839 9.82729C23.4298 10.0236 23.6301 10.271 23.7711 10.5523C23.9233 10.8483 24.011 11.1733 24.0285 11.5057C24.0448 11.9044 24.0285 12.2307 24.0285 12.5007C24.0359 12.8118 24.0159 13.123 23.9687 13.4305C23.9128 13.7463 23.8096 14.0519 23.6624 14.3368C23.4958 14.6017 23.2707 14.8249 23.0044 14.9893C22.7808 15.1339 22.516 15.2014 22.2504 15.1814M31.4525 8.08548H27.0481V16.7855H28.9114V13.3345H31.2676V11.7177H28.9114V9.70223H31.4489V8.08548" fill="white"/>
</svg>
