<svg width="229" height="186" viewBox="0 0 229 186" fill="none" xmlns="http://www.w3.org/2000/svg">
<g clip-path="url(#clip0_2381_9622)">
<path d="M157.25 -41.9998C159.033 -41.1081 160.215 -40.1384 161.258 -38.4373C162.024 -36.1371 162.061 -34.0367 161.035 -31.8411C159.98 -29.9399 158.684 -28.2183 157.387 -26.4765C156.269 -24.9554 155.197 -23.4083 154.133 -21.8494C152.069 -18.8331 149.987 -15.8303 147.898 -12.8319C142.265 -4.75086 142.265 -4.75086 136.766 3.42204C138.943 6.04623 141.291 8.45306 143.706 10.8583C144.132 11.2842 144.558 11.7103 144.984 12.1364C146.132 13.2845 147.281 14.4312 148.431 15.5777C149.635 16.7792 150.838 17.982 152.041 19.1846C154.316 21.458 156.592 23.7303 158.868 26.0022C161.461 28.5903 164.053 31.1796 166.645 33.7691C171.973 39.0923 177.302 44.414 182.633 49.7345C183.276 49.3814 183.918 49.0273 184.561 48.6728C185.098 48.3772 185.098 48.3772 185.645 48.0756C186.793 47.4212 187.843 46.6913 188.895 45.8937C190.827 44.4604 192.782 43.0756 194.768 41.7189C197.784 39.6556 200.787 37.5737 203.785 35.4845C206.833 33.3623 209.882 31.243 212.942 29.1388C213.359 28.8521 213.359 28.8521 213.784 28.5596C214.532 28.046 215.281 27.5347 216.031 27.0236C216.508 26.6953 216.985 26.3669 217.477 26.0286C219.469 24.7514 221.28 24.5548 223.601 24.797C225.983 25.6671 227.367 26.9846 228.5 29.2502C228.725 31.5077 228.786 33.5027 227.86 35.5959C225.271 38.3737 222.007 40.4694 218.87 42.5817C218.128 43.0852 217.387 43.5891 216.645 44.0933C216.257 44.3572 215.869 44.621 215.47 44.8929C213.319 46.3634 211.182 47.8547 209.045 49.3449C206.184 51.3387 203.322 53.3293 200.445 55.3009C197.541 57.2916 194.651 59.3005 191.762 61.3127C188.597 63.5165 185.429 65.7129 182.248 67.8932C179.175 70.0027 176.118 72.1356 173.059 74.2663C170.56 76.0063 168.056 77.7381 165.544 79.4592C164.703 80.0374 163.862 80.6163 163.022 81.1956C162.41 81.617 161.797 82.0376 161.185 82.4576C151.963 88.7916 144.962 95.3871 142.398 106.731C141.824 109.858 141.921 113.054 141.926 116.221C141.928 117.489 141.922 118.756 141.914 120.024C141.895 123.167 141.89 126.31 141.884 129.453C141.879 132.122 141.869 134.791 141.851 137.46C141.845 138.706 141.847 139.951 141.849 141.197C141.845 141.961 141.84 142.726 141.835 143.49C141.839 144.005 141.839 144.005 141.844 144.531C141.811 147.402 141.159 149.066 139.176 151.127C137.434 152.467 135.484 152.943 133.384 153.48C132.973 153.592 132.561 153.703 132.137 153.818C130.861 154.161 129.583 154.495 128.305 154.828C127.552 155.03 126.799 155.232 126.046 155.434C123.757 156.048 121.465 156.648 119.172 157.246C118.309 157.472 117.445 157.699 116.581 157.925C114.746 158.406 112.911 158.887 111.076 159.367C108.152 160.131 105.228 160.897 102.305 161.664C101.81 161.794 101.315 161.924 100.805 162.057C99.7976 162.321 98.7907 162.585 97.7838 162.849C96.259 163.249 94.7341 163.649 93.2092 164.048C84.5 166.331 75.7936 168.624 67.0884 170.922C64.1678 171.693 61.2469 172.462 58.3258 173.231C56.6821 173.664 55.0384 174.097 53.3947 174.53C52.9927 174.636 52.5907 174.742 52.1765 174.851C46.8698 176.25 41.5668 177.662 36.267 179.086C33.4946 179.832 30.7211 180.573 27.9472 181.313C25.7414 181.902 23.5372 182.496 21.3341 183.095C19.9886 183.46 18.6417 183.818 17.2943 184.176C16.6793 184.34 16.065 184.507 15.4513 184.676C6.76184 187.068 6.76184 187.068 2.9213 185.249C1.57272 183.969 0.66124 182.788 0.28677 180.941C0.215703 176.169 1.62021 171.695 2.85172 167.128C3.10243 166.179 3.35256 165.23 3.60214 164.281C4.27567 161.726 4.95718 159.172 5.64016 156.619C6.35828 153.929 7.06883 151.237 7.78006 148.546C8.94428 144.143 10.1125 139.741 11.2837 135.34C12.8036 129.627 14.3127 123.913 15.8162 118.196C16.2608 116.506 16.7054 114.816 17.15 113.126C17.258 112.715 17.3661 112.304 17.4774 111.881C18.2322 109.013 18.9894 106.145 19.7479 103.278C19.8548 102.874 19.9616 102.47 20.0717 102.054C20.1785 101.65 20.2852 101.246 20.3953 100.831C20.6107 100.016 20.8262 99.2013 21.0417 98.3867C21.1477 97.9858 21.2538 97.585 21.363 97.172C22.8563 91.5246 24.3373 85.8741 25.81 80.2213C26.6395 77.0376 27.4723 73.8548 28.3059 70.6721C28.9827 68.0871 29.6551 65.501 30.3244 62.9141C30.7358 61.3283 31.1514 59.7436 31.5681 58.1592C31.76 57.4263 31.9501 56.6929 32.1384 55.959C32.3961 54.9551 32.66 53.9531 32.9255 52.9512C33.0713 52.3911 33.2171 51.831 33.3672 51.254C34.2811 48.6396 35.6352 46.8536 37.9062 45.2814C39.5682 44.7274 41.1131 44.7718 42.8442 44.7729C43.2115 44.7714 43.5789 44.7698 43.9573 44.7682C44.7562 44.765 45.5552 44.7626 46.3541 44.761C47.6243 44.7578 48.8945 44.7508 50.1647 44.7426C53.7769 44.7193 57.389 44.6979 61.0013 44.691C63.2118 44.6864 65.4221 44.6733 67.6325 44.6548C68.4696 44.6493 69.3068 44.647 70.144 44.648C76.6226 44.6538 82.5328 44.0328 88.3656 40.9396C88.6613 40.7866 88.9569 40.6336 89.2615 40.4759C95.8674 36.9489 99.877 31.505 103.964 25.4402C105.379 23.3571 106.825 21.2957 108.266 19.2306C110.278 16.3419 112.287 13.4508 114.277 10.547C116.576 7.1939 118.9 3.85828 121.223 0.522293C122.923 -1.91997 124.618 -4.3657 126.301 -6.82014C128.599 -10.1733 130.923 -13.5089 133.247 -16.8449C134.947 -19.2872 136.641 -21.7331 138.324 -24.1873C138.91 -25.0398 139.496 -25.8921 140.082 -26.7442C140.598 -27.4951 141.114 -28.2461 141.63 -28.9973C142.577 -30.3733 143.526 -31.7475 144.475 -33.1214C144.774 -33.5562 145.072 -33.9911 145.38 -34.4391C151.12 -42.7284 151.12 -42.7284 157.25 -41.9998ZM127.859 15.4455C127.133 16.4043 126.463 17.3658 125.8 18.3678C125.358 19.0233 124.915 19.6785 124.472 20.3335C124.231 20.6918 123.99 21.0502 123.741 21.4194C121.428 24.8321 119.052 28.2025 116.692 31.5833C115.902 32.7178 115.117 33.8553 114.333 34.994C111.916 38.4884 109.454 41.7801 106.484 44.8361C106.226 45.1168 105.968 45.3975 105.702 45.6867C102.4 49.1803 98.2886 51.6115 94.0155 53.7424C93.554 53.9725 93.0925 54.2027 92.617 54.4399C83.1991 58.8094 73.4095 58.4882 63.257 58.5242C61.2982 58.533 59.3395 58.5517 57.3808 58.5695C53.5611 58.6027 49.7415 58.6253 45.9218 58.6408C45.7893 59.1478 45.6568 59.6547 45.5203 60.177C39.5141 83.1605 33.5021 106.142 27.4413 129.111C27.2711 129.757 27.2711 129.757 27.0974 130.415C26.3449 133.267 25.5921 136.119 24.839 138.971C24.7448 139.328 24.6506 139.685 24.5536 140.052C24.3727 140.737 24.1917 141.422 24.0106 142.107C23.8402 142.753 23.6703 143.398 23.501 144.044C23.0902 145.607 22.6683 147.165 22.2257 148.72C22.1402 149.025 22.0547 149.33 21.9666 149.645C21.7334 150.475 21.4956 151.304 21.2576 152.133C20.9893 153.467 21.055 154.015 21.4296 155.274C26.4387 150.327 31.4401 145.373 36.4325 140.409C38.7507 138.105 41.0714 135.803 43.3979 133.507C45.4253 131.506 47.4481 129.501 49.4653 127.489C50.5338 126.424 51.6046 125.362 52.6811 124.305C53.8808 123.124 55.072 121.936 56.2615 120.745C56.6212 120.395 56.9809 120.045 57.3515 119.684C57.6731 119.359 57.9948 119.034 58.3261 118.698C58.609 118.418 58.8918 118.138 59.1832 117.849C59.8458 116.983 59.8458 116.983 59.612 115.82C59.2864 114.767 58.9504 113.72 58.5958 112.677C57.8709 110.293 57.7453 108.1 57.7782 105.621C57.7731 105.233 57.7679 104.844 57.7626 104.444C57.7896 98.3717 60.2469 92.9962 64.3953 88.6211C69.4244 83.9747 75.4677 82.0659 82.2165 82.1502C88.6286 82.5299 94.376 85.1015 98.7835 89.8109C103.053 95.4045 104.781 101.515 104.258 108.516C103.307 114.805 100.323 120.636 95.1514 124.464C89.1527 128.23 82.304 129.761 75.2722 128.371C74.0988 128.038 72.9907 127.607 71.8734 127.12C70.6685 126.708 70.261 126.79 69.078 127.219C68.2342 127.866 68.2342 127.866 67.4268 128.709C67.1059 129.029 66.785 129.348 66.4543 129.676C66.1068 130.029 65.7592 130.381 65.4012 130.744C65.0317 131.113 64.6623 131.483 64.2816 131.863C63.27 132.875 62.2614 133.891 61.2541 134.907C60.2004 135.969 59.1429 137.028 58.0858 138.086C56.0849 140.091 54.0875 142.1 52.0913 144.109C49.8184 146.397 47.5417 148.681 45.2646 150.965C40.581 155.663 35.9022 160.365 31.2265 165.07C32.5882 165.501 33.4512 165.513 34.8271 165.15C35.3664 165.011 35.3664 165.011 35.9166 164.869C36.3082 164.763 36.6999 164.658 37.1034 164.549C37.5203 164.44 37.9373 164.331 38.3669 164.219C39.7591 163.855 41.1496 163.484 42.5402 163.114C43.5236 162.855 44.5071 162.596 45.4908 162.338C48.1316 161.644 50.771 160.945 53.4102 160.245C56.1423 159.521 58.8757 158.802 61.6089 158.082C66.9899 156.665 72.3693 155.242 77.7483 153.817C80.3668 153.124 82.9855 152.431 85.6044 151.74C85.9785 151.641 86.3527 151.542 86.7381 151.44C87.4629 151.249 88.1876 151.057 88.9124 150.866C94.7309 149.329 100.548 147.788 106.365 146.244C113.527 144.343 120.693 142.461 127.859 140.578C127.862 140.175 127.865 139.771 127.867 139.355C127.893 135.524 127.925 131.692 127.964 127.861C127.984 125.891 128.002 123.922 128.014 121.953C128.025 120.047 128.043 118.142 128.066 116.236C128.073 115.515 128.078 114.793 128.081 114.071C128.132 102.15 131.726 90.7016 139.883 81.797C140.238 81.4004 140.593 81.0037 140.959 80.595C144.053 77.3145 147.516 74.8356 151.234 72.3163C152.891 71.1874 154.533 70.037 156.177 68.8887C166.628 61.5921 166.628 61.5921 171.055 58.6408C170.413 57.1738 169.619 56.2028 168.491 55.0731C168.142 54.7222 167.794 54.3713 167.435 54.0097C167.052 53.6289 166.67 53.248 166.275 52.8556C165.873 52.4514 165.47 52.0473 165.055 51.6308C163.952 50.5239 162.847 49.4197 161.74 48.3162C160.583 47.1616 159.429 46.0048 158.274 44.8484C156.335 42.9077 154.394 40.9689 152.452 39.0312C150.204 36.7886 147.96 34.5428 145.718 32.2954C143.793 30.3669 141.867 28.4401 139.939 26.5148C138.787 25.3644 137.636 24.2133 136.487 23.0608C135.206 21.7776 133.923 20.4981 132.639 19.2189C132.065 18.6422 132.065 18.6422 131.479 18.0539C131.131 17.708 130.782 17.3621 130.423 17.0057C130.12 16.7026 129.816 16.3996 129.504 16.0873C128.802 15.3493 128.802 15.3493 127.859 15.4455ZM72.8232 100.055C71.0017 102.638 70.9891 104.964 71.3046 108.07C72.0687 110.825 73.8355 112.759 76.203 114.305C78.6756 115.496 81.0788 115.532 83.7733 115.195C86.4135 114.211 88.474 112.18 90.0077 109.852C91.1053 107.323 91.0956 104.931 90.453 102.281C89.1471 99.3417 87.2506 97.4028 84.2743 96.1584C79.5193 94.5497 75.8716 96.3651 72.8232 100.055Z" fill="#346902"/>
</g>
<defs>
<clipPath id="clip0_2381_9622">
<rect width="228" height="228" fill="white" transform="translate(0.5 -42)"/>
</clipPath>
</defs>
</svg>
