<svg width="34" height="34" viewBox="0 0 34 34" fill="none" xmlns="http://www.w3.org/2000/svg">
<path d="M12.892 12.7493C13.232 11.8124 13.8904 11.0247 14.7523 10.5241C15.6141 10.0234 16.6245 9.84157 17.6068 10.0104C18.5891 10.1791 19.4809 10.6878 20.1262 11.4474C20.7715 12.2071 21.1293 13.1693 21.137 14.166C21.137 16.9993 16.887 18.416 16.887 18.416M17.0003 24.0827H17.0145M28.3337 18.416C28.3337 25.4993 23.3753 29.041 17.482 31.0952C17.1734 31.1997 16.8382 31.1947 16.5328 31.081C10.6253 29.041 5.66699 25.4993 5.66699 18.416V8.49934C5.66699 8.12361 5.81625 7.76328 6.08192 7.4976C6.3476 7.23192 6.70794 7.08267 7.08366 7.08267C9.91699 7.08267 13.4587 5.38267 15.9237 3.22933C16.2238 2.97292 16.6056 2.83203 17.0003 2.83203C17.3951 2.83203 17.7769 2.97292 18.077 3.22933C20.5562 5.39683 24.0837 7.08267 26.917 7.08267C27.2927 7.08267 27.6531 7.23192 27.9187 7.4976C28.1844 7.76328 28.3337 8.12361 28.3337 8.49934V18.416Z" stroke="#323234" stroke-width="2" stroke-linecap="round" stroke-linejoin="round"/>
</svg>
