<svg width="34" height="34" viewBox="0 0 34 34" fill="none" xmlns="http://www.w3.org/2000/svg">
<path d="M11.3332 16.9993H11.3473M16.9998 16.9993H17.014M22.6665 16.9993H22.6807M28.3332 18.416C28.3332 25.4993 23.3748 29.041 17.4815 31.0952C17.1729 31.1997 16.8377 31.1947 16.5323 31.081C10.6248 29.041 5.6665 25.4993 5.6665 18.416V8.49934C5.6665 8.12361 5.81576 7.76328 6.08144 7.4976C6.34711 7.23192 6.70745 7.08267 7.08317 7.08267C9.9165 7.08267 13.4582 5.38267 15.9232 3.22933C16.2233 2.97292 16.6051 2.83203 16.9998 2.83203C17.3946 2.83203 17.7764 2.97292 18.0765 3.22933C20.5557 5.39683 24.0832 7.08267 26.9165 7.08267C27.2922 7.08267 27.6526 7.23192 27.9182 7.4976C28.1839 7.76328 28.3332 8.12361 28.3332 8.49934V18.416Z" stroke="#323234" stroke-width="2" stroke-linecap="round" stroke-linejoin="round"/>
</svg>
