<svg width="16" height="17" viewBox="0 0 16 17" fill="none" xmlns="http://www.w3.org/2000/svg">
<path d="M11.9456 10.0465C11.7729 10.2138 11.6936 10.4558 11.7329 10.6932L12.3256 13.9732C12.3756 14.2512 12.2583 14.5325 12.0256 14.6932C11.7976 14.8598 11.4943 14.8798 11.2456 14.7465L8.29292 13.2065C8.19026 13.1518 8.07626 13.1225 7.95959 13.1192H7.77892C7.71626 13.1285 7.65493 13.1485 7.59893 13.1792L4.64559 14.7265C4.49959 14.7998 4.33426 14.8258 4.17226 14.7998C3.77759 14.7252 3.51426 14.3492 3.57893 13.9525L4.17226 10.6725C4.21159 10.4332 4.13226 10.1898 3.95959 10.0198L1.55226 7.6865C1.35093 7.49117 1.28093 7.19784 1.37293 6.93317C1.46226 6.66917 1.69026 6.4765 1.96559 6.43317L5.27892 5.9525C5.53093 5.9265 5.75226 5.77317 5.86559 5.5465L7.32559 2.55317C7.36026 2.4865 7.40493 2.42517 7.45893 2.37317L7.51892 2.3265C7.55026 2.29184 7.58626 2.26317 7.62626 2.23984L7.69893 2.21317L7.81226 2.1665H8.09293C8.34359 2.1925 8.56426 2.3425 8.67959 2.5665L10.1589 5.5465C10.2656 5.7645 10.4729 5.91584 10.7123 5.9525L14.0256 6.43317C14.3056 6.47317 14.5396 6.6665 14.6323 6.93317C14.7196 7.2005 14.6443 7.49384 14.4389 7.6865L11.9456 10.0465Z" fill="#346902"/>
</svg>
