<svg width="32" height="33" viewBox="0 0 32 33" fill="none" xmlns="http://www.w3.org/2000/svg">
<path fill-rule="evenodd" clip-rule="evenodd" d="M7.74839 2.46875C6.17021 2.46875 4.65665 3.09552 3.5405 4.21124C2.42434 5.32696 1.79699 6.84029 1.79639 8.41847V24.2905C1.79639 25.869 2.42347 27.3829 3.53969 28.4992C4.6559 29.6154 6.16982 30.2425 7.74839 30.2425H23.6204C25.1986 30.2419 26.7119 29.6145 27.8276 28.4984C28.9433 27.3822 29.5701 25.8686 29.5701 24.2905V8.41847C29.5695 6.84069 28.9425 5.32771 27.8268 4.21205C26.7111 3.09639 25.1982 2.46936 23.6204 2.46875H7.74839ZM25.3324 8.42761C25.3324 8.88226 25.1518 9.3183 24.8303 9.63979C24.5088 9.96128 24.0728 10.1419 23.6181 10.1419C23.1634 10.1419 22.7274 9.96128 22.4059 9.63979C22.0844 9.3183 21.9038 8.88226 21.9038 8.42761C21.9038 7.97295 22.0844 7.53692 22.4059 7.21542C22.7274 6.89393 23.1634 6.71332 23.6181 6.71332C24.0728 6.71332 24.5088 6.89393 24.8303 7.21542C25.1518 7.53692 25.3324 7.97295 25.3324 8.42761ZM15.6867 11.6002C14.4258 11.6002 13.2165 12.1011 12.3249 12.9927C11.4333 13.8843 10.9324 15.0935 10.9324 16.3545C10.9324 17.6154 11.4333 18.8246 12.3249 19.7163C13.2165 20.6079 14.4258 21.1088 15.6867 21.1088C16.9476 21.1088 18.1569 20.6079 19.0485 19.7163C19.9401 18.8246 20.441 17.6154 20.441 16.3545C20.441 15.0935 19.9401 13.8843 19.0485 12.9927C18.1569 12.1011 16.9476 11.6002 15.6867 11.6002ZM8.64439 16.3545C8.64439 14.4873 9.3861 12.6967 10.7064 11.3764C12.0266 10.0562 13.8173 9.31447 15.6844 9.31447C17.5515 9.31447 19.3422 10.0562 20.6624 11.3764C21.9827 12.6967 22.7244 14.4873 22.7244 16.3545C22.7244 18.2216 21.9827 20.0122 20.6624 21.3325C19.3422 22.6528 17.5515 23.3945 15.6844 23.3945C13.8173 23.3945 12.0266 22.6528 10.7064 21.3325C9.3861 20.0122 8.64439 18.2216 8.64439 16.3545Z" fill="#464443"/>
</svg>
