<svg width="48" height="48" viewBox="0 0 48 48" fill="none" xmlns="http://www.w3.org/2000/svg">
<path d="M28 7C35.5425 7 39.3137 7 41.6569 9.48959C44 11.9792 44 15.9861 44 24C44 32.0139 44 36.0208 41.6569 38.5104C39.3137 41 35.5425 41 28 41L20 41C12.4575 41 8.68629 41 6.34315 38.5104C4 36.0208 4 32.0139 4 24C4 15.9861 4 11.9792 6.34315 9.48959C8.68629 7 12.4575 7 20 7L28 7Z" stroke="#323234" stroke-width="2" stroke-linejoin="round"/>
<path d="M10 30.9998C13.2173 26.7251 20.7078 26.4917 24 30.9998M20.498 20.5C20.498 22.433 18.931 24 16.998 24C15.0651 24 13.498 22.433 13.498 20.5C13.498 18.567 15.0651 17 16.998 17C18.931 17 20.498 18.567 20.498 20.5Z" stroke="#323234" stroke-width="2" stroke-linecap="round"/>
<path d="M30 19H38" stroke="#323234" stroke-width="2" stroke-linecap="round"/>
<path d="M30 27H34" stroke="#323234" stroke-width="2" stroke-linecap="round"/>
</svg>
