<svg width="36" height="27" viewBox="0 0 36 27" fill="none" xmlns="http://www.w3.org/2000/svg">
<rect y="0.09375" width="36" height="26" rx="13" fill="#E1E9D9"/>
<g clip-path="url(#clip0_2023_36642)">
<path d="M14.6667 11.7609V9.76092C14.6667 9.02717 14.9088 8.31393 15.3555 7.73181C15.8022 7.14969 16.4285 6.73123 17.1373 6.54132C17.846 6.35141 18.5976 6.40066 19.2755 6.68144C19.9534 6.96221 20.5198 7.45882 20.8867 8.09426M18.6667 15.7609C18.6667 16.1291 18.3682 16.4276 18 16.4276C17.6318 16.4276 17.3333 16.1291 17.3333 15.7609C17.3333 15.3927 17.6318 15.0943 18 15.0943C18.3682 15.0943 18.6667 15.3927 18.6667 15.7609ZM13.3333 11.7609H22.6667C23.403 11.7609 24 12.3579 24 13.0943V18.4276C24 19.164 23.403 19.7609 22.6667 19.7609H13.3333C12.597 19.7609 12 19.164 12 18.4276V13.0943C12 12.3579 12.597 11.7609 13.3333 11.7609Z" stroke="#346902" stroke-width="2" stroke-linecap="round" stroke-linejoin="round"/>
</g>
<defs>
<clipPath id="clip0_2023_36642">
<rect width="16" height="16" fill="white" transform="translate(10 5.09375)"/>
</clipPath>
</defs>
</svg>
