<svg width="24" height="24" viewBox="0 0 24 24" fill="none" xmlns="http://www.w3.org/2000/svg">
<path d="M10.0649 12.4926L3.88491 13.8106C3.64503 13.8627 3.39429 13.8182 3.18694 13.6868C2.97959 13.5555 2.83229 13.3478 2.77691 13.1086L2.23991 10.9586C2.17677 10.6996 2.21262 10.4263 2.34044 10.1923C2.46825 9.95833 2.67883 9.78048 2.93091 9.69363L16.4349 5.25363M13.5599 11.7466L17.8919 10.8226M15.9999 20.9996L12.8949 14.7896M6.15791 8.63263L7.2719 13.0886M7.99991 20.9996L11.1049 14.7896M16.4849 5.93963C16.3564 5.42511 16.4374 4.88061 16.7103 4.42585C16.9831 3.97109 17.4254 3.64333 17.9399 3.51463L19.0299 3.24263C19.287 3.17849 19.5591 3.21903 19.7863 3.35534C20.0136 3.49165 20.1774 3.71259 20.2419 3.96963L21.7569 10.0296C21.8213 10.2869 21.781 10.5592 21.6446 10.7867C21.5083 11.0142 21.2872 11.1782 21.0299 11.2426L19.9399 11.5146C19.4254 11.6432 18.8809 11.5621 18.4261 11.2893C17.9714 11.0164 17.6436 10.5741 17.5149 10.0596L16.4849 5.93963ZM13.9999 12.9996C13.9999 14.1042 13.1045 14.9996 11.9999 14.9996C10.8953 14.9996 9.99991 14.1042 9.99991 12.9996C9.99991 11.8951 10.8953 10.9996 11.9999 10.9996C13.1045 10.9996 13.9999 11.8951 13.9999 12.9996Z" stroke="#346902" stroke-width="2" stroke-linecap="round" stroke-linejoin="round"/>
</svg>
