<svg width="20" height="21" viewBox="0 0 20 21" fill="none" xmlns="http://www.w3.org/2000/svg">
<path d="M5.83317 8.83268V18.8327M12.4998 5.39935L11.6665 8.83268H16.5248C16.7836 8.83268 17.0388 8.89292 17.2702 9.00864C17.5016 9.12435 17.7029 9.29236 17.8582 9.49935C18.0134 9.70634 18.1183 9.94664 18.1646 10.2012C18.2109 10.4558 18.1973 10.7176 18.1248 10.966L16.1832 17.6327C16.0822 17.9789 15.8717 18.283 15.5832 18.4994C15.2947 18.7157 14.9438 18.8327 14.5832 18.8327H3.33317C2.89114 18.8327 2.46722 18.6571 2.15466 18.3445C1.8421 18.032 1.6665 17.608 1.6665 17.166V10.4993C1.6665 10.0573 1.8421 9.6334 2.15466 9.32084C2.46722 9.00828 2.89114 8.83268 3.33317 8.83268H5.63317C5.94324 8.83252 6.24712 8.74586 6.51063 8.58245C6.77415 8.41904 6.98686 8.18536 7.12484 7.90768L9.99984 2.16602C10.3928 2.17088 10.7796 2.26449 11.1313 2.43985C11.4831 2.6152 11.7906 2.86777 12.031 3.17868C12.2714 3.4896 12.4384 3.85082 12.5196 4.23535C12.6008 4.61989 12.594 5.01779 12.4998 5.39935Z" stroke="#909091" stroke-width="2" stroke-linecap="round" stroke-linejoin="round"/>
</svg>
