<svg width="80" height="80" viewBox="0 0 80 80" fill="none" xmlns="http://www.w3.org/2000/svg">
<path opacity="0.2" d="M54.468 6.66602H25.568C14.268 6.66602 6.66797 14.5993 6.66797 26.3993V53.6327C6.66797 65.3993 14.268 73.3327 25.568 73.3327H54.468C65.768 73.3327 73.3346 65.3993 73.3346 53.6327V26.3993C73.3346 14.5993 65.768 6.66602 54.468 6.66602" fill="#346902"/>
<path d="M36.0432 50.8269C35.2965 50.8269 34.5498 50.5435 33.9798 49.9735L26.0698 42.0635C24.9298 40.9235 24.9298 39.0769 26.0698 37.9402C27.2098 36.8002 29.0532 36.7969 30.1932 37.9369L36.0432 43.7869L49.8032 30.0269C50.9432 28.8869 52.7865 28.8869 53.9265 30.0269C55.0665 31.1669 55.0665 33.0135 53.9265 34.1535L38.1065 49.9735C37.5365 50.5435 36.7898 50.8269 36.0432 50.8269" fill="#346902"/>
</svg>
