<svg width="38" height="23" viewBox="0 0 38 23" fill="none" xmlns="http://www.w3.org/2000/svg">
<rect y="0.5" width="38" height="22" rx="11" fill="#F6F8F9"/>
<path d="M16.0833 10.3332V8.58317C16.0833 7.80962 16.3906 7.06776 16.9376 6.52078C17.4846 5.97379 18.2265 5.6665 19 5.6665C19.7735 5.6665 20.5154 5.97379 21.0624 6.52078C21.6094 7.06776 21.9167 7.80962 21.9167 8.58317V10.3332M19.5833 13.8332C19.5833 14.1553 19.3222 14.4165 19 14.4165C18.6778 14.4165 18.4167 14.1553 18.4167 13.8332C18.4167 13.511 18.6778 13.2498 19 13.2498C19.3222 13.2498 19.5833 13.511 19.5833 13.8332ZM14.9167 10.3332H23.0833C23.7277 10.3332 24.25 10.8555 24.25 11.4998V16.1665C24.25 16.8108 23.7277 17.3332 23.0833 17.3332H14.9167C14.2723 17.3332 13.75 16.8108 13.75 16.1665V11.4998C13.75 10.8555 14.2723 10.3332 14.9167 10.3332Z" stroke="#346902" stroke-linecap="round" stroke-linejoin="round"/>
</svg>
