<svg width="32" height="33" viewBox="0 0 32 33" fill="none" xmlns="http://www.w3.org/2000/svg">
<rect y="0.5" width="32" height="32" rx="16" fill="#A3A3A4"/>
<path d="M18.6663 22.5V21.1667C18.6663 20.4594 18.3854 19.7811 17.8853 19.281C17.3852 18.781 16.7069 18.5 15.9997 18.5H11.9997C11.2924 18.5 10.6142 18.781 10.1141 19.281C9.61396 19.7811 9.33301 20.4594 9.33301 21.1667V22.5M20.6663 13.8333V17.8333M22.6663 15.8333H18.6663M16.6663 13.1667C16.6663 14.6394 15.4724 15.8333 13.9997 15.8333C12.5269 15.8333 11.333 14.6394 11.333 13.1667C11.333 11.6939 12.5269 10.5 13.9997 10.5C15.4724 10.5 16.6663 11.6939 16.6663 13.1667Z" stroke="white" stroke-width="2" stroke-linecap="round" stroke-linejoin="round"/>
</svg>
