<svg width="34" height="34" viewBox="0 0 34 34" fill="none" xmlns="http://www.w3.org/2000/svg">
<path d="M22.6663 29.75V26.9167C22.6663 25.4138 22.0693 23.9724 21.0066 22.9097C19.9439 21.847 18.5026 21.25 16.9997 21.25H8.49967C6.99678 21.25 5.55544 21.847 4.49274 22.9097C3.43003 23.9724 2.83301 25.4138 2.83301 26.9167V29.75M31.1663 29.75V26.9167C31.1654 25.6611 30.7475 24.4414 29.9783 23.4491C29.209 22.4568 28.132 21.7481 26.9163 21.4342M22.6663 4.43417C23.8853 4.74626 24.9656 5.45516 25.7372 6.44911C26.5087 7.44305 26.9275 8.66551 26.9275 9.92375C26.9275 11.182 26.5087 12.4044 25.7372 13.3984C24.9656 14.3923 23.8853 15.1012 22.6663 15.4133M18.4163 9.91667C18.4163 13.0463 15.8793 15.5833 12.7497 15.5833C9.62006 15.5833 7.08301 13.0463 7.08301 9.91667C7.08301 6.78705 9.62006 4.25 12.7497 4.25C15.8793 4.25 18.4163 6.78705 18.4163 9.91667Z" stroke="#323234" stroke-width="2" stroke-linecap="round" stroke-linejoin="round"/>
</svg>
