<svg width="34" height="34" viewBox="0 0 34 34" fill="none" xmlns="http://www.w3.org/2000/svg">
<path d="M22.6668 29.75V26.9167C22.6668 25.4138 22.0698 23.9724 21.0071 22.9097C19.9444 21.847 18.5031 21.25 17.0002 21.25H8.50016C6.99727 21.25 5.55593 21.847 4.49322 22.9097C3.43052 23.9724 2.8335 25.4138 2.8335 26.9167V29.75M22.6668 15.5833L25.5002 18.4167L31.1668 12.75M18.4168 9.91667C18.4168 13.0463 15.8798 15.5833 12.7502 15.5833C9.62055 15.5833 7.0835 13.0463 7.0835 9.91667C7.0835 6.78705 9.62055 4.25 12.7502 4.25C15.8798 4.25 18.4168 6.78705 18.4168 9.91667Z" stroke="#323234" stroke-width="2" stroke-linecap="round" stroke-linejoin="round"/>
</svg>
