<svg width="14" height="14" viewBox="0 0 14 14" fill="none" xmlns="http://www.w3.org/2000/svg">
<path d="M7.31016 12.0046L4.4379 11.9521C3.50793 11.9338 2.57564 11.9703 1.6639 11.7807C0.27694 11.4974 0.178682 10.1081 0.075866 8.94273C-0.0658041 7.3044 -0.0109594 5.63634 0.25639 4.0117C0.407318 3.1001 1.00128 2.55614 1.91982 2.49695C5.02058 2.28213 8.14195 2.30759 11.2358 2.40781C11.5626 2.41699 11.8916 2.46721 12.2138 2.52437C13.8042 2.80315 13.843 4.37751 13.9461 5.70283C14.0489 7.04182 14.0055 8.38769 13.809 9.71757C13.6513 10.8187 13.3497 11.742 12.0767 11.8312C10.4817 11.9477 8.92331 12.0416 7.32384 12.0117C7.32391 12.0046 7.31472 12.0046 7.31016 12.0046ZM5.62155 9.21695C6.8235 8.52684 8.00252 7.84822 9.1976 7.16273C7.99341 6.47262 6.81663 5.794 5.62155 5.10852V9.21695Z" fill="#FF0000"/>
</svg>
