<svg width="771" height="255" viewBox="0 0 771 255" fill="none" xmlns="http://www.w3.org/2000/svg">
<path d="M3.30966 0.100319V7.37305H2.42898V1.02362H2.38636L0.610795 2.20259V1.30771L2.42898 0.100319H3.30966ZM7.77344 7.47248C7.2384 7.47248 6.78267 7.32688 6.40625 7.03569C6.02983 6.74213 5.74219 6.31718 5.54332 5.76083C5.34446 5.20212 5.24503 4.5274 5.24503 3.73668C5.24503 2.9507 5.34446 2.27953 5.54332 1.72319C5.74455 1.16448 6.03338 0.73834 6.4098 0.444779C6.78859 0.148851 7.24313 0.000887513 7.77344 0.000887513C8.30374 0.000887513 8.7571 0.148851 9.13352 0.444779C9.51231 0.73834 9.80114 1.16448 10 1.72319C10.2012 2.27953 10.3018 2.9507 10.3018 3.73668C10.3018 4.5274 10.2024 5.20212 10.0036 5.76083C9.80469 6.31718 9.51705 6.74213 9.14062 7.03569C8.7642 7.32688 8.30848 7.47248 7.77344 7.47248ZM7.77344 6.69123C8.30374 6.69123 8.71567 6.43555 9.00923 5.92418C9.30279 5.41282 9.44957 4.68365 9.44957 3.73668C9.44957 3.10695 9.3821 2.57073 9.24716 2.12802C9.11458 1.68531 8.92282 1.34795 8.67188 1.11594C8.4233 0.883937 8.12382 0.767933 7.77344 0.767933C7.24787 0.767933 6.83712 1.02717 6.54119 1.54563C6.24527 2.06173 6.0973 2.79208 6.0973 3.73668C6.0973 4.36642 6.16359 4.90146 6.29616 5.3418C6.42874 5.78214 6.61932 6.11713 6.8679 6.34677C7.11884 6.57641 7.42069 6.69123 7.77344 6.69123ZM14.0234 7.47248C13.4884 7.47248 13.0327 7.32688 12.6562 7.03569C12.2798 6.74213 11.9922 6.31718 11.7933 5.76083C11.5945 5.20212 11.495 4.5274 11.495 3.73668C11.495 2.9507 11.5945 2.27953 11.7933 1.72319C11.9946 1.16448 12.2834 0.73834 12.6598 0.444779C13.0386 0.148851 13.4931 0.000887513 14.0234 0.000887513C14.5537 0.000887513 15.0071 0.148851 15.3835 0.444779C15.7623 0.73834 16.0511 1.16448 16.25 1.72319C16.4512 2.27953 16.5518 2.9507 16.5518 3.73668C16.5518 4.5274 16.4524 5.20212 16.2536 5.76083C16.0547 6.31718 15.767 6.74213 15.3906 7.03569C15.0142 7.32688 14.5585 7.47248 14.0234 7.47248ZM14.0234 6.69123C14.5537 6.69123 14.9657 6.43555 15.2592 5.92418C15.5528 5.41282 15.6996 4.68365 15.6996 3.73668C15.6996 3.10695 15.6321 2.57073 15.4972 2.12802C15.3646 1.68531 15.1728 1.34795 14.9219 1.11594C14.6733 0.883937 14.3738 0.767933 14.0234 0.767933C13.4979 0.767933 13.0871 1.02717 12.7912 1.54563C12.4953 2.06173 12.3473 2.79208 12.3473 3.73668C12.3473 4.36642 12.4136 4.90146 12.5462 5.3418C12.6787 5.78214 12.8693 6.11713 13.1179 6.34677C13.3688 6.57641 13.6707 6.69123 14.0234 6.69123ZM18.6967 5.38441L18.6825 4.34748H18.853L21.2393 1.9185H22.2763L19.7337 4.48952H19.6626L18.6967 5.38441ZM17.9155 7.37305V0.100319H18.7536V7.37305H17.9155ZM21.3814 7.37305L19.2507 4.67418L19.8473 4.0918L22.4467 7.37305H21.3814Z" fill="#6D7280"/>
<line x1="0.5" y1="10.873" x2="769.5" y2="10.873" stroke="#D2D5DA" stroke-linecap="round" stroke-dasharray="4 4"/>
<path d="M3.02557 53.0721C2.6089 53.0721 2.23366 52.9892 1.89986 52.8235C1.56605 52.6578 1.29853 52.4305 1.0973 52.1417C0.89607 51.8529 0.785985 51.5238 0.767045 51.1545H1.61932C1.65246 51.4835 1.80161 51.7558 2.06676 51.9712C2.33428 52.1843 2.65388 52.2908 3.02557 52.2908C3.32386 52.2908 3.58902 52.221 3.82102 52.0813C4.0554 51.9416 4.23887 51.7499 4.37145 51.506C4.50639 51.2598 4.57386 50.9817 4.57386 50.6715C4.57386 50.3543 4.50402 50.0714 4.36435 49.8228C4.22704 49.5719 4.03764 49.3742 3.79616 49.2298C3.55469 49.0853 3.27888 49.012 2.96875 49.0096C2.74621 49.0072 2.51776 49.0415 2.28338 49.1126C2.04901 49.1812 1.85606 49.27 1.70455 49.3789L0.880682 49.2795L1.32102 45.6999H5.09943V46.4812H2.05966L1.80398 48.6261H1.84659C1.99574 48.5077 2.18277 48.4094 2.40767 48.3313C2.63258 48.2532 2.86695 48.2141 3.1108 48.2141C3.55587 48.2141 3.95241 48.3207 4.30043 48.5337C4.6508 48.7444 4.92543 49.0333 5.12429 49.4002C5.32552 49.7672 5.42614 50.1862 5.42614 50.6573C5.42614 51.1213 5.32197 51.5356 5.11364 51.9002C4.90767 52.2624 4.62358 52.5489 4.26136 52.7596C3.89915 52.9679 3.48722 53.0721 3.02557 53.0721ZM9.20898 53.0721C8.67395 53.0721 8.21822 52.9265 7.8418 52.6353C7.46538 52.3417 7.17773 51.9168 6.97887 51.3604C6.78001 50.8017 6.68058 50.127 6.68058 49.3363C6.68058 48.5503 6.78001 47.8791 6.97887 47.3228C7.1801 46.7641 7.46893 46.3379 7.84535 46.0444C8.22414 45.7485 8.67868 45.6005 9.20898 45.6005C9.73929 45.6005 10.1926 45.7485 10.5691 46.0444C10.9479 46.3379 11.2367 46.7641 11.4355 47.3228C11.6368 47.8791 11.7374 48.5503 11.7374 49.3363C11.7374 50.127 11.638 50.8017 11.4391 51.3604C11.2402 51.9168 10.9526 52.3417 10.5762 52.6353C10.1998 52.9265 9.74402 53.0721 9.20898 53.0721ZM9.20898 52.2908C9.73929 52.2908 10.1512 52.0352 10.4448 51.5238C10.7383 51.0124 10.8851 50.2833 10.8851 49.3363C10.8851 48.7066 10.8176 48.1703 10.6827 47.7276C10.5501 47.2849 10.3584 46.9476 10.1074 46.7156C9.85884 46.4835 9.55936 46.3675 9.20898 46.3675C8.68342 46.3675 8.27267 46.6268 7.97674 47.1452C7.68081 47.6613 7.53285 48.3917 7.53285 49.3363C7.53285 49.966 7.59914 50.5011 7.73171 50.9414C7.86429 51.3817 8.05487 51.7167 8.30344 51.9464C8.55439 52.176 8.85624 52.2908 9.20898 52.2908ZM13.8823 50.984L13.8681 49.9471H14.0385L16.4249 47.5181H17.4618L14.9192 50.0891H14.8482L13.8823 50.984ZM13.101 52.9727V45.6999H13.9391V52.9727H13.101ZM16.5669 52.9727L14.4363 50.2738L15.0328 49.6914L17.6323 52.9727H16.5669Z" fill="#6D7280"/>
<line x1="0.5" y1="56.4727" x2="769.5" y2="56.4727" stroke="#D2D5DA" stroke-linecap="round" stroke-dasharray="4 4"/>
<path d="M3.30966 91.2995V98.5723H2.42898V92.2228H2.38636L0.610795 93.4018V92.5069L2.42898 91.2995H3.30966ZM7.77344 98.6717C7.2384 98.6717 6.78267 98.5261 6.40625 98.2349C6.02983 97.9413 5.74219 97.5164 5.54332 96.96C5.34446 96.4013 5.24503 95.7266 5.24503 94.9359C5.24503 94.1499 5.34446 93.4788 5.54332 92.9224C5.74455 92.3637 6.03338 91.9376 6.4098 91.644C6.78859 91.3481 7.24313 91.2001 7.77344 91.2001C8.30374 91.2001 8.7571 91.3481 9.13352 91.644C9.51231 91.9376 9.80114 92.3637 10 92.9224C10.2012 93.4788 10.3018 94.1499 10.3018 94.9359C10.3018 95.7266 10.2024 96.4013 10.0036 96.96C9.80469 97.5164 9.51705 97.9413 9.14062 98.2349C8.7642 98.5261 8.30848 98.6717 7.77344 98.6717ZM7.77344 97.8904C8.30374 97.8904 8.71567 97.6348 9.00923 97.1234C9.30279 96.612 9.44957 95.8829 9.44957 94.9359C9.44957 94.3062 9.3821 93.7699 9.24716 93.3272C9.11458 92.8845 8.92282 92.5472 8.67188 92.3152C8.4233 92.0832 8.12382 91.9672 7.77344 91.9672C7.24787 91.9672 6.83712 92.2264 6.54119 92.7449C6.24527 93.2609 6.0973 93.9913 6.0973 94.9359C6.0973 95.5656 6.16359 96.1007 6.29616 96.541C6.42874 96.9814 6.61932 97.3163 6.8679 97.546C7.11884 97.7756 7.42069 97.8904 7.77344 97.8904ZM12.4467 96.5836L12.4325 95.5467H12.603L14.9893 93.1177H16.0263L13.4837 95.6887H13.4126L12.4467 96.5836ZM11.6655 98.5723V91.2995H12.5036V98.5723H11.6655ZM15.1314 98.5723L13.0007 95.8734L13.5973 95.291L16.1967 98.5723H15.1314Z" fill="#6D7280"/>
<line x1="0.5" y1="102.072" x2="769.5" y2="102.072" stroke="#D2D5DA" stroke-linecap="round" stroke-dasharray="4 4"/>
<path d="M3.02557 144.273C2.6089 144.273 2.23366 144.19 1.89986 144.025C1.56605 143.859 1.29853 143.632 1.0973 143.343C0.89607 143.054 0.785985 142.725 0.767045 142.356H1.61932C1.65246 142.685 1.80161 142.957 2.06676 143.172C2.33428 143.385 2.65388 143.492 3.02557 143.492C3.32386 143.492 3.58902 143.422 3.82102 143.282C4.0554 143.143 4.23887 142.951 4.37145 142.707C4.50639 142.461 4.57386 142.183 4.57386 141.873C4.57386 141.555 4.50402 141.273 4.36435 141.024C4.22704 140.773 4.03764 140.575 3.79616 140.431C3.55469 140.287 3.27888 140.213 2.96875 140.211C2.74621 140.208 2.51776 140.243 2.28338 140.314C2.04901 140.382 1.85606 140.471 1.70455 140.58L0.880682 140.481L1.32102 136.901H5.09943V137.682H2.05966L1.80398 139.827H1.84659C1.99574 139.709 2.18277 139.611 2.40767 139.532C2.63258 139.454 2.86695 139.415 3.1108 139.415C3.55587 139.415 3.95241 139.522 4.30043 139.735C4.6508 139.946 4.92543 140.234 5.12429 140.601C5.32552 140.968 5.42614 141.387 5.42614 141.858C5.42614 142.323 5.32197 142.737 5.11364 143.101C4.90767 143.464 4.62358 143.75 4.26136 143.961C3.89915 144.169 3.48722 144.273 3.02557 144.273ZM7.63228 142.185L7.61808 141.148H7.78853L10.1749 138.719H11.2118L8.66921 141.29H8.59819L7.63228 142.185ZM6.85103 144.174V136.901H7.6891V144.174H6.85103ZM10.3169 144.174L8.18626 141.475L8.78285 140.893L11.3823 144.174H10.3169Z" fill="#6D7280"/>
<line x1="0.5" y1="147.674" x2="769.5" y2="147.674" stroke="#D2D5DA" stroke-linecap="round" stroke-dasharray="4 4"/>
<path d="M3.30966 182.501V189.773H2.42898V183.424H2.38636L0.610795 184.603V183.708L2.42898 182.501H3.30966ZM6.19673 187.785L6.18253 186.748H6.35298L8.73935 184.319H9.77628L7.23366 186.89H7.16264L6.19673 187.785ZM5.41548 189.773V182.501H6.25355V189.773H5.41548ZM8.88139 189.773L6.75071 187.075L7.3473 186.492L9.94673 189.773H8.88139Z" fill="#6D7280"/>
<line x1="0.5" y1="193.273" x2="769.5" y2="193.273" stroke="#D2D5DA" stroke-linecap="round" stroke-dasharray="4 4"/>
<path d="M3.125 235.472C2.58996 235.472 2.13423 235.327 1.75781 235.036C1.38139 234.742 1.09375 234.317 0.894886 233.761C0.696023 233.202 0.596591 232.527 0.596591 231.737C0.596591 230.951 0.696023 230.28 0.894886 229.723C1.09612 229.164 1.38494 228.738 1.76136 228.445C2.14015 228.149 2.5947 228.001 3.125 228.001C3.6553 228.001 4.10866 228.149 4.48509 228.445C4.86387 228.738 5.1527 229.164 5.35156 229.723C5.55279 230.28 5.65341 230.951 5.65341 231.737C5.65341 232.527 5.55398 233.202 5.35511 233.761C5.15625 234.317 4.86861 234.742 4.49219 235.036C4.11577 235.327 3.66004 235.472 3.125 235.472ZM3.125 234.691C3.6553 234.691 4.06723 234.436 4.3608 233.924C4.65436 233.413 4.80114 232.684 4.80114 231.737C4.80114 231.107 4.73366 230.571 4.59872 230.128C4.46615 229.685 4.27438 229.348 4.02344 229.116C3.77486 228.884 3.47538 228.768 3.125 228.768C2.59943 228.768 2.18868 229.027 1.89276 229.546C1.59683 230.062 1.44886 230.792 1.44886 231.737C1.44886 232.366 1.51515 232.901 1.64773 233.342C1.7803 233.782 1.97088 234.117 2.21946 234.347C2.47041 234.576 2.77225 234.691 3.125 234.691ZM9.375 235.472C8.83996 235.472 8.38423 235.327 8.00781 235.036C7.63139 234.742 7.34375 234.317 7.14489 233.761C6.94602 233.202 6.84659 232.527 6.84659 231.737C6.84659 230.951 6.94602 230.28 7.14489 229.723C7.34612 229.164 7.63494 228.738 8.01136 228.445C8.39015 228.149 8.8447 228.001 9.375 228.001C9.9053 228.001 10.3587 228.149 10.7351 228.445C11.1139 228.738 11.4027 229.164 11.6016 229.723C11.8028 230.28 11.9034 230.951 11.9034 231.737C11.9034 232.527 11.804 233.202 11.6051 233.761C11.4062 234.317 11.1186 234.742 10.7422 235.036C10.3658 235.327 9.91004 235.472 9.375 235.472ZM9.375 234.691C9.9053 234.691 10.3172 234.436 10.6108 233.924C10.9044 233.413 11.0511 232.684 11.0511 231.737C11.0511 231.107 10.9837 230.571 10.8487 230.128C10.7161 229.685 10.5244 229.348 10.2734 229.116C10.0249 228.884 9.72538 228.768 9.375 228.768C8.84943 228.768 8.43868 229.027 8.14276 229.546C7.84683 230.062 7.69886 230.792 7.69886 231.737C7.69886 232.366 7.76515 232.901 7.89773 233.342C8.0303 233.782 8.22088 234.117 8.46946 234.347C8.72041 234.576 9.02225 234.691 9.375 234.691Z" fill="#6D7280"/>
<line x1="0.5" y1="238.873" x2="769.5" y2="238.873" stroke="#D2D5DA" stroke-linecap="round" stroke-dasharray="4 4"/>
<path opacity="0.4" d="M29.1991 123.663L23 120.157V238.373H770V34.3844L760.456 26.2449C758.361 24.4579 755.494 23.8742 752.867 24.6997L740.588 28.5579C739.916 28.769 739.3 29.1297 738.788 29.6129C737.56 30.77 735.803 31.1735 734.194 30.6678L728.362 28.8355C725.6 27.9675 722.584 28.66 720.477 30.6462L718.478 32.5308C717.202 33.7332 715.567 34.4833 713.823 34.6659L707.051 35.3753C705.991 35.4863 704.963 35.8081 704.029 36.3216L702.812 36.9909C699.951 38.564 696.418 38.219 693.916 36.1221C690.251 33.0518 684.722 33.9059 682.155 37.9388L678.291 44.0097C676.823 46.3168 674.277 47.714 671.542 47.714H669.729C667.784 47.714 665.906 47.0052 664.445 45.7203L658.924 40.8629C658.012 40.0603 657.489 38.904 657.489 37.6889C657.489 34.7094 654.489 32.6648 651.716 33.7541L645.895 36.0403C643.875 36.8339 642.263 38.4145 641.431 40.4194L639.526 45.0088C638.151 48.3217 634.738 50.3142 631.177 49.8838L617.083 48.1806C615.03 47.9325 613.222 49.5352 613.222 51.6033C613.222 53.3513 611.914 54.8226 610.178 55.0272L604.757 55.666C601.17 56.0886 598.467 59.1289 598.467 62.7407C598.467 66.3876 595.712 69.4456 592.085 69.8255L584.076 70.6643C582.631 70.8158 581.253 71.3582 580.093 72.2334L575.739 75.517C573.784 76.9906 571.263 77.4886 568.895 76.8687L564.928 75.8299C562.79 75.2701 560.516 75.6196 558.645 76.7955L551.675 81.1758C550.905 81.6598 550.058 82.0089 549.17 82.2081L542.491 83.7071C539.5 84.3785 536.388 83.2813 534.479 80.8822L527.629 72.2723C526.907 71.3654 525.997 70.6262 524.962 70.1056L521.491 68.361C518.909 67.0628 515.827 67.2584 513.43 68.8726L506.551 73.5041C505.261 74.3732 503.563 74.3392 502.309 73.4192C500.494 72.0888 497.921 72.6782 496.867 74.666L495.178 77.8503L493.888 79.7417C491.504 83.2372 486.811 84.2721 483.178 82.1033L473.176 76.1321C471.95 75.4006 471.2 74.0786 471.2 72.6515C471.2 69.679 468.107 67.7173 465.418 68.9846L461.996 70.5972C460.859 71.1332 460.133 72.2777 460.133 73.535C460.133 75.6957 458.063 77.254 455.987 76.656L442.401 72.7428C439.722 71.9713 436.84 72.8417 435.037 74.9668C432.572 77.871 428.253 78.307 425.257 75.9541L425.022 75.7693C421.95 73.3559 417.53 73.7482 414.931 76.665L407.98 84.4658C407.103 85.4493 405.997 86.2012 404.76 86.6546L397.982 89.1393C396.418 89.7126 394.714 89.7834 393.108 89.3418L382.852 86.522C381.521 86.1562 380.308 85.4525 379.33 84.4792L372.982 78.1629C370.982 76.1725 368.081 75.3832 365.347 76.0858L352.67 79.3449C351.047 79.7621 349.467 78.5364 349.467 76.8605C349.467 75.0848 347.706 73.8462 346.035 74.4464L340.608 76.395C338.144 77.2799 335.39 76.6295 333.582 74.7359L328.38 69.2878C326.569 67.3909 323.943 66.5022 321.353 66.9093L310.459 68.6207C308.493 68.9295 307.044 70.6235 307.044 72.6137C307.044 75.2619 304.54 77.1946 301.979 76.5239L297.99 75.4794C296.675 75.1352 295.29 75.1687 293.994 75.576L282.334 79.2397C280.448 79.8322 278.401 79.6161 276.681 78.6431L275.957 78.2336C272.8 76.4482 268.791 77.6671 267.163 80.9077C265.715 83.7889 262.337 85.1261 259.309 84.0163L255.842 82.7454C254.352 82.1989 252.732 82.1084 251.19 82.4853L238.463 85.5956C237.467 85.8389 236.528 86.2712 235.695 86.8691L229.131 91.5838C226.205 93.685 222.183 93.3362 219.663 90.7626C217.813 88.8733 215.086 88.1331 212.534 88.8279L190.321 94.877C189.447 95.115 188.619 95.4999 187.874 96.0151L183.993 98.6981C181.436 100.466 178.071 100.539 175.439 98.8853C173.511 97.6735 171.148 97.3687 168.975 98.0514L168.548 98.1857C166.311 98.8885 163.878 98.5747 161.893 97.3271L154.283 92.5449C151.807 90.9886 148.679 90.9079 146.125 92.3342L134.929 98.5883C134.094 99.0547 133.35 99.6669 132.731 100.396L129.022 104.767C127.312 106.782 124.717 107.822 122.089 107.547L111.338 106.421C110.25 106.307 109.15 106.417 108.107 106.745L92.6388 111.605C91.7169 111.895 90.855 112.349 90.0951 112.946L86.751 115.573C84.9198 117.012 82.5526 117.581 80.2676 117.132L71.4032 115.391C69.9064 115.097 68.3567 115.238 66.9369 115.795L65.2122 116.473C63.0245 117.332 60.5588 117.101 58.5688 115.85C56.0211 114.249 52.7578 114.35 50.3138 116.105L42.4877 121.726C41.7966 122.222 41.0308 122.605 40.2191 122.86L35.5356 124.332C33.422 124.996 31.1276 124.754 29.1991 123.663Z" fill="url(#paint0_linear_2149_6774)"/>
<path d="M23 120.157L29.1991 123.663C31.1276 124.754 33.422 124.996 35.5356 124.332L40.2191 122.86C41.0308 122.605 41.7966 122.222 42.4877 121.726L50.3138 116.105C52.7578 114.35 56.0211 114.249 58.5688 115.85C60.5588 117.101 63.0245 117.332 65.2122 116.473L66.9369 115.795C68.3567 115.238 69.9064 115.097 71.4032 115.391L80.2676 117.132C82.5526 117.581 84.9198 117.012 86.751 115.573L90.0951 112.946C90.855 112.349 91.7169 111.895 92.6388 111.605L108.107 106.745C109.15 106.417 110.25 106.307 111.338 106.421L122.089 107.547C124.717 107.822 127.312 106.782 129.022 104.767L132.731 100.396C133.35 99.6669 134.094 99.0547 134.929 98.5883L146.125 92.3342C148.679 90.9079 151.807 90.9886 154.283 92.5449L161.893 97.3271C163.878 98.5747 166.311 98.8885 168.548 98.1857L168.975 98.0514C171.148 97.3687 173.511 97.6735 175.439 98.8853C178.071 100.539 181.436 100.466 183.993 98.6981L187.874 96.0151C188.619 95.4999 189.447 95.115 190.321 94.877L212.534 88.8279C215.086 88.1331 217.813 88.8733 219.663 90.7626C222.183 93.3362 226.205 93.685 229.131 91.5838L235.695 86.8691C236.528 86.2712 237.467 85.8389 238.463 85.5956L251.19 82.4853C252.732 82.1084 254.352 82.1989 255.842 82.7454L259.309 84.0163C262.337 85.1261 265.715 83.7889 267.163 80.9077C268.791 77.6671 272.8 76.4482 275.957 78.2336L276.681 78.6431C278.401 79.6162 280.448 79.8322 282.334 79.2397L293.994 75.576C295.29 75.1687 296.675 75.1352 297.99 75.4794L301.979 76.5239C304.54 77.1946 307.044 75.2619 307.044 72.6137C307.044 70.6235 308.493 68.9295 310.459 68.6207L321.353 66.9093C323.943 66.5022 326.569 67.3909 328.38 69.2878L333.582 74.7358C335.39 76.6295 338.144 77.2799 340.608 76.395L346.035 74.4464C347.706 73.8462 349.467 75.0848 349.467 76.8605C349.467 78.5364 351.047 79.7621 352.67 79.3449L365.347 76.0858C368.081 75.3832 370.982 76.1725 372.982 78.1629L379.33 84.4792C380.308 85.4525 381.521 86.1562 382.852 86.522L393.108 89.3418C394.714 89.7834 396.418 89.7126 397.982 89.1393L404.76 86.6546C405.997 86.2012 407.103 85.4493 407.98 84.4658L414.931 76.665C417.53 73.7482 421.95 73.3559 425.022 75.7693L425.257 75.9541C428.253 78.307 432.572 77.871 435.037 74.9668C436.84 72.8417 439.722 71.9713 442.401 72.7428L455.987 76.656C458.063 77.254 460.133 75.6957 460.133 73.535C460.133 72.2777 460.859 71.1332 461.996 70.5972L465.418 68.9846C468.107 67.7173 471.2 69.679 471.2 72.6515C471.2 74.0786 471.95 75.4006 473.176 76.1321L483.178 82.1033C486.811 84.2721 491.504 83.2372 493.888 79.7417L495.178 77.8503L496.867 74.666C497.921 72.6782 500.494 72.0888 502.309 73.4192C503.563 74.3392 505.261 74.3732 506.551 73.5041L513.43 68.8726C515.827 67.2584 518.909 67.0628 521.491 68.361L524.962 70.1056C525.997 70.6262 526.907 71.3654 527.629 72.2723L534.479 80.8822C536.388 83.2813 539.5 84.3785 542.491 83.7071L549.17 82.2081C550.058 82.0089 550.905 81.6598 551.675 81.1758L558.645 76.7955C560.516 75.6196 562.79 75.2701 564.928 75.8299L568.895 76.8687C571.263 77.4886 573.784 76.9906 575.739 75.517L580.093 72.2334C581.253 71.3582 582.631 70.8158 584.076 70.6643L592.085 69.8255C595.712 69.4456 598.467 66.3876 598.467 62.7407C598.467 59.1289 601.17 56.0886 604.757 55.666L610.178 55.0272C611.914 54.8226 613.222 53.3513 613.222 51.6033C613.222 49.5352 615.03 47.9325 617.083 48.1806L631.177 49.8838C634.738 50.3142 638.151 48.3217 639.526 45.0088L641.431 40.4194C642.263 38.4145 643.875 36.8339 645.895 36.0403L651.716 33.7541C654.489 32.6648 657.489 34.7094 657.489 37.6889C657.489 38.904 658.012 40.0603 658.924 40.8629L664.445 45.7203C665.906 47.0052 667.784 47.714 669.729 47.714H671.542C674.277 47.714 676.823 46.3168 678.291 44.0097L682.155 37.9388C684.722 33.9059 690.251 33.0518 693.916 36.1221C696.418 38.219 699.951 38.564 702.812 36.9909L704.029 36.3216C704.963 35.8081 705.991 35.4863 707.051 35.3753L713.824 34.6659C715.567 34.4833 717.202 33.7332 718.478 32.5308L720.477 30.6462C722.584 28.66 725.6 27.9675 728.362 28.8355L734.194 30.6678C735.803 31.1735 737.56 30.77 738.788 29.6128C739.3 29.1297 739.916 28.769 740.588 28.5579L752.867 24.6997C755.494 23.8742 758.361 24.4579 760.456 26.2449L770 34.3844" stroke="#346902" stroke-width="2" stroke-linecap="round" stroke-linejoin="round"/>
<path d="M3.125 254.472C2.58996 254.472 2.13423 254.327 1.75781 254.036C1.38139 253.742 1.09375 253.317 0.894886 252.761C0.696023 252.202 0.596591 251.527 0.596591 250.737C0.596591 249.951 0.696023 249.28 0.894886 248.723C1.09612 248.164 1.38494 247.738 1.76136 247.445C2.14015 247.149 2.5947 247.001 3.125 247.001C3.6553 247.001 4.10866 247.149 4.48509 247.445C4.86387 247.738 5.1527 248.164 5.35156 248.723C5.55279 249.28 5.65341 249.951 5.65341 250.737C5.65341 251.527 5.55398 252.202 5.35511 252.761C5.15625 253.317 4.86861 253.742 4.49219 254.036C4.11577 254.327 3.66004 254.472 3.125 254.472ZM3.125 253.691C3.6553 253.691 4.06723 253.436 4.3608 252.924C4.65436 252.413 4.80114 251.684 4.80114 250.737C4.80114 250.107 4.73366 249.571 4.59872 249.128C4.46615 248.685 4.27438 248.348 4.02344 248.116C3.77486 247.884 3.47538 247.768 3.125 247.768C2.59943 247.768 2.18868 248.027 1.89276 248.546C1.59683 249.062 1.44886 249.792 1.44886 250.737C1.44886 251.366 1.51515 251.901 1.64773 252.342C1.7803 252.782 1.97088 253.117 2.21946 253.347C2.47041 253.576 2.77225 253.691 3.125 253.691ZM9.375 254.472C8.83996 254.472 8.38423 254.327 8.00781 254.036C7.63139 253.742 7.34375 253.317 7.14489 252.761C6.94602 252.202 6.84659 251.527 6.84659 250.737C6.84659 249.951 6.94602 249.28 7.14489 248.723C7.34612 248.164 7.63494 247.738 8.01136 247.445C8.39015 247.149 8.8447 247.001 9.375 247.001C9.9053 247.001 10.3587 247.149 10.7351 247.445C11.1139 247.738 11.4027 248.164 11.6016 248.723C11.8028 249.28 11.9034 249.951 11.9034 250.737C11.9034 251.527 11.804 252.202 11.6051 252.761C11.4062 253.317 11.1186 253.742 10.7422 254.036C10.3658 254.327 9.91004 254.472 9.375 254.472ZM9.375 253.691C9.9053 253.691 10.3172 253.436 10.6108 252.924C10.9044 252.413 11.0511 251.684 11.0511 250.737C11.0511 250.107 10.9837 249.571 10.8487 249.128C10.7161 248.685 10.5244 248.348 10.2734 248.116C10.0249 247.884 9.72538 247.768 9.375 247.768C8.84943 247.768 8.43868 248.027 8.14276 248.546C7.84683 249.062 7.69886 249.792 7.69886 250.737C7.69886 251.366 7.76515 251.901 7.89773 252.342C8.0303 252.782 8.22088 253.117 8.46946 253.347C8.72041 253.576 9.02225 253.691 9.375 253.691Z" fill="#6D7280"/>
<path d="M130.125 254.472C129.59 254.472 129.134 254.327 128.758 254.036C128.381 253.742 128.094 253.317 127.895 252.761C127.696 252.202 127.597 251.527 127.597 250.737C127.597 249.951 127.696 249.28 127.895 248.723C128.096 248.164 128.385 247.738 128.761 247.445C129.14 247.149 129.595 247.001 130.125 247.001C130.655 247.001 131.109 247.149 131.485 247.445C131.864 247.738 132.153 248.164 132.352 248.723C132.553 249.28 132.653 249.951 132.653 250.737C132.653 251.527 132.554 252.202 132.355 252.761C132.156 253.317 131.869 253.742 131.492 254.036C131.116 254.327 130.66 254.472 130.125 254.472ZM130.125 253.691C130.655 253.691 131.067 253.436 131.361 252.924C131.654 252.413 131.801 251.684 131.801 250.737C131.801 250.107 131.734 249.571 131.599 249.128C131.466 248.685 131.274 248.348 131.023 248.116C130.775 247.884 130.475 247.768 130.125 247.768C129.599 247.768 129.189 248.027 128.893 248.546C128.597 249.062 128.449 249.792 128.449 250.737C128.449 251.366 128.515 251.901 128.648 252.342C128.78 252.782 128.971 253.117 129.219 253.347C129.47 253.576 129.772 253.691 130.125 253.691ZM136.276 254.472C135.859 254.472 135.484 254.39 135.15 254.224C134.816 254.058 134.549 253.831 134.347 253.542C134.146 253.253 134.036 252.924 134.017 252.555H134.869C134.902 252.884 135.052 253.156 135.317 253.372C135.584 253.585 135.904 253.691 136.276 253.691C136.574 253.691 136.839 253.621 137.071 253.482C137.305 253.342 137.489 253.15 137.621 252.906C137.756 252.66 137.824 252.382 137.824 252.072C137.824 251.755 137.754 251.472 137.614 251.223C137.477 250.972 137.288 250.775 137.046 250.63C136.805 250.486 136.529 250.412 136.219 250.41C135.996 250.408 135.768 250.442 135.533 250.513C135.299 250.582 135.106 250.67 134.955 250.779L134.131 250.68L134.571 247.1H138.349V247.882H135.31L135.054 250.026H135.097C135.246 249.908 135.433 249.81 135.658 249.732C135.883 249.654 136.117 249.615 136.361 249.615C136.806 249.615 137.202 249.721 137.55 249.934C137.901 250.145 138.175 250.434 138.374 250.801C138.576 251.168 138.676 251.587 138.676 252.058C138.676 252.522 138.572 252.936 138.364 253.301C138.158 253.663 137.874 253.949 137.511 254.16C137.149 254.368 136.737 254.472 136.276 254.472Z" fill="#6D7280"/>
<path d="M257.31 247.1V254.373H256.429V248.024H256.386L254.611 249.203V248.308L256.429 247.1H257.31ZM261.773 254.472C261.238 254.472 260.783 254.327 260.406 254.036C260.03 253.742 259.742 253.317 259.543 252.761C259.344 252.202 259.245 251.527 259.245 250.737C259.245 249.951 259.344 249.28 259.543 248.723C259.745 248.164 260.033 247.738 260.41 247.445C260.789 247.149 261.243 247.001 261.773 247.001C262.304 247.001 262.757 247.149 263.134 247.445C263.512 247.738 263.801 248.164 264 248.723C264.201 249.28 264.302 249.951 264.302 250.737C264.302 251.527 264.202 252.202 264.004 252.761C263.805 253.317 263.517 253.742 263.141 254.036C262.764 254.327 262.308 254.472 261.773 254.472ZM261.773 253.691C262.304 253.691 262.716 253.436 263.009 252.924C263.303 252.413 263.45 251.684 263.45 250.737C263.45 250.107 263.382 249.571 263.247 249.128C263.115 248.685 262.923 248.348 262.672 248.116C262.423 247.884 262.124 247.768 261.773 247.768C261.248 247.768 260.837 248.027 260.541 248.546C260.245 249.062 260.097 249.792 260.097 250.737C260.097 251.366 260.164 251.901 260.296 252.342C260.429 252.782 260.619 253.117 260.868 253.347C261.119 253.576 261.421 253.691 261.773 253.691Z" fill="#6D7280"/>
<path d="M382.31 247.1V254.373H381.429V248.024H381.386L379.611 249.203V248.308L381.429 247.1H382.31ZM386.674 254.472C386.257 254.472 385.882 254.39 385.548 254.224C385.214 254.058 384.947 253.831 384.746 253.542C384.545 253.253 384.434 252.924 384.415 252.555H385.268C385.301 252.884 385.45 253.156 385.715 253.372C385.983 253.585 386.302 253.691 386.674 253.691C386.972 253.691 387.237 253.621 387.469 253.482C387.704 253.342 387.887 253.15 388.02 252.906C388.155 252.66 388.222 252.382 388.222 252.072C388.222 251.755 388.152 251.472 388.013 251.223C387.875 250.972 387.686 250.775 387.445 250.63C387.203 250.486 386.927 250.412 386.617 250.41C386.395 250.408 386.166 250.442 385.932 250.513C385.697 250.582 385.504 250.67 385.353 250.779L384.529 250.68L384.969 247.1H388.748V247.882H385.708L385.452 250.026H385.495C385.644 249.908 385.831 249.81 386.056 249.732C386.281 249.654 386.515 249.615 386.759 249.615C387.204 249.615 387.601 249.721 387.949 249.934C388.299 250.145 388.574 250.434 388.773 250.801C388.974 251.168 389.075 251.587 389.075 252.058C389.075 252.522 388.97 252.936 388.762 253.301C388.556 253.663 388.272 253.949 387.91 254.16C387.548 254.368 387.136 254.472 386.674 254.472Z" fill="#6D7280"/>
<path d="M504.753 254.373V253.734L507.153 251.106C507.435 250.798 507.667 250.531 507.849 250.303C508.032 250.074 508.167 249.858 508.254 249.657C508.344 249.454 508.389 249.24 508.389 249.018C508.389 248.762 508.328 248.541 508.205 248.354C508.084 248.167 507.918 248.022 507.707 247.921C507.497 247.819 507.26 247.768 506.997 247.768C506.718 247.768 506.474 247.826 506.266 247.942C506.06 248.056 505.9 248.215 505.786 248.421C505.675 248.627 505.619 248.869 505.619 249.146H504.781C504.781 248.72 504.879 248.346 505.076 248.024C505.272 247.702 505.54 247.451 505.879 247.271C506.219 247.091 506.602 247.001 507.026 247.001C507.452 247.001 507.829 247.091 508.158 247.271C508.487 247.451 508.746 247.693 508.933 247.999C509.12 248.304 509.213 248.644 509.213 249.018C509.213 249.285 509.165 249.547 509.067 249.803C508.973 250.056 508.807 250.339 508.57 250.651C508.336 250.962 508.01 251.34 507.594 251.788L505.96 253.535V253.592H509.341V254.373H504.753ZM513.18 254.472C512.645 254.472 512.189 254.327 511.812 254.036C511.436 253.742 511.148 253.317 510.95 252.761C510.751 252.202 510.651 251.527 510.651 250.737C510.651 249.951 510.751 249.28 510.95 248.723C511.151 248.164 511.44 247.738 511.816 247.445C512.195 247.149 512.649 247.001 513.18 247.001C513.71 247.001 514.163 247.149 514.54 247.445C514.919 247.738 515.207 248.164 515.406 248.723C515.607 249.28 515.708 249.951 515.708 250.737C515.708 251.527 515.609 252.202 515.41 252.761C515.211 253.317 514.923 253.742 514.547 254.036C514.17 254.327 513.715 254.472 513.18 254.472ZM513.18 253.691C513.71 253.691 514.122 253.436 514.415 252.924C514.709 252.413 514.856 251.684 514.856 250.737C514.856 250.107 514.788 249.571 514.653 249.128C514.521 248.685 514.329 248.348 514.078 248.116C513.83 247.884 513.53 247.768 513.18 247.768C512.654 247.768 512.243 248.027 511.947 248.546C511.652 249.062 511.504 249.792 511.504 250.737C511.504 251.366 511.57 251.901 511.702 252.342C511.835 252.782 512.026 253.117 512.274 253.347C512.525 253.576 512.827 253.691 513.18 253.691Z" fill="#6D7280"/>
<path d="M631.753 254.373V253.734L634.153 251.106C634.435 250.798 634.667 250.531 634.849 250.303C635.032 250.074 635.167 249.858 635.254 249.657C635.344 249.454 635.389 249.24 635.389 249.018C635.389 248.762 635.328 248.541 635.205 248.354C635.084 248.167 634.918 248.022 634.707 247.921C634.497 247.819 634.26 247.768 633.997 247.768C633.718 247.768 633.474 247.826 633.266 247.942C633.06 248.056 632.9 248.215 632.786 248.421C632.675 248.627 632.619 248.869 632.619 249.146H631.781C631.781 248.72 631.879 248.346 632.076 248.024C632.272 247.702 632.54 247.451 632.879 247.271C633.219 247.091 633.602 247.001 634.026 247.001C634.452 247.001 634.829 247.091 635.158 247.271C635.487 247.451 635.746 247.693 635.933 247.999C636.12 248.304 636.213 248.644 636.213 249.018C636.213 249.285 636.165 249.547 636.067 249.803C635.973 250.056 635.807 250.339 635.57 250.651C635.336 250.962 635.01 251.34 634.594 251.788L632.96 253.535V253.592H636.341V254.373H631.753ZM640.08 254.472C639.664 254.472 639.288 254.39 638.955 254.224C638.621 254.058 638.353 253.831 638.152 253.542C637.951 253.253 637.841 252.924 637.822 252.555H638.674C638.707 252.884 638.856 253.156 639.121 253.372C639.389 253.585 639.709 253.691 640.08 253.691C640.379 253.691 640.644 253.621 640.876 253.482C641.11 253.342 641.294 253.15 641.426 252.906C641.561 252.66 641.629 252.382 641.629 252.072C641.629 251.755 641.559 251.472 641.419 251.223C641.282 250.972 641.092 250.775 640.851 250.63C640.609 250.486 640.334 250.412 640.023 250.41C639.801 250.408 639.572 250.442 639.338 250.513C639.104 250.582 638.911 250.67 638.759 250.779L637.935 250.68L638.376 247.1H642.154V247.882H639.114L638.859 250.026H638.901C639.05 249.908 639.237 249.81 639.462 249.732C639.687 249.654 639.922 249.615 640.165 249.615C640.611 249.615 641.007 249.721 641.355 249.934C641.705 250.145 641.98 250.434 642.179 250.801C642.38 251.168 642.481 251.587 642.481 252.058C642.481 252.522 642.377 252.936 642.168 253.301C641.962 253.663 641.678 253.949 641.316 254.16C640.954 254.368 640.542 254.472 640.08 254.472Z" fill="#6D7280"/>
<path d="M761.21 254.472C760.741 254.472 760.324 254.392 759.957 254.231C759.592 254.07 759.302 253.846 759.087 253.56C758.874 253.271 758.758 252.936 758.739 252.555H759.634C759.652 252.789 759.733 252.992 759.875 253.162C760.017 253.33 760.203 253.46 760.433 253.553C760.662 253.645 760.917 253.691 761.196 253.691C761.509 253.691 761.786 253.637 762.027 253.528C762.268 253.419 762.458 253.267 762.595 253.073C762.732 252.879 762.801 252.654 762.801 252.399C762.801 252.131 762.735 251.896 762.602 251.692C762.47 251.486 762.276 251.325 762.02 251.209C761.764 251.093 761.452 251.035 761.082 251.035H760.5V250.254H761.082C761.371 250.254 761.625 250.202 761.842 250.097C762.063 249.993 762.234 249.847 762.357 249.657C762.483 249.468 762.545 249.245 762.545 248.99C762.545 248.743 762.491 248.529 762.382 248.347C762.273 248.164 762.119 248.022 761.92 247.921C761.724 247.819 761.492 247.768 761.224 247.768C760.973 247.768 760.737 247.814 760.514 247.906C760.294 247.996 760.114 248.128 759.974 248.301C759.835 248.471 759.759 248.677 759.747 248.919H758.895C758.909 248.537 759.024 248.204 759.239 247.917C759.455 247.628 759.737 247.403 760.085 247.242C760.435 247.081 760.82 247.001 761.239 247.001C761.688 247.001 762.074 247.092 762.396 247.274C762.718 247.454 762.966 247.692 763.138 247.988C763.311 248.284 763.398 248.604 763.398 248.947C763.398 249.356 763.29 249.706 763.075 249.994C762.862 250.283 762.571 250.483 762.205 250.595V250.651C762.664 250.727 763.022 250.923 763.281 251.237C763.539 251.55 763.668 251.937 763.668 252.399C763.668 252.794 763.56 253.149 763.344 253.464C763.131 253.776 762.84 254.023 762.471 254.203C762.102 254.383 761.681 254.472 761.21 254.472ZM767.677 247.1V254.373H766.796V248.024H766.754L764.978 249.203V248.308L766.796 247.1H767.677Z" fill="#6D7280"/>
<defs>
<linearGradient id="paint0_linear_2149_6774" x1="396.5" y1="23.373" x2="396.5" y2="238.373" gradientUnits="userSpaceOnUse">
<stop stop-color="#346902"/>
<stop offset="1" stop-color="#346902" stop-opacity="0"/>
</linearGradient>
</defs>
</svg>
